M48
METRIC,000.000
T46C0.500
T45C0.900
T44C1.100
%
T46
X046702Y067347
X057754Y081019
X059046Y110483
X059519Y053884
X061586Y107181
X062567Y053884
X062600Y108477
X062854Y110509
X064604Y096251
X065142Y111565
X065852Y089473
X067144Y100823
X067682Y111565
X068917Y068362
X069176Y091251
X069684Y096251
X070016Y089251
X070222Y111565
X072430Y083409
X072762Y111565
X072916Y106341
X072986Y097775
X072986Y095997
X075302Y111565
X075478Y090521
X076478Y102997
X077842Y111565
X079978Y102997
X080374Y098751
X080382Y111565
X080700Y108331
X082922Y111565
X083400Y102601
X083430Y075431
X083478Y089759
X083769Y050089
X084559Y064350
X085051Y076542
X085462Y111565
X085547Y050343
X086224Y099251
X086224Y092751
X086337Y064858
X086337Y061810
X086337Y060032
X086702Y104379
X086732Y072129
X086829Y073494
X087176Y079703
X087684Y068527
X087812Y108331
X088002Y111565
X088075Y061534
X088341Y044247
X089526Y090251
X089526Y088451
X089599Y064858
X089716Y073861
X089780Y096251
X089999Y071076
X090119Y047295
X090119Y043993
X091050Y111245
X091748Y071067
X093272Y080973
X093334Y111271
X093336Y064509
X093590Y042919
X094344Y094941
X095333Y072092
X095622Y064509
X095776Y100245
X095961Y058752
X097376Y099333
X097485Y053391
X098635Y073870
X099517Y053391
X099517Y050089
X099766Y093133
X099940Y079749
X100413Y066758
X100787Y048565
T45
X049126Y097804
X050134Y092195
X051932Y086760
X053964Y066440
X054640Y099722
X054640Y097722
X054640Y095722
X056187Y048733
X056252Y089909
X056640Y099722
X056640Y097722
X056640Y095722
X058640Y099722
X058640Y097722
X058640Y095722
X063687Y047933
X065013Y064027
X065628Y069208
X068569Y063519
X074919Y059963
X082478Y097551
X085018Y102743
X093312Y103397
T44
X056492Y105424
X056492Y102884
X070441Y066838
X072981Y066838
X075521Y066838
X078061Y066838
X080601Y066838
X105782Y053079
X105782Y050539
X105782Y047999
X105782Y045459
X105782Y042919
X105782Y040379
X106036Y104387
X106036Y101847
X106036Y099307
X106036Y096767
X106036Y094227
X106036Y091687
X106036Y087345
X106036Y084805
X106036Y082265
X106036Y079725
X106036Y077185
M30
