M48
INCH
T61C0.020
T60C0.035
T59C0.043
%
T61
X0018390Y0026510
X0022740Y0031900
X0023430Y0021210
X0024630Y0021210
X0024650Y0042710
X0024750Y0043510
X0025430Y0037890
X0025650Y0043920
X0025930Y0035230
X0026650Y0043920
X0027130Y0026910
X0027230Y0035930
X0027430Y0037890
X0027570Y0035140
X0027650Y0043920
X0028520Y0032840
X0028650Y0043920
X0028710Y0041870
X0028730Y0038490
X0029650Y0043920
X0029720Y0035640
X0030110Y0040550
X0030650Y0043920
X0031490Y0040550
X0031640Y0038880
X0031650Y0043920
X0031770Y0042650
X0032650Y0043920
X0032850Y0029700
X0032870Y0035340
X0032980Y0019720
X0033290Y0025330
X0033480Y0030130
X0033650Y0043920
X0033680Y0019820
X0033950Y0039080
X0033950Y0036520
X0033990Y0025530
X0033990Y0024330
X0033990Y0023630
X0034150Y0028400
X0034180Y0028930
X0034320Y0031380
X0034520Y0026980
X0034570Y0042650
X0034650Y0043920
X0034680Y0024230
X0034780Y0017420
X0035250Y0035530
X0035250Y0034820
X0035280Y0025530
X0035320Y0029080
X0035350Y0037890
X0035430Y0027980
X0035480Y0018620
X0035480Y0017320
X0036120Y0027980
X0036720Y0031880
X0036750Y0043810
X0036750Y0025400
X0036850Y0016900
X0037140Y0037380
X0037530Y0028380
X0037650Y0025400
X0037710Y0039470
X0037780Y0023130
X0038340Y0039110
X0038380Y0021020
X0038830Y0029080
X0039180Y0021020
X0039180Y0019720
X0039280Y0036670
X0039350Y0031400
X0039530Y0026280
X0039680Y0019120
T60
X0019340Y0038510
X0019740Y0036300
X0020450Y0034160
X0021250Y0026160
X0021510Y0039260
X0021510Y0038470
X0021510Y0037690
X0022120Y0019190
X0022150Y0035400
X0022300Y0039260
X0022300Y0038470
X0022300Y0037690
X0023090Y0039260
X0023090Y0038470
X0023090Y0037690
X0025070Y0018870
X0025600Y0025210
X0025840Y0027250
X0027000Y0025010
X0029500Y0023610
X0032470Y0038410
X0033470Y0040450
X0036740Y0040710
T59
X0022240Y0041510
X0022240Y0040510
X0027730Y0026310
X0028730Y0026310
X0029730Y0026310
X0030730Y0026310
X0031730Y0026310
X0041850Y0020900
X0041850Y0019900
X0041850Y0018900
X0041850Y0017900
X0041850Y0016900
X0041850Y0015900
X0041950Y0041100
X0041950Y0040100
X0041950Y0039100
X0041950Y0038100
X0041950Y0037100
X0041950Y0036100
X0041950Y0034390
X0041950Y0033390
X0041950Y0032390
X0041950Y0031390
X0041950Y0030390
M30
