G04 start of page 7 for group -4063 idx -4063 *
G04 Title: (unknown), componentmask *
G04 Creator: pcb v4.1.3-ge2c36c29 *
G04 CreationDate: Mon Jan  1 13:57:32 2024 UTC *
G04 For: p *
G04 Format: Gerber/RS-274X *
G04 PCB-Dimensions (mm): 152.40 127.00 *
G04 PCB-Coordinate-Origin: lower left *
%MOMM*%
%FSLAX43Y43*%
%LNTOPMASK*%
%ADD56C,0.652*%
%ADD55C,1.252*%
%ADD54C,1.752*%
%ADD53C,1.852*%
%ADD52C,0.002*%
%ADD51C,2.152*%
%ADD50C,1.952*%
G54D50*X106036Y87345D03*
Y84805D03*
Y82265D03*
Y79725D03*
Y77185D03*
X105782Y53079D03*
Y50539D03*
Y47999D03*
Y45459D03*
Y42919D03*
Y40379D03*
G54D51*X106036Y104387D03*
Y101847D03*
Y99307D03*
Y96767D03*
Y94227D03*
Y91687D03*
X56492Y105424D03*
Y102884D03*
G54D52*G36*
X53802Y100560D02*Y98884D01*
X55478D01*
Y100560D01*
X53802D01*
G37*
G36*
X55802D02*Y98884D01*
X57478D01*
Y100560D01*
X55802D01*
G37*
G36*
Y98560D02*Y96884D01*
X57478D01*
Y98560D01*
X55802D01*
G37*
G36*
X53802D02*Y96884D01*
X55478D01*
Y98560D01*
X53802D01*
G37*
G36*
X55802Y96560D02*Y94884D01*
X57478D01*
Y96560D01*
X55802D01*
G37*
G36*
X53802D02*Y94884D01*
X55478D01*
Y96560D01*
X53802D01*
G37*
G36*
X57802Y100560D02*Y98884D01*
X59478D01*
Y100560D01*
X57802D01*
G37*
G36*
Y98560D02*Y96884D01*
X59478D01*
Y98560D01*
X57802D01*
G37*
G36*
Y96560D02*Y94884D01*
X59478D01*
Y96560D01*
X57802D01*
G37*
G54D53*X70441Y66838D03*
X72981D03*
G54D54*X73987Y45778D03*
G54D53*X75521Y66838D03*
X78061D03*
X80601D03*
G54D55*X49187Y45778D03*
G54D56*X76824Y79013D03*
G54D52*G36*
X101680Y102445D02*X100228D01*
Y100793D01*
X101680D01*
Y102445D01*
G37*
G36*
X99880D02*X98428D01*
Y100793D01*
X99880D01*
Y102445D01*
G37*
G36*
X101680Y100159D02*X100228D01*
Y98507D01*
X101680D01*
Y100159D01*
G37*
G36*
X99880D02*X98428D01*
Y98507D01*
X99880D01*
Y100159D01*
G37*
G36*
X101680Y97873D02*X100228D01*
Y96221D01*
X101680D01*
Y97873D01*
G37*
G36*
X99880D02*X98428D01*
Y96221D01*
X99880D01*
Y97873D01*
G37*
G36*
X101660Y95561D02*X100208D01*
Y93909D01*
X101660D01*
Y95561D01*
G37*
G36*
X99860D02*X98408D01*
Y93909D01*
X99860D01*
Y95561D01*
G37*
G36*
X101680Y104731D02*X100228D01*
Y103079D01*
X101680D01*
Y104731D01*
G37*
G36*
X99880D02*X98428D01*
Y103079D01*
X99880D01*
Y104731D01*
G37*
G36*
X86948Y94929D02*Y94573D01*
X88548D01*
Y94929D01*
X86948D01*
G37*
G36*
Y95429D02*Y95073D01*
X88548D01*
Y95429D01*
X86948D01*
G37*
G36*
Y95929D02*Y95573D01*
X88548D01*
Y95929D01*
X86948D01*
G37*
G36*
Y96429D02*Y96073D01*
X88548D01*
Y96429D01*
X86948D01*
G37*
G36*
Y96929D02*Y96573D01*
X88548D01*
Y96929D01*
X86948D01*
G37*
G36*
Y97429D02*Y97073D01*
X88548D01*
Y97429D01*
X86948D01*
G37*
G36*
Y97929D02*Y97573D01*
X88548D01*
Y97929D01*
X86948D01*
G37*
G36*
Y98429D02*Y98073D01*
X88548D01*
Y98429D01*
X86948D01*
G37*
G36*
Y98929D02*Y98573D01*
X88548D01*
Y98929D01*
X86948D01*
G37*
G36*
X93822Y97291D02*X92369D01*
Y95639D01*
X93822D01*
Y97291D01*
G37*
G36*
X92022D02*X90569D01*
Y95639D01*
X92022D01*
Y97291D01*
G37*
G36*
X93576Y86737D02*X92123D01*
Y85085D01*
X93576D01*
Y86737D01*
G37*
G36*
X91776D02*X90323D01*
Y85085D01*
X91776D01*
Y86737D01*
G37*
G36*
X90668Y82461D02*Y81009D01*
X92320D01*
Y82461D01*
X90668D01*
G37*
G36*
Y80662D02*Y79209D01*
X92320D01*
Y80662D01*
X90668D01*
G37*
G36*
X97255Y57493D02*Y56041D01*
X98907D01*
Y57493D01*
X97255D01*
G37*
G36*
Y59293D02*Y57841D01*
X98907D01*
Y59293D01*
X97255D01*
G37*
G36*
X96405Y47259D02*Y45807D01*
X98057D01*
Y47259D01*
X96405D01*
G37*
G36*
Y45459D02*Y44007D01*
X98057D01*
Y45459D01*
X96405D01*
G37*
G36*
X98691Y47259D02*Y45807D01*
X100343D01*
Y47259D01*
X98691D01*
G37*
G36*
Y45459D02*Y44007D01*
X100343D01*
Y45459D01*
X98691D01*
G37*
G36*
X95135Y40263D02*Y38811D01*
X96787D01*
Y40263D01*
X95135D01*
G37*
G36*
Y42063D02*Y40611D01*
X96787D01*
Y42063D01*
X95135D01*
G37*
G36*
X97675Y40263D02*Y38811D01*
X99327D01*
Y40263D01*
X97675D01*
G37*
G36*
Y42063D02*Y40611D01*
X99327D01*
Y42063D01*
X97675D01*
G37*
G36*
X88773Y62260D02*Y60808D01*
X90425D01*
Y62260D01*
X88773D01*
G37*
G36*
Y64060D02*Y62608D01*
X90425D01*
Y64060D01*
X88773D01*
G37*
G36*
X105747Y64218D02*X103207D01*
Y58122D01*
X105747D01*
Y64218D01*
G37*
G36*
X96793Y64008D02*Y62556D01*
X98445D01*
Y64008D01*
X96793D01*
G37*
G36*
X92437Y68770D02*Y68414D01*
X93657D01*
Y68770D01*
X92437D01*
G37*
G36*
Y69270D02*Y68914D01*
X93657D01*
Y69270D01*
X92437D01*
G37*
G36*
Y69770D02*Y69414D01*
X93657D01*
Y69770D01*
X92437D01*
G37*
G36*
Y70270D02*Y69914D01*
X93657D01*
Y70270D01*
X92437D01*
G37*
G36*
Y70770D02*Y70414D01*
X93657D01*
Y70770D01*
X92437D01*
G37*
G36*
Y71270D02*Y70914D01*
X93657D01*
Y71270D01*
X92437D01*
G37*
G36*
Y71770D02*Y71414D01*
X93657D01*
Y71770D01*
X92437D01*
G37*
G36*
Y72270D02*Y71914D01*
X93657D01*
Y72270D01*
X92437D01*
G37*
G36*
Y72770D02*Y72414D01*
X93657D01*
Y72770D01*
X92437D01*
G37*
G36*
X105747Y73718D02*X103207D01*
Y67622D01*
X105747D01*
Y73718D01*
G37*
G36*
X92437Y73270D02*Y72914D01*
X93657D01*
Y73270D01*
X92437D01*
G37*
G36*
Y73770D02*Y73414D01*
X93657D01*
Y73770D01*
X92437D01*
G37*
G36*
Y74270D02*Y73914D01*
X93657D01*
Y74270D01*
X92437D01*
G37*
G36*
X91777Y76150D02*X91420D01*
Y74931D01*
X91777D01*
Y76150D01*
G37*
G36*
X91277D02*X90921D01*
Y74931D01*
X91277D01*
Y76150D01*
G37*
G36*
X90777D02*X90420D01*
Y74931D01*
X90777D01*
Y76150D01*
G37*
G36*
X90277D02*X89921D01*
Y74931D01*
X90277D01*
Y76150D01*
G37*
G36*
X89777D02*X89420D01*
Y74931D01*
X89777D01*
Y76150D01*
G37*
G36*
X89277D02*X88921D01*
Y74931D01*
X89277D01*
Y76150D01*
G37*
G36*
X88777D02*X88420D01*
Y74931D01*
X88777D01*
Y76150D01*
G37*
G36*
X88277D02*X87921D01*
Y74931D01*
X88277D01*
Y76150D01*
G37*
G36*
X87777D02*X87420D01*
Y74931D01*
X87777D01*
Y76150D01*
G37*
G36*
X86277Y67753D02*X85921D01*
Y66534D01*
X86277D01*
Y67753D01*
G37*
G36*
X86777D02*X86421D01*
Y66534D01*
X86777D01*
Y67753D01*
G37*
G36*
X87277D02*X86921D01*
Y66534D01*
X87277D01*
Y67753D01*
G37*
G36*
X88073Y53455D02*X86620D01*
Y51803D01*
X88073D01*
Y53455D01*
G37*
G36*
X87244Y48776D02*X86390D01*
Y46322D01*
X87244D01*
Y48776D01*
G37*
G36*
X87777Y67753D02*X87421D01*
Y66534D01*
X87777D01*
Y67753D01*
G37*
G36*
X88277D02*X87921D01*
Y66534D01*
X88277D01*
Y67753D01*
G37*
G36*
X88777D02*X88421D01*
Y66534D01*
X88777D01*
Y67753D01*
G37*
G36*
X89277D02*X88921D01*
Y66534D01*
X89277D01*
Y67753D01*
G37*
G36*
X89777D02*X89421D01*
Y66534D01*
X89777D01*
Y67753D01*
G37*
G36*
X90277D02*X89921D01*
Y66534D01*
X90277D01*
Y67753D01*
G37*
G36*
X90777D02*X90421D01*
Y66534D01*
X90777D01*
Y67753D01*
G37*
G36*
X91277D02*X90921D01*
Y66534D01*
X91277D01*
Y67753D01*
G37*
G36*
X91777D02*X91421D01*
Y66534D01*
X91777D01*
Y67753D01*
G37*
G36*
X91071Y46497D02*Y45045D01*
X92723D01*
Y46497D01*
X91071D01*
G37*
G36*
X99587Y65960D02*Y64508D01*
X101239D01*
Y65960D01*
X99587D01*
G37*
G36*
Y64160D02*Y62708D01*
X101239D01*
Y64160D01*
X99587D01*
G37*
G36*
Y69008D02*Y67556D01*
X101239D01*
Y69008D01*
X99587D01*
G37*
G36*
Y70808D02*Y69356D01*
X101239D01*
Y70808D01*
X99587D01*
G37*
G36*
X94761Y67056D02*Y65604D01*
X96413D01*
Y67056D01*
X94761D01*
G37*
G36*
Y68856D02*Y67404D01*
X96413D01*
Y68856D01*
X94761D01*
G37*
G36*
X99361Y72918D02*X97909D01*
Y71266D01*
X99361D01*
Y72918D01*
G37*
G36*
X97561D02*X96109D01*
Y71266D01*
X97561D01*
Y72918D01*
G37*
G36*
X96793Y65808D02*Y64356D01*
X98445D01*
Y65808D01*
X96793D01*
G37*
G36*
X47975Y70351D02*X47213D01*
Y68065D01*
X47975D01*
Y70351D01*
G37*
G36*
X47030Y84560D02*Y83108D01*
X48682D01*
Y84560D01*
X47030D01*
G37*
G36*
Y82760D02*Y81308D01*
X48682D01*
Y82760D01*
X47030D01*
G37*
G36*
X49245Y70351D02*X48483D01*
Y68065D01*
X49245D01*
Y70351D01*
G37*
G36*
X49460Y66649D02*X48007D01*
Y64997D01*
X49460D01*
Y66649D01*
G37*
G36*
X47660D02*X46207D01*
Y64997D01*
X47660D01*
Y66649D01*
G37*
G36*
X50515Y70351D02*X49753D01*
Y68065D01*
X50515D01*
Y70351D01*
G37*
G36*
X51785D02*X51023D01*
Y68065D01*
X51785D01*
Y70351D01*
G37*
G36*
X53055D02*X52293D01*
Y68065D01*
X53055D01*
Y70351D01*
G37*
G36*
X54325D02*X53563D01*
Y68065D01*
X54325D01*
Y70351D01*
G37*
G36*
X55595D02*X54833D01*
Y68065D01*
X55595D01*
Y70351D01*
G37*
G36*
X56865D02*X56103D01*
Y68065D01*
X56865D01*
Y70351D01*
G37*
G36*
X58135D02*X57373D01*
Y68065D01*
X58135D01*
Y70351D01*
G37*
G36*
X56595Y64853D02*X55143D01*
Y63201D01*
X56595D01*
Y64853D01*
G37*
G36*
X54795D02*X53343D01*
Y63201D01*
X54795D01*
Y64853D01*
G37*
G36*
X50013Y64354D02*X48861D01*
Y60702D01*
X50013D01*
Y64354D01*
G37*
G36*
X48813Y64354D02*X47261D01*
Y60702D01*
X48813D01*
Y64354D01*
G37*
G36*
X51913D02*X50361D01*
Y61702D01*
X51913D01*
Y64354D01*
G37*
G36*
X59405Y70351D02*X58643D01*
Y68065D01*
X59405D01*
Y70351D01*
G37*
G36*
X60675D02*X59913D01*
Y68065D01*
X60675D01*
Y70351D01*
G37*
G36*
X61945D02*X61183D01*
Y68065D01*
X61945D01*
Y70351D01*
G37*
G36*
X63215D02*X62453D01*
Y68065D01*
X63215D01*
Y70351D01*
G37*
G36*
X64485D02*X63723D01*
Y68065D01*
X64485D01*
Y70351D01*
G37*
G36*
X60116Y65347D02*X57932D01*
Y62655D01*
X60116D01*
Y65347D01*
G37*
G36*
X63672D02*X61488D01*
Y62655D01*
X63672D01*
Y65347D01*
G37*
G36*
X64485Y80130D02*X63723D01*
Y77844D01*
X64485D01*
Y80130D01*
G37*
G36*
X63215D02*X62453D01*
Y77844D01*
X63215D01*
Y80130D01*
G37*
G36*
X61945D02*X61183D01*
Y77844D01*
X61945D01*
Y80130D01*
G37*
G36*
X60675D02*X59913D01*
Y77844D01*
X60675D01*
Y80130D01*
G37*
G36*
X59405D02*X58643D01*
Y77844D01*
X59405D01*
Y80130D01*
G37*
G36*
X58135D02*X57373D01*
Y77844D01*
X58135D01*
Y80130D01*
G37*
G36*
X56865D02*X56103D01*
Y77844D01*
X56865D01*
Y80130D01*
G37*
G36*
X55595D02*X54833D01*
Y77844D01*
X55595D01*
Y80130D01*
G37*
G36*
X54325D02*X53563D01*
Y77844D01*
X54325D01*
Y80130D01*
G37*
G36*
X53055D02*X52293D01*
Y77844D01*
X53055D01*
Y80130D01*
G37*
G36*
X51785D02*X51023D01*
Y77844D01*
X51785D01*
Y80130D01*
G37*
G36*
X50515D02*X49753D01*
Y77844D01*
X50515D01*
Y80130D01*
G37*
G36*
X49245D02*X48483D01*
Y77844D01*
X49245D01*
Y80130D01*
G37*
G36*
X47975D02*X47213D01*
Y77844D01*
X47975D01*
Y80130D01*
G37*
G36*
X48949Y104484D02*X46764D01*
Y101792D01*
X48949D01*
Y104484D01*
G37*
G36*
X52505D02*X50320D01*
Y101792D01*
X52505D01*
Y104484D01*
G37*
G36*
X47192Y96370D02*Y94474D01*
X50988D01*
Y96370D01*
X47192D01*
G37*
G36*
Y100970D02*Y99074D01*
X50988D01*
Y100970D01*
X47192D01*
G37*
G36*
X54782Y90747D02*X52598D01*
Y88055D01*
X54782D01*
Y90747D01*
G37*
G36*
X51226D02*X49042D01*
Y88055D01*
X51226D01*
Y90747D01*
G37*
G36*
X51340Y101022D02*Y94422D01*
X59940D01*
Y101022D01*
X51340D01*
G37*
G36*
X69313Y48094D02*X68061D01*
Y45292D01*
X69313D01*
Y48094D01*
G37*
G36*
X66813Y47594D02*X65561D01*
Y44792D01*
X66813D01*
Y47594D01*
G37*
G36*
X64313Y46794D02*X63061D01*
Y43992D01*
X64313D01*
Y46794D01*
G37*
G36*
X61813D02*X60561D01*
Y43992D01*
X61813D01*
Y46794D01*
G37*
G36*
X59313Y47594D02*X58061D01*
Y44792D01*
X59313D01*
Y47594D01*
G37*
G36*
X56813D02*X55561D01*
Y44792D01*
X56813D01*
Y47594D01*
G37*
G36*
X54313D02*X53061D01*
Y44792D01*
X54313D01*
Y47594D01*
G37*
G36*
X52688D02*X51436D01*
Y44792D01*
X52688D01*
Y47594D01*
G37*
G36*
X71813Y45294D02*X70561D01*
Y42492D01*
X71813D01*
Y45294D01*
G37*
G36*
X76963Y44505D02*X74111D01*
Y41352D01*
X76963D01*
Y44505D01*
G37*
G36*
X48863D02*X46011D01*
Y41352D01*
X48863D01*
Y44505D01*
G37*
G36*
X78141Y126470D02*X75506D01*
Y115897D01*
X78141D01*
Y126470D01*
G37*
G36*
X80681D02*X78046D01*
Y115897D01*
X80681D01*
Y126470D01*
G37*
G36*
X83221D02*X80586D01*
Y115897D01*
X83221D01*
Y126470D01*
G37*
G36*
X85761D02*X83126D01*
Y115897D01*
X85761D01*
Y126470D01*
G37*
G36*
X88301D02*X85666D01*
Y115897D01*
X88301D01*
Y126470D01*
G37*
G36*
X90841D02*X88206D01*
Y115897D01*
X90841D01*
Y126470D01*
G37*
G36*
X93381D02*X90746D01*
Y115897D01*
X93381D01*
Y126470D01*
G37*
G36*
X95921D02*X93286D01*
Y115897D01*
X95921D01*
Y126470D01*
G37*
G36*
X66832Y97077D02*X65380D01*
Y95425D01*
X66832D01*
Y97077D01*
G37*
G36*
X68632D02*X67180D01*
Y95425D01*
X68632D01*
Y97077D01*
G37*
G36*
X73656Y88781D02*X73300D01*
Y87181D01*
X73656D01*
Y88781D01*
G37*
G36*
X74156D02*X73800D01*
Y87181D01*
X74156D01*
Y88781D01*
G37*
G36*
X74656D02*X74300D01*
Y87181D01*
X74656D01*
Y88781D01*
G37*
G36*
X75156D02*X74800D01*
Y87181D01*
X75156D01*
Y88781D01*
G37*
G36*
X75656D02*X75300D01*
Y87181D01*
X75656D01*
Y88781D01*
G37*
G36*
X76156D02*X75800D01*
Y87181D01*
X76156D01*
Y88781D01*
G37*
G36*
X76656D02*X76300D01*
Y87181D01*
X76656D01*
Y88781D01*
G37*
G36*
X77156D02*X76800D01*
Y87181D01*
X77156D01*
Y88781D01*
G37*
G36*
X77656D02*X77300D01*
Y87181D01*
X77656D01*
Y88781D01*
G37*
G36*
X73896Y86013D02*X72444D01*
Y84361D01*
X73896D01*
Y86013D01*
G37*
G36*
X75696D02*X74244D01*
Y84361D01*
X75696D01*
Y86013D01*
G37*
G36*
X78156Y88781D02*X77800D01*
Y87181D01*
X78156D01*
Y88781D01*
G37*
G36*
X78656D02*X78300D01*
Y87181D01*
X78656D01*
Y88781D01*
G37*
G36*
X79156D02*X78800D01*
Y87181D01*
X79156D01*
Y88781D01*
G37*
G36*
X79656D02*X79300D01*
Y87181D01*
X79656D01*
Y88781D01*
G37*
G36*
X80156D02*X79800D01*
Y87181D01*
X80156D01*
Y88781D01*
G37*
G36*
X80656D02*X80300D01*
Y87181D01*
X80656D01*
Y88781D01*
G37*
G36*
X81156D02*X80800D01*
Y87181D01*
X81156D01*
Y88781D01*
G37*
G36*
X81656D02*X81300D01*
Y87181D01*
X81656D01*
Y88781D01*
G37*
G36*
X82156D02*X81800D01*
Y87181D01*
X82156D01*
Y88781D01*
G37*
G36*
X82656D02*X82300D01*
Y87181D01*
X82656D01*
Y88781D01*
G37*
G36*
X83156D02*X82800D01*
Y87181D01*
X83156D01*
Y88781D01*
G37*
G36*
X83656D02*X83300D01*
Y87181D01*
X83656D01*
Y88781D01*
G37*
G36*
X84156D02*X83800D01*
Y87181D01*
X84156D01*
Y88781D01*
G37*
G36*
X84656D02*X84300D01*
Y87181D01*
X84656D01*
Y88781D01*
G37*
G36*
X85156D02*X84800D01*
Y87181D01*
X85156D01*
Y88781D01*
G37*
G36*
X85656D02*X85300D01*
Y87181D01*
X85656D01*
Y88781D01*
G37*
G36*
X90224Y89177D02*Y87725D01*
X91876D01*
Y89177D01*
X90224D01*
G37*
G36*
X86948Y90429D02*Y90073D01*
X88548D01*
Y90429D01*
X86948D01*
G37*
G36*
Y90929D02*Y90573D01*
X88548D01*
Y90929D01*
X86948D01*
G37*
G36*
Y91429D02*Y91073D01*
X88548D01*
Y91429D01*
X86948D01*
G37*
G36*
Y91929D02*Y91573D01*
X88548D01*
Y91929D01*
X86948D01*
G37*
G36*
X90224Y90977D02*Y89525D01*
X91876D01*
Y90977D01*
X90224D01*
G37*
G36*
X86948Y92429D02*Y92073D01*
X88548D01*
Y92429D01*
X86948D01*
G37*
G36*
Y92929D02*Y92573D01*
X88548D01*
Y92929D01*
X86948D01*
G37*
G36*
Y93429D02*Y93073D01*
X88548D01*
Y93429D01*
X86948D01*
G37*
G36*
Y93929D02*Y93573D01*
X88548D01*
Y93929D01*
X86948D01*
G37*
G36*
Y94429D02*Y94073D01*
X88548D01*
Y94429D01*
X86948D01*
G37*
G36*
X66578Y92077D02*X65126D01*
Y90425D01*
X66578D01*
Y92077D01*
G37*
G36*
X68378D02*X66926D01*
Y90425D01*
X68378D01*
Y92077D01*
G37*
G36*
X70408Y96929D02*Y96573D01*
X72008D01*
Y96929D01*
X70408D01*
G37*
G36*
Y96429D02*Y96073D01*
X72008D01*
Y96429D01*
X70408D01*
G37*
G36*
Y95929D02*Y95573D01*
X72008D01*
Y95929D01*
X70408D01*
G37*
G36*
Y95429D02*Y95073D01*
X72008D01*
Y95429D01*
X70408D01*
G37*
G36*
Y94929D02*Y94573D01*
X72008D01*
Y94929D01*
X70408D01*
G37*
G36*
Y94429D02*Y94073D01*
X72008D01*
Y94429D01*
X70408D01*
G37*
G36*
Y93929D02*Y93573D01*
X72008D01*
Y93929D01*
X70408D01*
G37*
G36*
Y93429D02*Y93073D01*
X72008D01*
Y93429D01*
X70408D01*
G37*
G36*
Y92929D02*Y92573D01*
X72008D01*
Y92929D01*
X70408D01*
G37*
G36*
Y92429D02*Y92073D01*
X72008D01*
Y92429D01*
X70408D01*
G37*
G36*
Y91929D02*Y91573D01*
X72008D01*
Y91929D01*
X70408D01*
G37*
G36*
Y91429D02*Y91073D01*
X72008D01*
Y91429D01*
X70408D01*
G37*
G36*
Y90929D02*Y90573D01*
X72008D01*
Y90929D01*
X70408D01*
G37*
G36*
Y90429D02*Y90073D01*
X72008D01*
Y90429D01*
X70408D01*
G37*
G36*
X67981Y126470D02*X65346D01*
Y115897D01*
X67981D01*
Y126470D01*
G37*
G36*
X70521D02*X67886D01*
Y115897D01*
X70521D01*
Y126470D01*
G37*
G36*
X60361D02*X57726D01*
Y115897D01*
X60361D01*
Y126470D01*
G37*
G36*
X62901D02*X60266D01*
Y115897D01*
X62901D01*
Y126470D01*
G37*
G36*
X65441D02*X62806D01*
Y115897D01*
X65441D01*
Y126470D01*
G37*
G36*
X73061D02*X70426D01*
Y115897D01*
X73061D01*
Y126470D01*
G37*
G36*
X75601D02*X72966D01*
Y115897D01*
X75601D01*
Y126470D01*
G37*
G36*
X86948Y99429D02*Y99073D01*
X88548D01*
Y99429D01*
X86948D01*
G37*
G36*
Y99929D02*Y99573D01*
X88548D01*
Y99929D01*
X86948D01*
G37*
G36*
Y100429D02*Y100073D01*
X88548D01*
Y100429D01*
X86948D01*
G37*
G36*
Y100929D02*Y100573D01*
X88548D01*
Y100929D01*
X86948D01*
G37*
G36*
Y101429D02*Y101073D01*
X88548D01*
Y101429D01*
X86948D01*
G37*
G36*
Y101929D02*Y101573D01*
X88548D01*
Y101929D01*
X86948D01*
G37*
G36*
Y102429D02*Y102073D01*
X88548D01*
Y102429D01*
X86948D01*
G37*
G36*
X85656Y105321D02*X85300D01*
Y103721D01*
X85656D01*
Y105321D01*
G37*
G36*
X85156D02*X84800D01*
Y103721D01*
X85156D01*
Y105321D01*
G37*
G36*
X84656D02*X84300D01*
Y103721D01*
X84656D01*
Y105321D01*
G37*
G36*
X84156D02*X83800D01*
Y103721D01*
X84156D01*
Y105321D01*
G37*
G36*
X83656D02*X83300D01*
Y103721D01*
X83656D01*
Y105321D01*
G37*
G36*
X83156D02*X82800D01*
Y103721D01*
X83156D01*
Y105321D01*
G37*
G36*
X85462Y107257D02*Y105805D01*
X87114D01*
Y107257D01*
X85462D01*
G37*
G36*
X81398D02*Y105805D01*
X83050D01*
Y107257D01*
X81398D01*
G37*
G36*
X85462Y109057D02*Y107605D01*
X87114D01*
Y109057D01*
X85462D01*
G37*
G36*
X81398D02*Y107605D01*
X83050D01*
Y109057D01*
X81398D01*
G37*
G36*
X82656Y105321D02*X82300D01*
Y103721D01*
X82656D01*
Y105321D01*
G37*
G36*
X82156D02*X81800D01*
Y103721D01*
X82156D01*
Y105321D01*
G37*
G36*
X81656D02*X81300D01*
Y103721D01*
X81656D01*
Y105321D01*
G37*
G36*
X81156D02*X80800D01*
Y103721D01*
X81156D01*
Y105321D01*
G37*
G36*
X80656D02*X80300D01*
Y103721D01*
X80656D01*
Y105321D01*
G37*
G36*
X80156D02*X79800D01*
Y103721D01*
X80156D01*
Y105321D01*
G37*
G36*
X79656D02*X79300D01*
Y103721D01*
X79656D01*
Y105321D01*
G37*
G36*
X79156D02*X78800D01*
Y103721D01*
X79156D01*
Y105321D01*
G37*
G36*
X78656D02*X78300D01*
Y103721D01*
X78656D01*
Y105321D01*
G37*
G36*
X78156D02*X77800D01*
Y103721D01*
X78156D01*
Y105321D01*
G37*
G36*
X77656D02*X77300D01*
Y103721D01*
X77656D01*
Y105321D01*
G37*
G36*
X77156D02*X76800D01*
Y103721D01*
X77156D01*
Y105321D01*
G37*
G36*
X76656D02*X76300D01*
Y103721D01*
X76656D01*
Y105321D01*
G37*
G36*
X76156D02*X75800D01*
Y103721D01*
X76156D01*
Y105321D01*
G37*
G36*
X75656D02*X75300D01*
Y103721D01*
X75656D01*
Y105321D01*
G37*
G36*
X75156D02*X74800D01*
Y103721D01*
X75156D01*
Y105321D01*
G37*
G36*
X74656D02*X74300D01*
Y103721D01*
X74656D01*
Y105321D01*
G37*
G36*
X74156D02*X73800D01*
Y103721D01*
X74156D01*
Y105321D01*
G37*
G36*
X73656D02*X73300D01*
Y103721D01*
X73656D01*
Y105321D01*
G37*
G36*
X70408Y102429D02*Y102073D01*
X72008D01*
Y102429D01*
X70408D01*
G37*
G36*
Y101929D02*Y101573D01*
X72008D01*
Y101929D01*
X70408D01*
G37*
G36*
Y101429D02*Y101073D01*
X72008D01*
Y101429D01*
X70408D01*
G37*
G36*
Y100929D02*Y100573D01*
X72008D01*
Y100929D01*
X70408D01*
G37*
G36*
Y100429D02*Y100073D01*
X72008D01*
Y100429D01*
X70408D01*
G37*
G36*
Y99929D02*Y99573D01*
X72008D01*
Y99929D01*
X70408D01*
G37*
G36*
Y99429D02*Y99073D01*
X72008D01*
Y99429D01*
X70408D01*
G37*
G36*
Y98929D02*Y98573D01*
X72008D01*
Y98929D01*
X70408D01*
G37*
G36*
Y98429D02*Y98073D01*
X72008D01*
Y98429D01*
X70408D01*
G37*
G36*
Y97929D02*Y97573D01*
X72008D01*
Y97929D01*
X70408D01*
G37*
G36*
Y97429D02*Y97073D01*
X72008D01*
Y97429D01*
X70408D01*
G37*
G36*
X87277Y76150D02*X86921D01*
Y74931D01*
X87277D01*
Y76150D01*
G37*
G36*
X86777D02*X86420D01*
Y74931D01*
X86777D01*
Y76150D01*
G37*
G36*
X86277D02*X85921D01*
Y74931D01*
X86277D01*
Y76150D01*
G37*
G36*
X84041Y74270D02*Y73914D01*
X85260D01*
Y74270D01*
X84041D01*
G37*
G36*
Y73770D02*Y73414D01*
X85260D01*
Y73770D01*
X84041D01*
G37*
G36*
Y73270D02*Y72914D01*
X85260D01*
Y73270D01*
X84041D01*
G37*
G36*
Y72770D02*Y72414D01*
X85260D01*
Y72770D01*
X84041D01*
G37*
G36*
Y72270D02*Y71914D01*
X85260D01*
Y72270D01*
X84041D01*
G37*
G36*
Y71770D02*Y71414D01*
X85260D01*
Y71770D01*
X84041D01*
G37*
G36*
Y71270D02*Y70914D01*
X85260D01*
Y71270D01*
X84041D01*
G37*
G36*
Y70770D02*Y70414D01*
X85260D01*
Y70770D01*
X84041D01*
G37*
G36*
Y70270D02*Y69914D01*
X85260D01*
Y70270D01*
X84041D01*
G37*
G36*
Y69770D02*Y69414D01*
X85260D01*
Y69770D01*
X84041D01*
G37*
G36*
Y69270D02*Y68914D01*
X85260D01*
Y69270D01*
X84041D01*
G37*
G36*
Y68770D02*Y68414D01*
X85260D01*
Y68770D01*
X84041D01*
G37*
G36*
X86273Y53455D02*X84820D01*
Y51803D01*
X86273D01*
Y53455D01*
G37*
G36*
X81487Y52407D02*X80035D01*
Y50755D01*
X81487D01*
Y52407D01*
G37*
G36*
X79687D02*X78235D01*
Y50755D01*
X79687D01*
Y52407D01*
G37*
G36*
X87244Y44876D02*X86390D01*
Y42422D01*
X87244D01*
Y44876D01*
G37*
G36*
X91071Y44697D02*Y43245D01*
X92723D01*
Y44697D01*
X91071D01*
G37*
G36*
X85974Y44876D02*X85120D01*
Y42422D01*
X85974D01*
Y44876D01*
G37*
G36*
Y48776D02*X85120D01*
Y46322D01*
X85974D01*
Y48776D01*
G37*
G36*
X84704Y44876D02*X83850D01*
Y42422D01*
X84704D01*
Y44876D01*
G37*
G36*
Y48776D02*X83850D01*
Y46322D01*
X84704D01*
Y48776D01*
G37*
G36*
X83434D02*X82580D01*
Y46322D01*
X83434D01*
Y48776D01*
G37*
G36*
X82164D02*X81310D01*
Y46322D01*
X82164D01*
Y48776D01*
G37*
G36*
X83434Y44876D02*X82580D01*
Y42422D01*
X83434D01*
Y44876D01*
G37*
G36*
X82164D02*X81310D01*
Y42422D01*
X82164D01*
Y44876D01*
G37*
M02*
