G04 start of page 8 for group -4062 idx -4062 *
G04 Title: (unknown), soldermask *
G04 Creator: pcb 1.99z *
G04 CreationDate: Thu 29 Aug 2013 05:32:10 PM GMT UTC *
G04 For: p *
G04 Format: Gerber/RS-274X *
G04 PCB-Dimensions (mil): 6000.00 5000.00 *
G04 PCB-Coordinate-Origin: lower left *
%MOIN*%
%FSLAX25Y25*%
%LNBOTTOMMASK*%
%ADD93R,0.1037X0.1037*%
%ADD92R,0.2478X0.2478*%
%ADD91C,0.0257*%
%ADD90C,0.0493*%
%ADD89C,0.0690*%
%ADD88C,0.0729*%
%ADD87C,0.0001*%
%ADD86C,0.0847*%
%ADD85C,0.0769*%
G54D85*X419463Y343878D03*
Y333878D03*
Y323878D03*
Y313878D03*
Y303878D03*
X418463Y208973D03*
Y198973D03*
Y188973D03*
Y178973D03*
Y168973D03*
Y158973D03*
G54D86*X419463Y410973D03*
Y400973D03*
Y390973D03*
Y380973D03*
Y370973D03*
Y360973D03*
X222411Y415054D03*
Y405054D03*
G54D87*G36*
X211819Y395906D02*Y389306D01*
X218419D01*
Y395906D01*
X211819D01*
G37*
G36*
X219693D02*Y389306D01*
X226293D01*
Y395906D01*
X219693D01*
G37*
G36*
Y388032D02*Y381432D01*
X226293D01*
Y388032D01*
X219693D01*
G37*
G36*
X211819D02*Y381432D01*
X218419D01*
Y388032D01*
X211819D01*
G37*
G36*
X219693Y380158D02*Y373558D01*
X226293D01*
Y380158D01*
X219693D01*
G37*
G36*
X211819D02*Y373558D01*
X218419D01*
Y380158D01*
X211819D01*
G37*
G36*
X227567Y395906D02*Y389306D01*
X234167D01*
Y395906D01*
X227567D01*
G37*
G36*
Y388032D02*Y381432D01*
X234167D01*
Y388032D01*
X227567D01*
G37*
G36*
Y380158D02*Y373558D01*
X234167D01*
Y380158D01*
X227567D01*
G37*
G54D88*X277327Y263142D03*
X287327D03*
G54D89*X291287Y180229D03*
G54D88*X297327Y263142D03*
X307327D03*
X317327D03*
G54D90*X193650Y180229D03*
G54D91*X302456Y311074D03*
G54D92*X215119Y384732D02*X222993D01*
G54D93*X302455Y492728D02*Y461473D01*
X312455Y492728D02*Y461473D01*
X322455Y492728D02*Y461473D01*
X332455Y492728D02*Y461473D01*
X342455Y492728D02*Y461473D01*
X352455Y492728D02*Y461473D01*
X362455Y492728D02*Y461473D01*
X372455Y492728D02*Y461473D01*
X262455Y492728D02*Y461473D01*
X272455Y492728D02*Y461473D01*
X232455Y492728D02*Y461473D01*
X242455Y492728D02*Y461473D01*
X252455Y492728D02*Y461473D01*
X282455Y492728D02*Y461473D01*
X292455Y492728D02*Y461473D01*
M02*
