G04 start of page 12 for group -3984 idx -3984 *
G04 Title: (unknown), fab *
G04 Creator: pcb v4.1.3-ge2c36c29 *
G04 CreationDate: Mon Jan  1 13:57:32 2024 UTC *
G04 For: p *
G04 Format: Gerber/RS-274X *
G04 PCB-Dimensions (mm): 152.40 127.00 *
G04 PCB-Coordinate-Origin: lower left *
%MOMM*%
%FSLAX43Y43*%
%LNFAB*%
%ADD72C,0.254*%
%ADD71C,0.191*%
%ADD70C,0.152*%
%ADD69C,0.002*%
%ADD68R,0.203X0.203*%
G54D68*X76824Y79013D02*Y78200D01*
G54D69*G36*
X76685Y79050D02*X77565Y79558D01*
X77667Y79382D01*
X76786Y78874D01*
X76685Y79050D01*
G37*
G36*
X76861Y78874D02*X75980Y79382D01*
X76082Y79558D01*
X76962Y79050D01*
X76861Y78874D01*
G37*
G54D68*X76417Y79013D02*G75*G03X77230Y79013I406J0D01*G01*
G75*G03X76417Y79013I-406J0D01*G01*
X3810Y129857D02*Y129045D01*
G54D69*G36*
X3671Y129895D02*X4552Y130403D01*
X4653Y130227D01*
X3773Y129719D01*
X3671Y129895D01*
G37*
G36*
X3847Y129719D02*X2967Y130227D01*
X3068Y130403D01*
X3949Y129895D01*
X3847Y129719D01*
G37*
G54D68*X3404Y129857D02*G75*G03X4216Y129857I406J0D01*G01*
G75*G03X3404Y129857I-406J0D01*G01*
G54D70*X35560Y130429D02*Y128905D01*
Y130429D02*X36512Y128905D01*
Y130429D02*Y128905D01*
X36970Y130238D02*Y129095D01*
Y130238D02*X37160Y130429D01*
X37541D01*
X37732Y130238D01*
Y129095D01*
X37541Y128905D02*X37732Y129095D01*
X37160Y128905D02*X37541D01*
X36970Y129095D02*X37160Y128905D01*
X24892Y130124D02*X25197Y130429D01*
Y128905D01*
X24892D02*X25464D01*
X11430Y129095D02*X11620Y128905D01*
X11430Y130238D02*Y129095D01*
Y130238D02*X11620Y130429D01*
X12002D01*
X12192Y130238D01*
Y129095D01*
X12002Y128905D02*X12192Y129095D01*
X11620Y128905D02*X12002D01*
X11430Y129286D02*X12192Y130048D01*
X12649Y128905D02*X12840D01*
X13297Y130124D02*X13602Y130429D01*
Y128905D01*
X13297D02*X13868D01*
X14516D02*X15088Y129667D01*
Y130238D02*Y129667D01*
X14897Y130429D02*X15088Y130238D01*
X14516Y130429D02*X14897D01*
X14326Y130238D02*X14516Y130429D01*
X14326Y130238D02*Y129857D01*
X14516Y129667D01*
X15088D01*
X15735Y128905D02*X16497Y130429D01*
X15545D02*X16497D01*
X73580Y46185D02*X74393D01*
X73580D02*Y45372D01*
X74393D01*
Y46185D02*Y45372D01*
X3404Y134074D02*X4216D01*
X3404D02*Y133261D01*
X4216D01*
Y134074D02*Y133261D01*
X35560Y134239D02*Y132715D01*
Y134239D02*X36512Y132715D01*
Y134239D02*Y132715D01*
X36970Y134048D02*Y132906D01*
Y134048D02*X37160Y134239D01*
X37541D01*
X37732Y134048D01*
Y132906D01*
X37541Y132715D02*X37732Y132906D01*
X37160Y132715D02*X37541D01*
X36970Y132906D02*X37160Y132715D01*
X24892Y133934D02*X25197Y134239D01*
Y132715D01*
X24892D02*X25464D01*
X11430Y132906D02*X11620Y132715D01*
X11430Y134048D02*Y132906D01*
Y134048D02*X11620Y134239D01*
X12002D01*
X12192Y134048D01*
Y132906D01*
X12002Y132715D02*X12192Y132906D01*
X11620Y132715D02*X12002D01*
X11430Y133096D02*X12192Y133858D01*
X12649Y132715D02*X12840D01*
X13297Y132906D02*X13487Y132715D01*
X13297Y134048D02*Y132906D01*
Y134048D02*X13487Y134239D01*
X13868D01*
X14059Y134048D01*
Y132906D01*
X13868Y132715D02*X14059Y132906D01*
X13487Y132715D02*X13868D01*
X13297Y133096D02*X14059Y133858D01*
X15088Y134239D02*X15278Y134048D01*
X14707Y134239D02*X15088D01*
X14516Y134048D02*X14707Y134239D01*
X14516Y134048D02*Y132906D01*
X14707Y132715D01*
X15088Y133553D02*X15278Y133363D01*
X14516Y133553D02*X15088D01*
X14707Y132715D02*X15088D01*
X15278Y132906D01*
Y133363D02*Y132906D01*
X15735Y134048D02*X15926Y134239D01*
X16307D01*
X16497Y134048D01*
X16307Y132715D02*X16497Y132906D01*
X15926Y132715D02*X16307D01*
X15735Y132906D02*X15926Y132715D01*
Y133553D02*X16307D01*
X16497Y134048D02*Y133744D01*
Y133363D02*Y132906D01*
Y133363D02*X16307Y133553D01*
X16497Y133744D02*X16307Y133553D01*
X56289Y105424D02*G75*G03X56696Y105424I203J0D01*G01*
G75*G03X56289Y105424I-203J0D01*G01*
Y102884D02*G75*G03X56696Y102884I203J0D01*G01*
G75*G03X56289Y102884I-203J0D01*G01*
X105832Y104387D02*G75*G03X106239Y104387I203J0D01*G01*
G75*G03X105832Y104387I-203J0D01*G01*
Y101847D02*G75*G03X106239Y101847I203J0D01*G01*
G75*G03X105832Y101847I-203J0D01*G01*
Y99307D02*G75*G03X106239Y99307I203J0D01*G01*
G75*G03X105832Y99307I-203J0D01*G01*
Y96767D02*G75*G03X106239Y96767I203J0D01*G01*
G75*G03X105832Y96767I-203J0D01*G01*
Y94227D02*G75*G03X106239Y94227I203J0D01*G01*
G75*G03X105832Y94227I-203J0D01*G01*
Y91687D02*G75*G03X106239Y91687I203J0D01*G01*
G75*G03X105832Y91687I-203J0D01*G01*
Y87345D02*G75*G03X106239Y87345I203J0D01*G01*
G75*G03X105832Y87345I-203J0D01*G01*
Y84805D02*G75*G03X106239Y84805I203J0D01*G01*
G75*G03X105832Y84805I-203J0D01*G01*
Y82265D02*G75*G03X106239Y82265I203J0D01*G01*
G75*G03X105832Y82265I-203J0D01*G01*
Y79725D02*G75*G03X106239Y79725I203J0D01*G01*
G75*G03X105832Y79725I-203J0D01*G01*
Y77185D02*G75*G03X106239Y77185I203J0D01*G01*
G75*G03X105832Y77185I-203J0D01*G01*
X105578Y53079D02*G75*G03X105985Y53079I203J0D01*G01*
G75*G03X105578Y53079I-203J0D01*G01*
Y50539D02*G75*G03X105985Y50539I203J0D01*G01*
G75*G03X105578Y50539I-203J0D01*G01*
Y47999D02*G75*G03X105985Y47999I203J0D01*G01*
G75*G03X105578Y47999I-203J0D01*G01*
Y45459D02*G75*G03X105985Y45459I203J0D01*G01*
G75*G03X105578Y45459I-203J0D01*G01*
Y42919D02*G75*G03X105985Y42919I203J0D01*G01*
G75*G03X105578Y42919I-203J0D01*G01*
Y40379D02*G75*G03X105985Y40379I203J0D01*G01*
G75*G03X105578Y40379I-203J0D01*G01*
X70238Y66838D02*G75*G03X70644Y66838I203J0D01*G01*
G75*G03X70238Y66838I-203J0D01*G01*
X72778D02*G75*G03X73184Y66838I203J0D01*G01*
G75*G03X72778Y66838I-203J0D01*G01*
X75318D02*G75*G03X75724Y66838I203J0D01*G01*
G75*G03X75318Y66838I-203J0D01*G01*
X77858D02*G75*G03X78264Y66838I203J0D01*G01*
G75*G03X77858Y66838I-203J0D01*G01*
X80398D02*G75*G03X80804Y66838I203J0D01*G01*
G75*G03X80398Y66838I-203J0D01*G01*
X3607Y137478D02*G75*G03X4013Y137478I203J0D01*G01*
G75*G03X3607Y137478I-203J0D01*G01*
X34290Y138049D02*X34671Y137287D01*
X35052Y138049D01*
X34671Y137287D02*Y136525D01*
X35509Y137363D02*X36081D01*
X35509Y136525D02*X36271D01*
X35509Y138049D02*Y136525D01*
Y138049D02*X36271D01*
X37490D02*X37681Y137858D01*
X36919Y138049D02*X37490D01*
X36728Y137858D02*X36919Y138049D01*
X36728Y137858D02*Y137478D01*
X36919Y137287D01*
X37490D01*
X37681Y137096D01*
Y136716D01*
X37490Y136525D02*X37681Y136716D01*
X36919Y136525D02*X37490D01*
X36728Y136716D02*X36919Y136525D01*
X24892Y137858D02*X25082Y138049D01*
X25654D01*
X25844Y137858D01*
Y137478D01*
X24892Y136525D02*X25844Y137478D01*
X24892Y136525D02*X25844D01*
X26302Y137096D02*X27064Y138049D01*
X26302Y137096D02*X27254D01*
X27064Y138049D02*Y136525D01*
X11430Y136716D02*X11620Y136525D01*
X11430Y137858D02*Y136716D01*
Y137858D02*X11620Y138049D01*
X12002D01*
X12192Y137858D01*
Y136716D01*
X12002Y136525D02*X12192Y136716D01*
X11620Y136525D02*X12002D01*
X11430Y136906D02*X12192Y137668D01*
X12649Y136525D02*X12840D01*
X13297Y136716D02*X13487Y136525D01*
X13297Y137858D02*Y136716D01*
Y137858D02*X13487Y138049D01*
X13868D01*
X14059Y137858D01*
Y136716D01*
X13868Y136525D02*X14059Y136716D01*
X13487Y136525D02*X13868D01*
X13297Y136906D02*X14059Y137668D01*
X14516Y137096D02*X15278Y138049D01*
X14516Y137096D02*X15469D01*
X15278Y138049D02*Y136525D01*
X15926Y137858D02*X16116Y138049D01*
X16497D01*
X16688Y137858D01*
X16497Y136525D02*X16688Y136716D01*
X16116Y136525D02*X16497D01*
X15926Y136716D02*X16116Y136525D01*
Y137363D02*X16497D01*
X16688Y137858D02*Y137554D01*
Y137173D02*Y136716D01*
Y137173D02*X16497Y137363D01*
X16688Y137554D02*X16497Y137363D01*
X48882Y46083D02*X49492Y45473D01*
X48882D02*X49492Y46083D01*
X3505Y141592D02*X4115Y140983D01*
X3505D02*X4115Y141592D01*
X35560Y141859D02*Y140335D01*
Y141859D02*X36512Y140335D01*
Y141859D02*Y140335D01*
X36970Y141668D02*Y140526D01*
Y141668D02*X37160Y141859D01*
X37541D01*
X37732Y141668D01*
Y140526D01*
X37541Y140335D02*X37732Y140526D01*
X37160Y140335D02*X37541D01*
X36970Y140526D02*X37160Y140335D01*
X24892Y141554D02*X25197Y141859D01*
Y140335D01*
X24892D02*X25464D01*
X11430Y140526D02*X11620Y140335D01*
X11430Y141668D02*Y140526D01*
Y141668D02*X11620Y141859D01*
X12002D01*
X12192Y141668D01*
Y140526D01*
X12002Y140335D02*X12192Y140526D01*
X11620Y140335D02*X12002D01*
X11430Y140716D02*X12192Y141478D01*
X12649Y140335D02*X12840D01*
X13297Y140526D02*X13487Y140335D01*
X13297Y141668D02*Y140526D01*
Y141668D02*X13487Y141859D01*
X13868D01*
X14059Y141668D01*
Y140526D01*
X13868Y140335D02*X14059Y140526D01*
X13487Y140335D02*X13868D01*
X13297Y140716D02*X14059Y141478D01*
X14516Y140906D02*X15278Y141859D01*
X14516Y140906D02*X15469D01*
X15278Y141859D02*Y140335D01*
X15926Y141668D02*X16116Y141859D01*
X16497D01*
X16688Y141668D01*
X16497Y140335D02*X16688Y140526D01*
X16116Y140335D02*X16497D01*
X15926Y140526D02*X16116Y140335D01*
Y141173D02*X16497D01*
X16688Y141668D02*Y141364D01*
Y140983D02*Y140526D01*
Y140983D02*X16497Y141173D01*
X16688Y141364D02*X16497Y141173D01*
X54640Y100128D02*Y99316D01*
X54234Y99722D02*X55047D01*
X56640Y100128D02*Y99316D01*
X56234Y99722D02*X57047D01*
X56640Y98128D02*Y97316D01*
X56234Y97722D02*X57047D01*
X54640Y98128D02*Y97316D01*
X54234Y97722D02*X55047D01*
X56640Y96128D02*Y95316D01*
X56234Y95722D02*X57047D01*
X54640Y96128D02*Y95316D01*
X54234Y95722D02*X55047D01*
X58640Y100128D02*Y99316D01*
X58234Y99722D02*X59047D01*
X58640Y98128D02*Y97316D01*
X58234Y97722D02*X59047D01*
X58640Y96128D02*Y95316D01*
X58234Y95722D02*X59047D01*
X50134Y92602D02*Y91789D01*
X49728Y92195D02*X50540D01*
X56252Y90316D02*Y89503D01*
X55845Y89909D02*X56658D01*
X65628Y69614D02*Y68802D01*
X65221Y69208D02*X66034D01*
X51932Y87166D02*Y86354D01*
X51525Y86760D02*X52338D01*
X53964Y66846D02*Y66034D01*
X53557Y66440D02*X54370D01*
X68569Y63925D02*Y63112D01*
X68162Y63519D02*X68975D01*
X74919Y60369D02*Y59556D01*
X74512Y59963D02*X75325D01*
X85018Y103149D02*Y102336D01*
X84611Y102743D02*X85424D01*
X82478Y97957D02*Y97144D01*
X82071Y97551D02*X82884D01*
X93312Y103803D02*Y102990D01*
X92906Y103397D02*X93718D01*
X49126Y98210D02*Y97397D01*
X48720Y97804D02*X49533D01*
X65013Y64433D02*Y63620D01*
X64606Y64027D02*X65419D01*
X56187Y49140D02*Y48327D01*
X55781Y48733D02*X56594D01*
X63687Y48340D02*Y47527D01*
X63280Y47933D02*X64093D01*
X3810Y145504D02*Y144691D01*
X3404Y145098D02*X4216D01*
X34290Y145669D02*X34671Y144907D01*
X35052Y145669D01*
X34671Y144907D02*Y144145D01*
X35509Y144983D02*X36081D01*
X35509Y144145D02*X36271D01*
X35509Y145669D02*Y144145D01*
Y145669D02*X36271D01*
X37490D02*X37681Y145478D01*
X36919Y145669D02*X37490D01*
X36728Y145478D02*X36919Y145669D01*
X36728Y145478D02*Y145098D01*
X36919Y144907D01*
X37490D01*
X37681Y144716D01*
Y144336D01*
X37490Y144145D02*X37681Y144336D01*
X36919Y144145D02*X37490D01*
X36728Y144336D02*X36919Y144145D01*
X24892Y145478D02*X25082Y145669D01*
X25654D01*
X25844Y145478D01*
Y145098D01*
X24892Y144145D02*X25844Y145098D01*
X24892Y144145D02*X25844D01*
X26302Y145478D02*X26492Y145669D01*
X26873D01*
X27064Y145478D01*
X26873Y144145D02*X27064Y144336D01*
X26492Y144145D02*X26873D01*
X26302Y144336D02*X26492Y144145D01*
Y144983D02*X26873D01*
X27064Y145478D02*Y145174D01*
Y144793D02*Y144336D01*
Y144793D02*X26873Y144983D01*
X27064Y145174D02*X26873Y144983D01*
X11430Y144336D02*X11620Y144145D01*
X11430Y145478D02*Y144336D01*
Y145478D02*X11620Y145669D01*
X12002D01*
X12192Y145478D01*
Y144336D01*
X12002Y144145D02*X12192Y144336D01*
X11620Y144145D02*X12002D01*
X11430Y144526D02*X12192Y145288D01*
X12649Y144145D02*X12840D01*
X13297Y144336D02*X13487Y144145D01*
X13297Y145478D02*Y144336D01*
Y145478D02*X13487Y145669D01*
X13868D01*
X14059Y145478D01*
Y144336D01*
X13868Y144145D02*X14059Y144336D01*
X13487Y144145D02*X13868D01*
X13297Y144526D02*X14059Y145288D01*
X14516Y145478D02*X14707Y145669D01*
X15088D01*
X15278Y145478D01*
X15088Y144145D02*X15278Y144336D01*
X14707Y144145D02*X15088D01*
X14516Y144336D02*X14707Y144145D01*
Y144983D02*X15088D01*
X15278Y145478D02*Y145174D01*
Y144793D02*Y144336D01*
Y144793D02*X15088Y144983D01*
X15278Y145174D02*X15088Y144983D01*
X15735Y145669D02*X16497D01*
X15735D02*Y144907D01*
X15926Y145098D01*
X16307D01*
X16497Y144907D01*
Y144336D01*
X16307Y144145D02*X16497Y144336D01*
X15926Y144145D02*X16307D01*
X15735Y144336D02*X15926Y144145D01*
X93334Y111271D02*Y110864D01*
Y111271D02*X93686Y111474D01*
X93334Y111271D02*X92981Y111474D01*
X70222Y111565D02*Y111159D01*
Y111565D02*X70574Y111768D01*
X70222Y111565D02*X69869Y111768D01*
X67682Y111565D02*Y111159D01*
Y111565D02*X68034Y111768D01*
X67682Y111565D02*X67329Y111768D01*
X65142Y111565D02*Y111159D01*
Y111565D02*X65494Y111768D01*
X65142Y111565D02*X64789Y111768D01*
X62854Y110509D02*Y110102D01*
Y110509D02*X63206Y110712D01*
X62854Y110509D02*X62501Y110712D01*
X62600Y108477D02*Y108070D01*
Y108477D02*X62952Y108680D01*
X62600Y108477D02*X62247Y108680D01*
X70016Y89251D02*Y88845D01*
Y89251D02*X70368Y89454D01*
X70016Y89251D02*X69663Y89454D01*
X80700Y108331D02*Y107924D01*
Y108331D02*X81052Y108534D01*
X80700Y108331D02*X80347Y108534D01*
X87812Y108331D02*Y107924D01*
Y108331D02*X88164Y108534D01*
X87812Y108331D02*X87459Y108534D01*
X64604Y96251D02*Y95845D01*
Y96251D02*X64956Y96454D01*
X64604Y96251D02*X64251Y96454D01*
X65852Y89473D02*Y89067D01*
Y89473D02*X66204Y89676D01*
X65852Y89473D02*X65500Y89676D01*
X57754Y81019D02*Y80613D01*
Y81019D02*X58106Y81222D01*
X57754Y81019D02*X57402Y81222D01*
X94344Y94941D02*Y94535D01*
Y94941D02*X94696Y95144D01*
X94344Y94941D02*X93991Y95144D01*
X89526Y88451D02*Y88045D01*
Y88451D02*X89878Y88654D01*
X89526Y88451D02*X89173Y88654D01*
X72430Y83409D02*Y83003D01*
Y83409D02*X72782Y83612D01*
X72430Y83409D02*X72077Y83612D01*
X95333Y72092D02*Y71686D01*
Y72092D02*X95685Y72296D01*
X95333Y72092D02*X94981Y72296D01*
X88075Y61534D02*Y61128D01*
Y61534D02*X88427Y61737D01*
X88075Y61534D02*X87723Y61737D01*
X91748Y71067D02*Y70661D01*
Y71067D02*X92100Y71270D01*
X91748Y71067D02*X91395Y71270D01*
X87684Y68527D02*Y68121D01*
Y68527D02*X88036Y68730D01*
X87684Y68527D02*X87331Y68730D01*
X86829Y73494D02*Y73087D01*
Y73494D02*X87181Y73697D01*
X86829Y73494D02*X86477Y73697D01*
X85051Y76542D02*Y76135D01*
Y76542D02*X85403Y76745D01*
X85051Y76542D02*X84699Y76745D01*
X86732Y72129D02*Y71723D01*
Y72129D02*X87084Y72332D01*
X86732Y72129D02*X86379Y72332D01*
X83430Y75431D02*Y75025D01*
Y75431D02*X83782Y75634D01*
X83430Y75431D02*X83077Y75634D01*
X99940Y79749D02*Y79343D01*
Y79749D02*X100292Y79952D01*
X99940Y79749D02*X99587Y79952D01*
X93336Y64509D02*Y64103D01*
Y64509D02*X93688Y64712D01*
X93336Y64509D02*X92983Y64712D01*
X89716Y73861D02*Y73455D01*
Y73861D02*X90068Y74064D01*
X89716Y73861D02*X89363Y74064D01*
X93272Y80973D02*Y80567D01*
Y80973D02*X93624Y81176D01*
X93272Y80973D02*X92919Y81176D01*
X87176Y79703D02*Y79297D01*
Y79703D02*X87528Y79906D01*
X87176Y79703D02*X86823Y79906D01*
X98635Y73870D02*Y73464D01*
Y73870D02*X98987Y74074D01*
X98635Y73870D02*X98283Y74074D01*
X89999Y71076D02*Y70670D01*
Y71076D02*X90351Y71280D01*
X89999Y71076D02*X89647Y71280D01*
X89599Y64858D02*Y64451D01*
Y64858D02*X89951Y65061D01*
X89599Y64858D02*X89247Y65061D01*
X86337Y64858D02*Y64451D01*
Y64858D02*X86689Y65061D01*
X86337Y64858D02*X85985Y65061D01*
X86337Y61810D02*Y61403D01*
Y61810D02*X86689Y62013D01*
X86337Y61810D02*X85985Y62013D01*
X84559Y64350D02*Y63943D01*
Y64350D02*X84911Y64553D01*
X84559Y64350D02*X84207Y64553D01*
X86337Y60032D02*Y59625D01*
Y60032D02*X86689Y60235D01*
X86337Y60032D02*X85985Y60235D01*
X99517Y53391D02*Y52984D01*
Y53391D02*X99869Y53594D01*
X99517Y53391D02*X99164Y53594D01*
X99517Y50089D02*Y49682D01*
Y50089D02*X99869Y50292D01*
X99517Y50089D02*X99164Y50292D01*
X97485Y53391D02*Y52984D01*
Y53391D02*X97837Y53594D01*
X97485Y53391D02*X97132Y53594D01*
X95961Y58752D02*Y58346D01*
Y58752D02*X96313Y58955D01*
X95961Y58752D02*X95608Y58955D01*
X100413Y66758D02*Y66352D01*
Y66758D02*X100765Y66962D01*
X100413Y66758D02*X100061Y66962D01*
X95622Y64509D02*Y64103D01*
Y64509D02*X95974Y64712D01*
X95622Y64509D02*X95269Y64712D01*
X75302Y111565D02*Y111159D01*
Y111565D02*X75654Y111768D01*
X75302Y111565D02*X74949Y111768D01*
X72762Y111565D02*Y111159D01*
Y111565D02*X73114Y111768D01*
X72762Y111565D02*X72409Y111768D01*
X77842Y111565D02*Y111159D01*
Y111565D02*X78194Y111768D01*
X77842Y111565D02*X77489Y111768D01*
X80382Y111565D02*Y111159D01*
Y111565D02*X80734Y111768D01*
X80382Y111565D02*X80029Y111768D01*
X82922Y111565D02*Y111159D01*
Y111565D02*X83274Y111768D01*
X82922Y111565D02*X82569Y111768D01*
X85462Y111565D02*Y111159D01*
Y111565D02*X85814Y111768D01*
X85462Y111565D02*X85109Y111768D01*
X88002Y111565D02*Y111159D01*
Y111565D02*X88354Y111768D01*
X88002Y111565D02*X87649Y111768D01*
X83478Y89759D02*Y89353D01*
Y89759D02*X83830Y89962D01*
X83478Y89759D02*X83125Y89962D01*
X69176Y91251D02*Y90845D01*
Y91251D02*X69528Y91454D01*
X69176Y91251D02*X68823Y91454D01*
X75478Y90521D02*Y90115D01*
Y90521D02*X75830Y90724D01*
X75478Y90521D02*X75125Y90724D01*
X72986Y97775D02*Y97369D01*
Y97775D02*X73338Y97978D01*
X72986Y97775D02*X72633Y97978D01*
X69684Y96251D02*Y95845D01*
Y96251D02*X70036Y96454D01*
X69684Y96251D02*X69331Y96454D01*
X72916Y106341D02*Y105935D01*
Y106341D02*X73268Y106544D01*
X72916Y106341D02*X72564Y106544D01*
X76478Y102997D02*Y102591D01*
Y102997D02*X76830Y103200D01*
X76478Y102997D02*X76125Y103200D01*
X79978Y102997D02*Y102591D01*
Y102997D02*X80330Y103200D01*
X79978Y102997D02*X79626Y103200D01*
X86224Y92751D02*Y92344D01*
Y92751D02*X86576Y92954D01*
X86224Y92751D02*X85871Y92954D01*
X86224Y99251D02*Y98845D01*
Y99251D02*X86576Y99454D01*
X86224Y99251D02*X85871Y99454D01*
X89780Y96251D02*Y95845D01*
Y96251D02*X90132Y96454D01*
X89780Y96251D02*X89427Y96454D01*
X89526Y90251D02*Y89845D01*
Y90251D02*X89878Y90454D01*
X89526Y90251D02*X89173Y90454D01*
X80374Y98751D02*Y98345D01*
Y98751D02*X80726Y98954D01*
X80374Y98751D02*X80021Y98954D01*
X97376Y99333D02*Y98926D01*
Y99333D02*X97728Y99536D01*
X97376Y99333D02*X97024Y99536D01*
X95776Y100245D02*Y99839D01*
Y100245D02*X96128Y100448D01*
X95776Y100245D02*X95424Y100448D01*
X99766Y93133D02*Y92727D01*
Y93133D02*X100118Y93336D01*
X99766Y93133D02*X99413Y93336D01*
X46702Y67347D02*Y66941D01*
Y67347D02*X47054Y67550D01*
X46702Y67347D02*X46349Y67550D01*
X68917Y68362D02*Y67956D01*
Y68362D02*X69269Y68565D01*
X68917Y68362D02*X68565Y68565D01*
X62567Y53884D02*Y53478D01*
Y53884D02*X62919Y54087D01*
X62567Y53884D02*X62215Y54087D01*
X59519Y53884D02*Y53478D01*
Y53884D02*X59871Y54087D01*
X59519Y53884D02*X59167Y54087D01*
X85547Y50343D02*Y49936D01*
Y50343D02*X85899Y50546D01*
X85547Y50343D02*X85194Y50546D01*
X93590Y42919D02*Y42513D01*
Y42919D02*X93942Y43122D01*
X93590Y42919D02*X93237Y43122D01*
X90119Y47295D02*Y46888D01*
Y47295D02*X90471Y47498D01*
X90119Y47295D02*X89766Y47498D01*
X90119Y43993D02*Y43586D01*
Y43993D02*X90471Y44196D01*
X90119Y43993D02*X89766Y44196D01*
X83769Y50089D02*Y49682D01*
Y50089D02*X84121Y50292D01*
X83769Y50089D02*X83416Y50292D01*
X88341Y44247D02*Y43840D01*
Y44247D02*X88693Y44450D01*
X88341Y44247D02*X87988Y44450D01*
X100787Y48565D02*Y48158D01*
Y48565D02*X101139Y48768D01*
X100787Y48565D02*X100434Y48768D01*
X91050Y111245D02*Y110839D01*
Y111245D02*X91402Y111448D01*
X91050Y111245D02*X90697Y111448D01*
X61586Y107181D02*Y106775D01*
Y107181D02*X61938Y107384D01*
X61586Y107181D02*X61233Y107384D01*
X59046Y110483D02*Y110077D01*
Y110483D02*X59398Y110686D01*
X59046Y110483D02*X58693Y110686D01*
X72986Y95997D02*Y95591D01*
Y95997D02*X73338Y96200D01*
X72986Y95997D02*X72633Y96200D01*
X83400Y102601D02*Y102195D01*
Y102601D02*X83752Y102804D01*
X83400Y102601D02*X83047Y102804D01*
X86702Y104379D02*Y103973D01*
Y104379D02*X87054Y104582D01*
X86702Y104379D02*X86349Y104582D01*
X67144Y100823D02*Y100417D01*
Y100823D02*X67496Y101026D01*
X67144Y100823D02*X66791Y101026D01*
X3810Y148908D02*Y148501D01*
Y148908D02*X4162Y149111D01*
X3810Y148908D02*X3458Y149111D01*
X34290Y149479D02*X34671Y148717D01*
X35052Y149479D01*
X34671Y148717D02*Y147955D01*
X35509Y148793D02*X36081D01*
X35509Y147955D02*X36271D01*
X35509Y149479D02*Y147955D01*
Y149479D02*X36271D01*
X37490D02*X37681Y149288D01*
X36919Y149479D02*X37490D01*
X36728Y149288D02*X36919Y149479D01*
X36728Y149288D02*Y148908D01*
X36919Y148717D01*
X37490D01*
X37681Y148526D01*
Y148146D01*
X37490Y147955D02*X37681Y148146D01*
X36919Y147955D02*X37490D01*
X36728Y148146D02*X36919Y147955D01*
X24892Y148146D02*X25082Y147955D01*
X24892Y148450D02*Y148146D01*
Y148450D02*X25159Y148717D01*
X25387D01*
X25654Y148450D01*
Y148146D01*
X25464Y147955D02*X25654Y148146D01*
X25082Y147955D02*X25464D01*
X24892Y148984D02*X25159Y148717D01*
X24892Y149288D02*Y148984D01*
Y149288D02*X25082Y149479D01*
X25464D01*
X25654Y149288D01*
Y148984D01*
X25387Y148717D02*X25654Y148984D01*
X26111Y149288D02*X26302Y149479D01*
X26873D01*
X27064Y149288D01*
Y148908D01*
X26111Y147955D02*X27064Y148908D01*
X26111Y147955D02*X27064D01*
X11430Y148146D02*X11620Y147955D01*
X11430Y149288D02*Y148146D01*
Y149288D02*X11620Y149479D01*
X12002D01*
X12192Y149288D01*
Y148146D01*
X12002Y147955D02*X12192Y148146D01*
X11620Y147955D02*X12002D01*
X11430Y148336D02*X12192Y149098D01*
X12649Y147955D02*X12840D01*
X13297Y148146D02*X13487Y147955D01*
X13297Y149288D02*Y148146D01*
Y149288D02*X13487Y149479D01*
X13868D01*
X14059Y149288D01*
Y148146D01*
X13868Y147955D02*X14059Y148146D01*
X13487Y147955D02*X13868D01*
X13297Y148336D02*X14059Y149098D01*
X14516Y149288D02*X14707Y149479D01*
X15278D01*
X15469Y149288D01*
Y148908D01*
X14516Y147955D02*X15469Y148908D01*
X14516Y147955D02*X15469D01*
X15926Y148146D02*X16116Y147955D01*
X15926Y149288D02*Y148146D01*
Y149288D02*X16116Y149479D01*
X16497D01*
X16688Y149288D01*
Y148146D01*
X16497Y147955D02*X16688Y148146D01*
X16116Y147955D02*X16497D01*
X15926Y148336D02*X16688Y149098D01*
X762Y153289D02*X952Y153098D01*
X190Y153289D02*X762D01*
X0Y153098D02*X190Y153289D01*
X0Y153098D02*Y152718D01*
X190Y152527D01*
X762D01*
X952Y152336D01*
Y151956D01*
X762Y151765D02*X952Y151956D01*
X190Y151765D02*X762D01*
X0Y151956D02*X190Y151765D01*
X1410Y152527D02*Y151956D01*
X1600Y151765D01*
X2172Y152527D02*Y151384D01*
X1981Y151194D02*X2172Y151384D01*
X1600Y151194D02*X1981D01*
X1410Y151384D02*X1600Y151194D01*
Y151765D02*X1981D01*
X2172Y151956D01*
X2819Y152336D02*Y151765D01*
Y152336D02*X3010Y152527D01*
X3200D01*
X3391Y152336D01*
Y151765D01*
Y152336D02*X3581Y152527D01*
X3772D01*
X3962Y152336D01*
Y151765D01*
X2629Y152527D02*X2819Y152336D01*
X4420Y153289D02*Y151765D01*
Y151956D02*X4610Y151765D01*
X4991D01*
X5182Y151956D01*
Y152336D02*Y151956D01*
X4991Y152527D02*X5182Y152336D01*
X4610Y152527D02*X4991D01*
X4420Y152336D02*X4610Y152527D01*
X5639Y152336D02*Y151956D01*
Y152336D02*X5829Y152527D01*
X6210D01*
X6401Y152336D01*
Y151956D01*
X6210Y151765D02*X6401Y151956D01*
X5829Y151765D02*X6210D01*
X5639Y151956D02*X5829Y151765D01*
X6858Y153289D02*Y151956D01*
X7049Y151765D01*
X0Y150939D02*X7430D01*
X10604Y153289D02*Y151765D01*
X11100Y153289D02*X11366Y153022D01*
Y152032D01*
X11100Y151765D02*X11366Y152032D01*
X10414Y151765D02*X11100D01*
X10414Y153289D02*X11100D01*
G54D71*X11824Y152908D02*Y152870D01*
G54D70*Y152336D02*Y151765D01*
X12776Y152527D02*X12967Y152336D01*
X12395Y152527D02*X12776D01*
X12205Y152336D02*X12395Y152527D01*
X12205Y152336D02*Y151956D01*
X12395Y151765D01*
X12967Y152527D02*Y151956D01*
X13157Y151765D01*
X12395D02*X12776D01*
X12967Y151956D01*
X13805Y152336D02*Y151765D01*
Y152336D02*X13995Y152527D01*
X14186D01*
X14376Y152336D01*
Y151765D01*
Y152336D02*X14567Y152527D01*
X14757D01*
X14948Y152336D01*
Y151765D01*
X13614Y152527D02*X13805Y152336D01*
X15405Y151765D02*X15596D01*
X16739Y151956D02*X16929Y151765D01*
X16739Y153098D02*X16929Y153289D01*
X16739Y153098D02*Y151956D01*
X17386Y153289D02*X17767D01*
X17577D02*Y151765D01*
X17386D02*X17767D01*
X18415Y152336D02*Y151765D01*
Y152336D02*X18606Y152527D01*
X18796D01*
X18987Y152336D01*
Y151765D01*
X18225Y152527D02*X18415Y152336D01*
X19634Y152527D02*X20206D01*
X19444Y152336D02*X19634Y152527D01*
X19444Y152336D02*Y151956D01*
X19634Y151765D01*
X20206D01*
X20663Y153289D02*Y151765D01*
Y152336D02*X20853Y152527D01*
X21234D01*
X21425Y152336D01*
Y151765D01*
X21882Y153289D02*X22073Y153098D01*
Y151956D01*
X21882Y151765D02*X22073Y151956D01*
X10414Y150939D02*X22530D01*
X24397Y151765D02*X24892D01*
X24130Y152032D02*X24397Y151765D01*
X24130Y153022D02*Y152032D01*
Y153022D02*X24397Y153289D01*
X24892D01*
X25349Y152336D02*Y151956D01*
Y152336D02*X25540Y152527D01*
X25921D01*
X26111Y152336D01*
Y151956D01*
X25921Y151765D02*X26111Y151956D01*
X25540Y151765D02*X25921D01*
X25349Y151956D02*X25540Y151765D01*
X26568Y152527D02*Y151956D01*
X26759Y151765D01*
X27140D01*
X27330Y151956D01*
Y152527D02*Y151956D01*
X27978Y152336D02*Y151765D01*
Y152336D02*X28169Y152527D01*
X28359D01*
X28550Y152336D01*
Y151765D01*
X27788Y152527D02*X27978Y152336D01*
X29197Y153289D02*Y151956D01*
X29388Y151765D01*
X29007Y152718D02*X29388D01*
X24130Y150939D02*X29769D01*
X33210Y153289D02*Y151765D01*
X33020Y153289D02*X33782D01*
X33972Y153098D01*
Y152718D01*
X33782Y152527D02*X33972Y152718D01*
X33210Y152527D02*X33782D01*
X34430Y153289D02*Y151956D01*
X34620Y151765D01*
X35573Y152527D02*X35763Y152336D01*
X35192Y152527D02*X35573D01*
X35001Y152336D02*X35192Y152527D01*
X35001Y152336D02*Y151956D01*
X35192Y151765D01*
X35763Y152527D02*Y151956D01*
X35954Y151765D01*
X35192D02*X35573D01*
X35763Y151956D01*
X36601Y153289D02*Y151956D01*
X36792Y151765D01*
X36411Y152718D02*X36792D01*
X37363Y151765D02*X37935D01*
X37173Y151956D02*X37363Y151765D01*
X37173Y152336D02*Y151956D01*
Y152336D02*X37363Y152527D01*
X37744D01*
X37935Y152336D01*
X37173Y152146D02*X37935D01*
Y152336D02*Y152146D01*
X39154Y153289D02*Y151765D01*
X38964D02*X39154Y151956D01*
X38583Y151765D02*X38964D01*
X38392Y151956D02*X38583Y151765D01*
X38392Y152336D02*Y151956D01*
Y152336D02*X38583Y152527D01*
X38964D01*
X39154Y152336D01*
X39992Y152527D02*Y152336D01*
Y151956D02*Y151765D01*
X39611Y153098D02*Y152908D01*
Y153098D02*X39802Y153289D01*
X40183D01*
X40373Y153098D01*
Y152908D01*
X39992Y152527D02*X40373Y152908D01*
X33020Y150939D02*X40831D01*
X0Y157099D02*X762D01*
X381D02*Y155575D01*
X1219Y157099D02*Y155575D01*
Y156146D02*X1410Y156337D01*
X1791D01*
X1981Y156146D01*
Y155575D01*
X2629D02*X3200D01*
X2438Y155766D02*X2629Y155575D01*
X2438Y156146D02*Y155766D01*
Y156146D02*X2629Y156337D01*
X3010D01*
X3200Y156146D01*
X2438Y155956D02*X3200D01*
Y156146D02*Y155956D01*
X3848Y156146D02*Y155575D01*
Y156146D02*X4039Y156337D01*
X4420D01*
X3658D02*X3848Y156146D01*
X5067Y155575D02*X5639D01*
X4877Y155766D02*X5067Y155575D01*
X4877Y156146D02*Y155766D01*
Y156146D02*X5067Y156337D01*
X5448D01*
X5639Y156146D01*
X4877Y155956D02*X5639D01*
Y156146D02*Y155956D01*
X7353Y156337D02*X7544Y156146D01*
X6972Y156337D02*X7353D01*
X6782Y156146D02*X6972Y156337D01*
X6782Y156146D02*Y155766D01*
X6972Y155575D01*
X7544Y156337D02*Y155766D01*
X7734Y155575D01*
X6972D02*X7353D01*
X7544Y155766D01*
X8382Y156146D02*Y155575D01*
Y156146D02*X8573Y156337D01*
X8954D01*
X8192D02*X8382Y156146D01*
X9601Y155575D02*X10173D01*
X9411Y155766D02*X9601Y155575D01*
X9411Y156146D02*Y155766D01*
Y156146D02*X9601Y156337D01*
X9982D01*
X10173Y156146D01*
X9411Y155956D02*X10173D01*
Y156146D02*Y155956D01*
X11887Y157099D02*X12078Y156908D01*
X11506Y157099D02*X11887D01*
X11316Y156908D02*X11506Y157099D01*
X11316Y156908D02*Y155766D01*
X11506Y155575D01*
X11887Y156413D02*X12078Y156223D01*
X11316Y156413D02*X11887D01*
X11506Y155575D02*X11887D01*
X12078Y155766D01*
Y156223D02*Y155766D01*
X13983Y157099D02*Y155575D01*
X13792D02*X13983Y155766D01*
X13411Y155575D02*X13792D01*
X13221Y155766D02*X13411Y155575D01*
X13221Y156146D02*Y155766D01*
Y156146D02*X13411Y156337D01*
X13792D01*
X13983Y156146D01*
G54D71*X14440Y156718D02*Y156680D01*
G54D70*Y156146D02*Y155575D01*
X15011Y156908D02*Y155575D01*
Y156908D02*X15202Y157099D01*
X15392D01*
X14821Y156337D02*X15202D01*
X15964Y156908D02*Y155575D01*
Y156908D02*X16154Y157099D01*
X16345D01*
X15773Y156337D02*X16154D01*
X16916Y155575D02*X17488D01*
X16726Y155766D02*X16916Y155575D01*
X16726Y156146D02*Y155766D01*
Y156146D02*X16916Y156337D01*
X17297D01*
X17488Y156146D01*
X16726Y155956D02*X17488D01*
Y156146D02*Y155956D01*
X18136Y156146D02*Y155575D01*
Y156146D02*X18326Y156337D01*
X18707D01*
X17945D02*X18136Y156146D01*
X19355Y155575D02*X19926D01*
X19164Y155766D02*X19355Y155575D01*
X19164Y156146D02*Y155766D01*
Y156146D02*X19355Y156337D01*
X19736D01*
X19926Y156146D01*
X19164Y155956D02*X19926D01*
Y156146D02*Y155956D01*
X20574Y156146D02*Y155575D01*
Y156146D02*X20765Y156337D01*
X20955D01*
X21146Y156146D01*
Y155575D01*
X20384Y156337D02*X20574Y156146D01*
X21793Y157099D02*Y155766D01*
X21984Y155575D01*
X21603Y156528D02*X21984D01*
X23813Y157099D02*Y155575D01*
X23622D02*X23813Y155766D01*
X23241Y155575D02*X23622D01*
X23051Y155766D02*X23241Y155575D01*
X23051Y156146D02*Y155766D01*
Y156146D02*X23241Y156337D01*
X23622D01*
X23813Y156146D01*
X24460D02*Y155575D01*
Y156146D02*X24651Y156337D01*
X25032D01*
X24270D02*X24460Y156146D01*
G54D71*X25489Y156718D02*Y156680D01*
G54D70*Y156146D02*Y155575D01*
X25870Y157099D02*Y155766D01*
X26060Y155575D01*
X26441Y157099D02*Y155766D01*
X26632Y155575D01*
X27889D02*X28461D01*
X28651Y155766D01*
X28461Y155956D02*X28651Y155766D01*
X27889Y155956D02*X28461D01*
X27699Y156146D02*X27889Y155956D01*
X27699Y156146D02*X27889Y156337D01*
X28461D01*
X28651Y156146D01*
X27699Y155766D02*X27889Y155575D01*
G54D71*X29108Y156718D02*Y156680D01*
G54D70*Y156146D02*Y155575D01*
X29489Y156337D02*X30251D01*
X29489Y155575D02*X30251Y156337D01*
X29489Y155575D02*X30251D01*
X30899D02*X31471D01*
X30709Y155766D02*X30899Y155575D01*
X30709Y156146D02*Y155766D01*
Y156146D02*X30899Y156337D01*
X31280D01*
X31471Y156146D01*
X30709Y155956D02*X31471D01*
Y156146D02*Y155956D01*
X32118Y155575D02*X32690D01*
X32880Y155766D01*
X32690Y155956D02*X32880Y155766D01*
X32118Y155956D02*X32690D01*
X31928Y156146D02*X32118Y155956D01*
X31928Y156146D02*X32118Y156337D01*
X32690D01*
X32880Y156146D01*
X31928Y155766D02*X32118Y155575D01*
X34023Y156337D02*Y155766D01*
X34214Y155575D01*
X34595D01*
X34785Y155766D01*
Y156337D02*Y155766D01*
X35433Y155575D02*X36005D01*
X36195Y155766D01*
X36005Y155956D02*X36195Y155766D01*
X35433Y155956D02*X36005D01*
X35243Y156146D02*X35433Y155956D01*
X35243Y156146D02*X35433Y156337D01*
X36005D01*
X36195Y156146D01*
X35243Y155766D02*X35433Y155575D01*
X36843D02*X37414D01*
X36652Y155766D02*X36843Y155575D01*
X36652Y156146D02*Y155766D01*
Y156146D02*X36843Y156337D01*
X37224D01*
X37414Y156146D01*
X36652Y155956D02*X37414D01*
Y156146D02*Y155956D01*
X38633Y157099D02*Y155575D01*
X38443D02*X38633Y155766D01*
X38062Y155575D02*X38443D01*
X37871Y155766D02*X38062Y155575D01*
X37871Y156146D02*Y155766D01*
Y156146D02*X38062Y156337D01*
X38443D01*
X38633Y156146D01*
G54D71*X39776Y156718D02*Y156680D01*
G54D70*Y156146D02*Y155575D01*
X40348Y156146D02*Y155575D01*
Y156146D02*X40538Y156337D01*
X40729D01*
X40919Y156146D01*
Y155575D01*
X40157Y156337D02*X40348Y156146D01*
X42253Y157099D02*Y155766D01*
X42443Y155575D01*
X42062Y156528D02*X42443D01*
X42824Y157099D02*Y155575D01*
Y156146D02*X43015Y156337D01*
X43396D01*
X43586Y156146D01*
Y155575D01*
G54D71*X44044Y156718D02*Y156680D01*
G54D70*Y156146D02*Y155575D01*
X44615D02*X45187D01*
X45377Y155766D01*
X45187Y155956D02*X45377Y155766D01*
X44615Y155956D02*X45187D01*
X44425Y156146D02*X44615Y155956D01*
X44425Y156146D02*X44615Y156337D01*
X45187D01*
X45377Y156146D01*
X44425Y155766D02*X44615Y155575D01*
X46520Y157099D02*Y155766D01*
X46711Y155575D01*
X47663Y156337D02*X47854Y156146D01*
X47282Y156337D02*X47663D01*
X47092Y156146D02*X47282Y156337D01*
X47092Y156146D02*Y155766D01*
X47282Y155575D01*
X47854Y156337D02*Y155766D01*
X48044Y155575D01*
X47282D02*X47663D01*
X47854Y155766D01*
X48501Y156337D02*Y155766D01*
X48692Y155575D01*
X49263Y156337D02*Y155194D01*
X49073Y155004D02*X49263Y155194D01*
X48692Y155004D02*X49073D01*
X48501Y155194D02*X48692Y155004D01*
Y155575D02*X49073D01*
X49263Y155766D01*
X49721Y156146D02*Y155766D01*
Y156146D02*X49911Y156337D01*
X50292D01*
X50483Y156146D01*
Y155766D01*
X50292Y155575D02*X50483Y155766D01*
X49911Y155575D02*X50292D01*
X49721Y155766D02*X49911Y155575D01*
X50940Y156337D02*Y155766D01*
X51130Y155575D01*
X51511D01*
X51702Y155766D01*
Y156337D02*Y155766D01*
X52349Y157099D02*Y155766D01*
X52540Y155575D01*
X52159Y156528D02*X52540D01*
X52921Y155194D02*X53302Y155575D01*
X54445Y156794D02*X54750Y157099D01*
Y155575D01*
X54445D02*X55016D01*
X55474Y156908D02*X55664Y157099D01*
X56045D01*
X56236Y156908D01*
X56045Y155575D02*X56236Y155766D01*
X55664Y155575D02*X56045D01*
X55474Y155766D02*X55664Y155575D01*
Y156413D02*X56045D01*
X56236Y156908D02*Y156604D01*
Y156223D02*Y155766D01*
Y156223D02*X56045Y156413D01*
X56236Y156604D02*X56045Y156413D01*
X56693Y156908D02*X56883Y157099D01*
X57455D01*
X57645Y156908D01*
Y156528D01*
X56693Y155575D02*X57645Y156528D01*
X56693Y155575D02*X57645D01*
X58788Y157099D02*Y155575D01*
Y156146D02*X58979Y156337D01*
X59360D01*
X59550Y156146D01*
Y155575D01*
X60008Y156146D02*Y155766D01*
Y156146D02*X60198Y156337D01*
X60579D01*
X60770Y156146D01*
Y155766D01*
X60579Y155575D02*X60770Y155766D01*
X60198Y155575D02*X60579D01*
X60008Y155766D02*X60198Y155575D01*
X61227Y157099D02*Y155766D01*
X61417Y155575D01*
X61989D02*X62560D01*
X61798Y155766D02*X61989Y155575D01*
X61798Y156146D02*Y155766D01*
Y156146D02*X61989Y156337D01*
X62370D01*
X62560Y156146D01*
X61798Y155956D02*X62560D01*
Y156146D02*Y155956D01*
X63208Y155575D02*X63779D01*
X63970Y155766D01*
X63779Y155956D02*X63970Y155766D01*
X63208Y155956D02*X63779D01*
X63017Y156146D02*X63208Y155956D01*
X63017Y156146D02*X63208Y156337D01*
X63779D01*
X63970Y156146D01*
X63017Y155766D02*X63208Y155575D01*
X65303Y157099D02*Y155766D01*
X65494Y155575D01*
X65113Y156528D02*X65494D01*
X65875Y156146D02*Y155766D01*
Y156146D02*X66065Y156337D01*
X66446D01*
X66637Y156146D01*
Y155766D01*
X66446Y155575D02*X66637Y155766D01*
X66065Y155575D02*X66446D01*
X65875Y155766D02*X66065Y155575D01*
X67285Y157099D02*Y155766D01*
X67475Y155575D01*
X67094Y156528D02*X67475D01*
X68428Y156337D02*X68618Y156146D01*
X68047Y156337D02*X68428D01*
X67856Y156146D02*X68047Y156337D01*
X67856Y156146D02*Y155766D01*
X68047Y155575D01*
X68618Y156337D02*Y155766D01*
X68809Y155575D01*
X68047D02*X68428D01*
X68618Y155766D01*
X69266Y157099D02*Y155766D01*
X69456Y155575D01*
G54D72*X96890Y107715D02*Y126487D01*
X56758D01*
Y107715D01*
X96890D02*X108320D01*
X56758D02*X45328D01*
Y37611D01*
X108320Y107715D02*Y37611D01*
X45328D02*X108320D01*
G54D70*X54273Y-2413D02*X55035D01*
X55226Y-2222D01*
Y-1765D02*Y-2222D01*
X55035Y-1575D02*X55226Y-1765D01*
X54464Y-1575D02*X55035D01*
X54464Y-889D02*Y-2413D01*
X54273Y-889D02*X55035D01*
X55226Y-1080D01*
Y-1384D01*
X55035Y-1575D02*X55226Y-1384D01*
X55683Y-1842D02*Y-2222D01*
Y-1842D02*X55874Y-1651D01*
X56255D01*
X56445Y-1842D01*
Y-2222D01*
X56255Y-2413D02*X56445Y-2222D01*
X55874Y-2413D02*X56255D01*
X55683Y-2222D02*X55874Y-2413D01*
X57474Y-1651D02*X57664Y-1842D01*
X57093Y-1651D02*X57474D01*
X56902Y-1842D02*X57093Y-1651D01*
X56902Y-1842D02*Y-2222D01*
X57093Y-2413D01*
X57664Y-1651D02*Y-2222D01*
X57855Y-2413D01*
X57093D02*X57474D01*
X57664Y-2222D01*
X58503Y-1842D02*Y-2413D01*
Y-1842D02*X58693Y-1651D01*
X59074D01*
X58312D02*X58503Y-1842D01*
X60293Y-889D02*Y-2413D01*
X60103D02*X60293Y-2222D01*
X59722Y-2413D02*X60103D01*
X59531Y-2222D02*X59722Y-2413D01*
X59531Y-1842D02*Y-2222D01*
Y-1842D02*X59722Y-1651D01*
X60103D01*
X60293Y-1842D01*
X61436D02*Y-2222D01*
Y-1842D02*X61627Y-1651D01*
X62008D01*
X62198Y-1842D01*
Y-2222D01*
X62008Y-2413D02*X62198Y-2222D01*
X61627Y-2413D02*X62008D01*
X61436Y-2222D02*X61627Y-2413D01*
X62655Y-1651D02*Y-2222D01*
X62846Y-2413D01*
X63227D01*
X63417Y-2222D01*
Y-1651D02*Y-2222D01*
X64065Y-889D02*Y-2222D01*
X64256Y-2413D01*
X63875Y-1460D02*X64256D01*
X64637Y-889D02*Y-2222D01*
X64827Y-2413D01*
G54D71*X65208Y-1270D02*Y-1308D01*
G54D70*Y-1842D02*Y-2413D01*
X65780Y-1842D02*Y-2413D01*
Y-1842D02*X65970Y-1651D01*
X66161D01*
X66351Y-1842D01*
Y-2413D01*
X65589Y-1651D02*X65780Y-1842D01*
X66999Y-2413D02*X67570D01*
X66808Y-2222D02*X66999Y-2413D01*
X66808Y-1842D02*Y-2222D01*
Y-1842D02*X66999Y-1651D01*
X67380D01*
X67570Y-1842D01*
X66808Y-2032D02*X67570D01*
Y-1842D02*Y-2032D01*
G54D71*X68713Y-1270D02*Y-1308D01*
G54D70*Y-1842D02*Y-2413D01*
X69285D02*X69856D01*
X70047Y-2222D01*
X69856Y-2032D02*X70047Y-2222D01*
X69285Y-2032D02*X69856D01*
X69094Y-1842D02*X69285Y-2032D01*
X69094Y-1842D02*X69285Y-1651D01*
X69856D01*
X70047Y-1842D01*
X69094Y-2222D02*X69285Y-2413D01*
X71380Y-889D02*Y-2222D01*
X71571Y-2413D01*
X71190Y-1460D02*X71571D01*
X71952Y-889D02*Y-2413D01*
Y-1842D02*X72142Y-1651D01*
X72523D01*
X72714Y-1842D01*
Y-2413D01*
X73362D02*X73933D01*
X73171Y-2222D02*X73362Y-2413D01*
X73171Y-1842D02*Y-2222D01*
Y-1842D02*X73362Y-1651D01*
X73743D01*
X73933Y-1842D01*
X73171Y-2032D02*X73933D01*
Y-1842D02*Y-2032D01*
X75267Y-1651D02*X75838D01*
X75076Y-1842D02*X75267Y-1651D01*
X75076Y-1842D02*Y-2222D01*
X75267Y-2413D01*
X75838D01*
X76486D02*X77057D01*
X76295Y-2222D02*X76486Y-2413D01*
X76295Y-1842D02*Y-2222D01*
Y-1842D02*X76486Y-1651D01*
X76867D01*
X77057Y-1842D01*
X76295Y-2032D02*X77057D01*
Y-1842D02*Y-2032D01*
X77705Y-1842D02*Y-2413D01*
Y-1842D02*X77895Y-1651D01*
X78086D01*
X78276Y-1842D01*
Y-2413D01*
X77514Y-1651D02*X77705Y-1842D01*
X78924Y-889D02*Y-2222D01*
X79115Y-2413D01*
X78734Y-1460D02*X79115D01*
X79686Y-2413D02*X80258D01*
X79496Y-2222D02*X79686Y-2413D01*
X79496Y-1842D02*Y-2222D01*
Y-1842D02*X79686Y-1651D01*
X80067D01*
X80258Y-1842D01*
X79496Y-2032D02*X80258D01*
Y-1842D02*Y-2032D01*
X80905Y-1842D02*Y-2413D01*
Y-1842D02*X81096Y-1651D01*
X81477D01*
X80715D02*X80905Y-1842D01*
X81934Y-889D02*Y-2222D01*
X82125Y-2413D01*
G54D71*X82506Y-1270D02*Y-1308D01*
G54D70*Y-1842D02*Y-2413D01*
X83077Y-1842D02*Y-2413D01*
Y-1842D02*X83268Y-1651D01*
X83458D01*
X83649Y-1842D01*
Y-2413D01*
X82887Y-1651D02*X83077Y-1842D01*
X84296Y-2413D02*X84868D01*
X84106Y-2222D02*X84296Y-2413D01*
X84106Y-1842D02*Y-2222D01*
Y-1842D02*X84296Y-1651D01*
X84677D01*
X84868Y-1842D01*
X84106Y-2032D02*X84868D01*
Y-1842D02*Y-2032D01*
X86011Y-1842D02*Y-2222D01*
Y-1842D02*X86201Y-1651D01*
X86582D01*
X86773Y-1842D01*
Y-2222D01*
X86582Y-2413D02*X86773Y-2222D01*
X86201Y-2413D02*X86582D01*
X86011Y-2222D02*X86201Y-2413D01*
X87420Y-1080D02*Y-2413D01*
Y-1080D02*X87611Y-889D01*
X87801D01*
X87230Y-1651D02*X87611D01*
X89059Y-889D02*Y-2222D01*
X89249Y-2413D01*
X88868Y-1460D02*X89249D01*
X89630Y-889D02*Y-2413D01*
Y-1842D02*X89821Y-1651D01*
X90202D01*
X90392Y-1842D01*
Y-2413D01*
G54D71*X90849Y-1270D02*Y-1308D01*
G54D70*Y-1842D02*Y-2413D01*
X91421D02*X91992D01*
X92183Y-2222D01*
X91992Y-2032D02*X92183Y-2222D01*
X91421Y-2032D02*X91992D01*
X91230Y-1842D02*X91421Y-2032D01*
X91230Y-1842D02*X91421Y-1651D01*
X91992D01*
X92183Y-1842D01*
X91230Y-2222D02*X91421Y-2413D01*
X93516Y-1842D02*Y-2984D01*
X93326Y-1651D02*X93516Y-1842D01*
X93707Y-1651D01*
X94088D01*
X94278Y-1842D01*
Y-2222D01*
X94088Y-2413D02*X94278Y-2222D01*
X93707Y-2413D02*X94088D01*
X93516Y-2222D02*X93707Y-2413D01*
X95307Y-1651D02*X95498Y-1842D01*
X94926Y-1651D02*X95307D01*
X94736Y-1842D02*X94926Y-1651D01*
X94736Y-1842D02*Y-2222D01*
X94926Y-2413D01*
X95498Y-1651D02*Y-2222D01*
X95688Y-2413D01*
X94926D02*X95307D01*
X95498Y-2222D01*
X96336Y-889D02*Y-2222D01*
X96526Y-2413D01*
X96145Y-1460D02*X96526D01*
X96907Y-889D02*Y-2413D01*
Y-1842D02*X97098Y-1651D01*
X97479D01*
X97669Y-1842D01*
Y-2413D01*
X50990Y134239D02*Y132715D01*
X51486Y134239D02*X51752Y133972D01*
Y132982D01*
X51486Y132715D02*X51752Y132982D01*
X50800Y132715D02*X51486D01*
X50800Y134239D02*X51486D01*
X52781Y133477D02*X52972Y133286D01*
X52400Y133477D02*X52781D01*
X52210Y133286D02*X52400Y133477D01*
X52210Y133286D02*Y132906D01*
X52400Y132715D01*
X52972Y133477D02*Y132906D01*
X53162Y132715D01*
X52400D02*X52781D01*
X52972Y132906D01*
X53810Y134239D02*Y132906D01*
X54000Y132715D01*
X53619Y133668D02*X54000D01*
X54572Y132715D02*X55143D01*
X54381Y132906D02*X54572Y132715D01*
X54381Y133286D02*Y132906D01*
Y133286D02*X54572Y133477D01*
X54953D01*
X55143Y133286D01*
X54381Y133096D02*X55143D01*
Y133286D02*Y133096D01*
X55601Y133668D02*X55791D01*
X55601Y133286D02*X55791D01*
X56934Y134239D02*Y132715D01*
Y134239D02*X57506Y133477D01*
X58077Y134239D01*
Y132715D01*
X58534Y133286D02*Y132906D01*
Y133286D02*X58725Y133477D01*
X59106D01*
X59296Y133286D01*
Y132906D01*
X59106Y132715D02*X59296Y132906D01*
X58725Y132715D02*X59106D01*
X58534Y132906D02*X58725Y132715D01*
X59944Y133286D02*Y132715D01*
Y133286D02*X60135Y133477D01*
X60325D01*
X60516Y133286D01*
Y132715D01*
X59754Y133477D02*X59944Y133286D01*
X61925Y134239D02*X62230D01*
Y132906D01*
X62040Y132715D02*X62230Y132906D01*
X61849Y132715D02*X62040D01*
X61659Y132906D02*X61849Y132715D01*
X61659Y133096D02*Y132906D01*
X63259Y133477D02*X63449Y133286D01*
X62878Y133477D02*X63259D01*
X62687Y133286D02*X62878Y133477D01*
X62687Y133286D02*Y132906D01*
X62878Y132715D01*
X63449Y133477D02*Y132906D01*
X63640Y132715D01*
X62878D02*X63259D01*
X63449Y132906D01*
X64287Y133286D02*Y132715D01*
Y133286D02*X64478Y133477D01*
X64668D01*
X64859Y133286D01*
Y132715D01*
X64097Y133477D02*X64287Y133286D01*
X66688Y133934D02*X66993Y134239D01*
Y132715D01*
X66688D02*X67259D01*
X68402Y133934D02*X68707Y134239D01*
Y132715D01*
X68402D02*X68974D01*
X69431Y134048D02*X69621Y134239D01*
X70002D01*
X70193Y134048D01*
X70002Y132715D02*X70193Y132906D01*
X69621Y132715D02*X70002D01*
X69431Y132906D02*X69621Y132715D01*
Y133553D02*X70002D01*
X70193Y134048D02*Y133744D01*
Y133363D02*Y132906D01*
Y133363D02*X70002Y133553D01*
X70193Y133744D02*X70002Y133553D01*
X70650Y133668D02*X70841D01*
X70650Y133286D02*X70841D01*
X71298Y134239D02*X72060D01*
X71298D02*Y133477D01*
X71488Y133668D01*
X71869D01*
X72060Y133477D01*
Y132906D01*
X71869Y132715D02*X72060Y132906D01*
X71488Y132715D02*X71869D01*
X71298Y132906D02*X71488Y132715D01*
X72708D02*X73470Y134239D01*
X72517D02*X73470D01*
X73927Y133668D02*X74117D01*
X73927Y133286D02*X74117D01*
X74574Y134048D02*X74765Y134239D01*
X75146D01*
X75336Y134048D01*
X75146Y132715D02*X75336Y132906D01*
X74765Y132715D02*X75146D01*
X74574Y132906D02*X74765Y132715D01*
Y133553D02*X75146D01*
X75336Y134048D02*Y133744D01*
Y133363D02*Y132906D01*
Y133363D02*X75146Y133553D01*
X75336Y133744D02*X75146Y133553D01*
X75794Y134048D02*X75984Y134239D01*
X76556D01*
X76746Y134048D01*
Y133668D01*
X75794Y132715D02*X76746Y133668D01*
X75794Y132715D02*X76746D01*
X77889Y134048D02*X78080Y134239D01*
X78651D01*
X78842Y134048D01*
Y133668D01*
X77889Y132715D02*X78842Y133668D01*
X77889Y132715D02*X78842D01*
X79299Y132906D02*X79489Y132715D01*
X79299Y134048D02*Y132906D01*
Y134048D02*X79489Y134239D01*
X79870D01*
X80061Y134048D01*
Y132906D01*
X79870Y132715D02*X80061Y132906D01*
X79489Y132715D02*X79870D01*
X79299Y133096D02*X80061Y133858D01*
X80518Y134048D02*X80709Y134239D01*
X81280D01*
X81471Y134048D01*
Y133668D01*
X80518Y132715D02*X81471Y133668D01*
X80518Y132715D02*X81471D01*
X81928Y133286D02*X82690Y134239D01*
X81928Y133286D02*X82880D01*
X82690Y134239D02*Y132715D01*
X84023Y134239D02*Y132906D01*
X84214Y132715D01*
X84595D01*
X84785Y132906D01*
Y134239D02*Y132906D01*
X85242Y134239D02*X86004D01*
X85623D02*Y132715D01*
X86728D02*X87224D01*
X86462Y132982D02*X86728Y132715D01*
X86462Y133972D02*Y132982D01*
Y133972D02*X86728Y134239D01*
X87224D01*
X50800Y137668D02*Y136525D01*
Y137668D02*X51067Y138049D01*
X51486D01*
X51752Y137668D01*
Y136525D01*
X50800Y137287D02*X51752D01*
X52210D02*Y136716D01*
X52400Y136525D01*
X52781D01*
X52972Y136716D01*
Y137287D02*Y136716D01*
X53619Y138049D02*Y136716D01*
X53810Y136525D01*
X53429Y137478D02*X53810D01*
X54191Y138049D02*Y136525D01*
Y137096D02*X54381Y137287D01*
X54762D01*
X54953Y137096D01*
Y136525D01*
X55410Y137096D02*Y136716D01*
Y137096D02*X55601Y137287D01*
X55982D01*
X56172Y137096D01*
Y136716D01*
X55982Y136525D02*X56172Y136716D01*
X55601Y136525D02*X55982D01*
X55410Y136716D02*X55601Y136525D01*
X56820Y137096D02*Y136525D01*
Y137096D02*X57010Y137287D01*
X57391D01*
X56629D02*X56820Y137096D01*
X57849Y137478D02*X58039D01*
X57849Y137096D02*X58039D01*
X59373D02*Y135954D01*
X59182Y137287D02*X59373Y137096D01*
X59563Y137287D01*
X59944D01*
X60135Y137096D01*
Y136716D01*
X59944Y136525D02*X60135Y136716D01*
X59563Y136525D02*X59944D01*
X59373Y136716D02*X59563Y136525D01*
X50800Y141859D02*X51562D01*
X51181D02*Y140335D01*
G54D71*X52019Y141478D02*Y141440D01*
G54D70*Y140906D02*Y140335D01*
X52591Y141859D02*Y140526D01*
X52781Y140335D01*
X52400Y141288D02*X52781D01*
X53162Y141859D02*Y140526D01*
X53353Y140335D01*
X53924D02*X54496D01*
X53734Y140526D02*X53924Y140335D01*
X53734Y140906D02*Y140526D01*
Y140906D02*X53924Y141097D01*
X54305D01*
X54496Y140906D01*
X53734Y140716D02*X54496D01*
Y140906D02*Y140716D01*
X54953Y141288D02*X55143D01*
X54953Y140906D02*X55143D01*
X56286Y140526D02*X56477Y140335D01*
X56286Y141668D02*X56477Y141859D01*
X56286Y141668D02*Y140526D01*
X56934Y141097D02*Y140526D01*
X57125Y140335D01*
X57506D01*
X57696Y140526D01*
Y141097D02*Y140526D01*
X58344Y140906D02*Y140335D01*
Y140906D02*X58534Y141097D01*
X58725D01*
X58915Y140906D01*
Y140335D01*
X58153Y141097D02*X58344Y140906D01*
X59373Y141859D02*Y140335D01*
Y140906D02*X59944Y140335D01*
X59373Y140906D02*X59754Y141288D01*
X60592Y140906D02*Y140335D01*
Y140906D02*X60782Y141097D01*
X60973D01*
X61163Y140906D01*
Y140335D01*
X60401Y141097D02*X60592Y140906D01*
X61620D02*Y140526D01*
Y140906D02*X61811Y141097D01*
X62192D01*
X62382Y140906D01*
Y140526D01*
X62192Y140335D02*X62382Y140526D01*
X61811Y140335D02*X62192D01*
X61620Y140526D02*X61811Y140335D01*
X62840Y141097D02*Y140526D01*
X63030Y140335D01*
X63221D01*
X63411Y140526D01*
Y141097D02*Y140526D01*
X63602Y140335D01*
X63792D01*
X63983Y140526D01*
Y141097D02*Y140526D01*
X64630Y140906D02*Y140335D01*
Y140906D02*X64821Y141097D01*
X65011D01*
X65202Y140906D01*
Y140335D01*
X64440Y141097D02*X64630Y140906D01*
X65659Y141859D02*X65850Y141668D01*
Y140526D01*
X65659Y140335D02*X65850Y140526D01*
X66993Y141097D02*X67755D01*
X68898Y141859D02*Y140335D01*
Y141859D02*X69660D01*
X68898Y141173D02*X69469D01*
X70688Y141097D02*X70879Y140906D01*
X70307Y141097D02*X70688D01*
X70117Y140906D02*X70307Y141097D01*
X70117Y140906D02*Y140526D01*
X70307Y140335D01*
X70879Y141097D02*Y140526D01*
X71069Y140335D01*
X70307D02*X70688D01*
X70879Y140526D01*
X71526Y141859D02*Y140335D01*
Y140526D02*X71717Y140335D01*
X72098D01*
X72288Y140526D01*
Y140906D02*Y140526D01*
X72098Y141097D02*X72288Y140906D01*
X71717Y141097D02*X72098D01*
X71526Y140906D02*X71717Y141097D01*
X72936Y140906D02*Y140335D01*
Y140906D02*X73127Y141097D01*
X73508D01*
X72746D02*X72936Y140906D01*
G54D71*X73965Y141478D02*Y141440D01*
G54D70*Y140906D02*Y140335D01*
X74536Y141097D02*X75108D01*
X74346Y140906D02*X74536Y141097D01*
X74346Y140906D02*Y140526D01*
X74536Y140335D01*
X75108D01*
X76137Y141097D02*X76327Y140906D01*
X75756Y141097D02*X76137D01*
X75565Y140906D02*X75756Y141097D01*
X75565Y140906D02*Y140526D01*
X75756Y140335D01*
X76327Y141097D02*Y140526D01*
X76518Y140335D01*
X75756D02*X76137D01*
X76327Y140526D01*
X77165Y141859D02*Y140526D01*
X77356Y140335D01*
X76975Y141288D02*X77356D01*
G54D71*X77737Y141478D02*Y141440D01*
G54D70*Y140906D02*Y140335D01*
X78118Y140906D02*Y140526D01*
Y140906D02*X78308Y141097D01*
X78689D01*
X78880Y140906D01*
Y140526D01*
X78689Y140335D02*X78880Y140526D01*
X78308Y140335D02*X78689D01*
X78118Y140526D02*X78308Y140335D01*
X79527Y140906D02*Y140335D01*
Y140906D02*X79718Y141097D01*
X79908D01*
X80099Y140906D01*
Y140335D01*
X79337Y141097D02*X79527Y140906D01*
X81432Y141859D02*Y140335D01*
X81928Y141859D02*X82194Y141592D01*
Y140602D01*
X81928Y140335D02*X82194Y140602D01*
X81242Y140335D02*X81928D01*
X81242Y141859D02*X81928D01*
X82842Y140906D02*Y140335D01*
Y140906D02*X83033Y141097D01*
X83414D01*
X82652D02*X82842Y140906D01*
X84442Y141097D02*X84633Y140906D01*
X84061Y141097D02*X84442D01*
X83871Y140906D02*X84061Y141097D01*
X83871Y140906D02*Y140526D01*
X84061Y140335D01*
X84633Y141097D02*Y140526D01*
X84823Y140335D01*
X84061D02*X84442D01*
X84633Y140526D01*
X85281Y141097D02*Y140526D01*
X85471Y140335D01*
X85662D01*
X85852Y140526D01*
Y141097D02*Y140526D01*
X86043Y140335D01*
X86233D01*
X86424Y140526D01*
Y141097D02*Y140526D01*
G54D71*X86881Y141478D02*Y141440D01*
G54D70*Y140906D02*Y140335D01*
X87452Y140906D02*Y140335D01*
Y140906D02*X87643Y141097D01*
X87833D01*
X88024Y140906D01*
Y140335D01*
X87262Y141097D02*X87452Y140906D01*
X89052Y141097D02*X89243Y140906D01*
X88671Y141097D02*X89052D01*
X88481Y140906D02*X88671Y141097D01*
X88481Y140906D02*Y140526D01*
X88671Y140335D01*
X89052D01*
X89243Y140526D01*
X88481Y139954D02*X88671Y139764D01*
X89052D01*
X89243Y139954D01*
Y141097D02*Y139954D01*
M02*
