M48
INCH
T60C0.020
T59C0.035
T58C0.043
%
T60
X018386Y026515
X022738Y031897
X023246Y043497
X023433Y021214
X024246Y042197
X024633Y021214
X024646Y042707
X024746Y043507
X025435Y037894
X025646Y043923
X025926Y035226
X026435Y039694
X026646Y043923
X027133Y026914
X027235Y035926
X027435Y037894
X027565Y035138
X027646Y043923
X028516Y032838
X028646Y043923
X028707Y041867
X028735Y038494
X028735Y037794
X029646Y043923
X029716Y035638
X030109Y040550
X030646Y043923
X031487Y040550
X031643Y038878
X031646Y043923
X031772Y042650
X032646Y043923
X032835Y040394
X032846Y029697
X032865Y035338
X032980Y019720
X033291Y025335
X033485Y030135
X033646Y043923
X033680Y019820
X033946Y039075
X033946Y036516
X033991Y025535
X033991Y024335
X033991Y023635
X034135Y041094
X034146Y028397
X034185Y028935
X034321Y031379
X034521Y026979
X034572Y042650
X034646Y043923
X034675Y024226
X034780Y017420
X035246Y035532
X035246Y034823
X035275Y025535
X035321Y029079
X035346Y037894
X035433Y027983
X035480Y018620
X035480Y017320
X035846Y043797
X036121Y027979
X036721Y031879
X036746Y043807
X036746Y025397
X036846Y016897
X037143Y037378
X037533Y028383
X037646Y025397
X037707Y039467
X037780Y023131
X038337Y039107
X038380Y021020
X038833Y029083
X039180Y021020
X039180Y019720
X039278Y036667
X039346Y031397
X039533Y026283
X039680Y019120
T59
X019341Y038505
X019738Y036297
X020446Y034157
X021246Y026157
X021512Y039261
X021512Y038473
X021512Y037686
X022121Y019186
X022146Y035397
X022299Y039261
X022299Y038473
X022299Y037686
X023087Y039261
X023087Y038473
X023087Y037686
X025074Y018871
X025596Y025207
X025838Y027247
X026996Y025007
X029496Y023607
X032472Y038406
X033472Y040450
X036737Y040707
T58
X022241Y041505
X022241Y040505
X027733Y026314
X028733Y026314
X029733Y026314
X030733Y026314
X031733Y026314
X041646Y020897
X041646Y019897
X041646Y018897
X041646Y017897
X041646Y016897
X041646Y015897
X041746Y041097
X041746Y040097
X041746Y039097
X041746Y038097
X041746Y037097
X041746Y036097
X041746Y034388
X041746Y033388
X041746Y032388
X041746Y031388
X041746Y030388
M30
