G04 start of page 2 for group 0 idx 0 *
G04 Title: (unknown), component *
G04 Creator: pcb v4.1.3-ge2c36c29 *
G04 CreationDate: Mon Jan  1 13:57:32 2024 UTC *
G04 For: p *
G04 Format: Gerber/RS-274X *
G04 PCB-Dimensions (mm): 152.40 127.00 *
G04 PCB-Coordinate-Origin: lower left *
%MOMM*%
%FSLAX43Y43*%
%LNTOP*%
%ADD26C,1.100*%
%ADD25C,1.600*%
%ADD24C,1.100*%
%ADD23C,5.000*%
%ADD22C,0.900*%
%ADD21C,0.500*%
%ADD20C,1.524*%
%ADD19C,1.270*%
%ADD18C,1.700*%
%ADD17C,0.002*%
%ADD16C,2.000*%
%ADD15C,1.800*%
%ADD14C,0.508*%
%ADD13C,0.635*%
%ADD12C,0.254*%
%ADD11C,1.016*%
G54D11*X53964Y66440D02*X65648D01*
X68569Y63519D01*
X65013Y64027D02*X62606D01*
X62580Y64001D01*
X58917Y64027D02*X59044Y63900D01*
G54D12*X68239Y67684D02*X52420D01*
X61564Y69208D02*Y70605D01*
X60294Y69208D02*Y70351D01*
X62072Y72129D01*
X59024Y69208D02*Y70351D01*
X62834Y69208D02*Y70605D01*
X63342Y71113D01*
X61564Y70605D02*X62580Y71621D01*
X68239Y67684D02*X70441Y69886D01*
X59024Y70351D02*X61310Y72637D01*
X57754Y69208D02*Y70605D01*
G54D13*X64104Y69208D02*X65628D01*
G54D12*X57754Y70605D02*X60294Y73145D01*
X56484Y70605D02*X59532Y73653D01*
X55214Y70859D02*X58516Y74161D01*
X56484Y69208D02*Y70605D01*
X55214Y69208D02*Y70859D01*
X53944Y69208D02*Y71113D01*
X52674Y69208D02*Y71367D01*
X51404Y69208D02*Y71367D01*
X50134Y69208D02*Y71367D01*
X53944Y71113D02*X57500Y74669D01*
X52674Y71367D02*X56484Y75177D01*
X51404Y71367D02*X55722Y75685D01*
X50134Y71367D02*X54960Y76193D01*
X52674Y77209D02*X64634D01*
X54198Y76701D02*X64832D01*
X59532Y73653D02*X66738D01*
X58516Y74161D02*X66484D01*
X57500Y74669D02*X66230D01*
X56484Y75177D02*X65976D01*
X55722Y75685D02*X65340D01*
X54960Y76193D02*X65086D01*
X59519Y53884D02*X57233D01*
G54D11*X56187Y46193D02*Y48733D01*
G54D12*X57233Y53884D02*X53687Y50338D01*
Y46193D01*
X54185Y40422D02*X50883Y43724D01*
Y53884D01*
X48089Y56678D01*
Y62266D01*
X46702Y67347D02*Y66055D01*
X46934Y65823D01*
X49437Y62528D02*Y65120D01*
X51137Y63028D02*Y66401D01*
X52420Y67684D01*
X49437Y65120D02*X48734Y65823D01*
G54D11*X53964Y66440D02*Y64132D01*
X54069Y64027D01*
X55869D02*X58917D01*
G54D12*X60294Y73145D02*X75698D01*
X61310Y72637D02*X75952D01*
X62072Y72129D02*X76206D01*
X62580Y71621D02*X76460D01*
X63342Y71113D02*X76714D01*
X65086Y76193D02*X70016Y81123D01*
X64832Y76701D02*X69508Y81377D01*
X84622Y82647D02*X82978Y84291D01*
X70778Y81123D02*Y84805D01*
X70016Y81123D02*Y85059D01*
X80978Y83243D02*X82590Y81631D01*
X80478Y82981D02*X82082Y81377D01*
X79978Y82719D02*X81574Y81123D01*
X80304Y76989D02*X79168Y75853D01*
X83098Y81885D02*X81478Y83505D01*
X83606Y82139D02*X81978Y83767D01*
X82478Y84029D02*X84114Y82393D01*
X84622Y79997D02*Y82647D01*
X83098Y77128D02*Y81885D01*
X83606Y77987D02*Y82139D01*
X84114Y82393D02*Y79759D01*
X75478Y82393D02*X66738Y73653D01*
X75224Y82901D02*X66484Y74161D01*
X74970Y83409D02*X66230Y74669D01*
X74716Y83917D02*X65976Y75177D01*
X65340Y75685D02*X70778Y81123D01*
X75952Y72637D02*X79168Y75853D01*
X75698Y73145D02*X80050Y77497D01*
X78478Y81933D02*X80050Y80361D01*
X82590Y76271D02*Y81631D01*
X82082Y76481D02*Y81377D01*
X81574Y76735D02*Y81123D01*
X81066Y76989D02*Y80869D01*
X80304Y76989D02*X80558Y77243D01*
X79478Y82457D02*X81066Y80869D01*
X80558Y77243D02*Y80615D01*
X80304Y80869D01*
X80050Y77497D02*Y80361D01*
G54D11*X74919Y59963D02*X82204D01*
G54D12*X75066Y62012D02*X79839D01*
X74251Y62520D02*X76283D01*
X75013Y62012D02*X72473Y59472D01*
X80601Y68255D02*X83438Y71092D01*
X78122Y66838D02*X82876Y71592D01*
X75521Y66838D02*X81275Y72592D01*
X76791Y69124D02*X80759Y73092D01*
X70441Y69886D02*X76537D01*
X80743Y74092D01*
X83430Y75431D02*X82590Y76271D01*
X76714Y71113D02*X82082Y76481D01*
X76460Y71621D02*X81574Y76735D01*
X76206Y72129D02*X81066Y76989D01*
X79839Y62012D02*X82887Y65060D01*
Y69833D01*
X76283Y62520D02*X80601Y66838D01*
Y68255D01*
X74759Y63536D02*X78061Y66838D01*
X78122D01*
X74759Y63536D02*X73879D01*
X72981Y68108D02*X73997Y69124D01*
X76791D01*
X73880Y64299D02*Y65196D01*
X75522Y66839D01*
X72981Y68108D02*Y64298D01*
G54D11*X61187Y58200D02*X59044Y60344D01*
X61187Y58200D02*Y45393D01*
G54D12*X60027Y42962D02*X58687Y44302D01*
Y46193D01*
G54D11*X59044Y60344D02*Y64001D01*
G54D12*X72981Y64298D02*X62567Y53884D01*
X66187Y56607D02*X73880Y64299D01*
X68687Y58344D02*X73879Y63536D01*
G54D11*X63687Y47933D02*Y45393D01*
G54D12*X66187Y46193D02*Y56607D01*
X68687Y46693D02*Y58344D01*
X68409Y42962D02*X60027D01*
X70441Y40422D02*X54185D01*
X74251Y62520D02*X70187Y58456D01*
Y44740D01*
X68409Y42962D01*
X72473Y59472D02*Y42454D01*
X70441Y40422D01*
G54D13*X74919Y59963D02*Y54478D01*
X77816Y51581D01*
G54D12*X80761Y51573D02*Y56234D01*
X84277Y43649D02*Y41707D01*
X81737Y41961D02*Y43739D01*
Y41961D02*X84277Y39421D01*
Y41707D02*X85801Y40183D01*
X85547Y43649D02*Y41961D01*
X86309Y41199D01*
X83769Y50089D02*X82285Y51573D01*
X80761D01*
G54D13*X78961Y51581D02*Y47449D01*
X80671Y45739D02*X78961Y47449D01*
Y51581D02*X77816D01*
G54D12*X98939Y53391D02*X99517D01*
Y50089D02*Y46533D01*
X97231Y50089D02*Y46533D01*
Y44733D02*Y43993D01*
X95961Y42723D01*
Y41337D01*
G54D14*X95083Y39537D02*X98501D01*
G54D12*X99517Y44733D02*Y43739D01*
X98501Y42723D01*
Y41337D01*
X91099Y67144D02*Y66311D01*
X91599Y67144D02*Y66573D01*
X91223Y65425D02*Y58313D01*
X90715Y65171D02*Y57551D01*
X92239Y65933D02*Y60091D01*
X91731Y65679D02*Y59145D01*
X94352Y69081D02*Y60361D01*
X93336Y59937D02*Y64509D01*
G54D13*X100413Y68282D02*Y65234D01*
G54D12*X98889Y68130D02*Y63812D01*
X99267Y63434D01*
X100413D01*
X100544Y63304D01*
X95587Y68870D02*Y68108D01*
X96857D01*
X97619Y67346D01*
Y65060D01*
X95622Y64509D02*Y66296D01*
X95587Y66330D01*
X97619Y63282D02*Y62266D01*
X98081Y51455D02*X91223Y58313D01*
X96506Y56767D02*X93336Y59937D01*
X90715Y56605D02*X97231Y50089D01*
X91731Y59145D02*X97485Y53391D01*
X95961Y58752D02*X97896D01*
X92239Y60091D02*X98939Y53391D01*
X90715Y57543D02*Y56605D01*
X94352Y60361D02*X95961Y58752D01*
X85333Y51581D03*
G54D13*X85547Y47549D02*Y52629D01*
G54D12*X86337Y61810D02*X80761Y56234D01*
X87325Y50089D02*Y59044D01*
X86337Y60032D01*
G54D13*X85547Y47549D02*X81737D01*
X86817D02*Y45779D01*
X86857Y45739D01*
X80660Y45749D02*X91875D01*
X91897Y45771D01*
G54D14*Y45749D02*X93442D01*
G54D12*X88341Y44247D02*X86817D01*
X90119Y43993D02*Y42977D01*
X88341Y41199D01*
X86309D02*X88341D01*
X90119Y47295D02*X87325Y50089D01*
X91897Y43971D02*Y42977D01*
G54D14*X93442Y45749D02*X94691Y44501D01*
Y39929D01*
X95083Y39537D01*
G54D12*X91897Y42977D02*X89103Y40183D01*
X90092Y39421D02*X93590Y42919D01*
X85801Y40183D02*X89103D01*
X84277Y39421D02*X90092D01*
X100544Y63304D02*X104477D01*
X97619Y62266D02*X103715Y56170D01*
X96506Y56767D02*X100824D01*
X103715Y56170D02*X106247D01*
X105782Y53079D02*X104512D01*
X100824Y56767D01*
X98081Y51455D02*X102326D01*
X105782Y47999D01*
Y45459D02*X103892D01*
X100787Y48565D01*
X106247Y56170D02*X107306Y55111D01*
Y41903D01*
X105782Y40379D01*
X94309Y72592D02*X102226Y80509D01*
X94047Y73092D02*X99940Y78985D01*
X88983Y71612D02*X96384Y79012D01*
X93047Y74092D02*Y74700D01*
X97146Y78799D01*
X93047Y73592D02*X93809D01*
X97873Y77656D01*
G54D13*X98635Y73870D02*Y72092D01*
G54D12*X99397Y70082D02*X103889D01*
X104477Y70670D01*
X91494Y79935D02*X93758D01*
X93272Y80973D02*X94352Y82053D01*
X93758Y79935D02*X94860Y81037D01*
X106036Y84805D02*X106004D01*
X106036Y82265D02*X102226D01*
X91494Y79935D02*Y78941D01*
X90598Y78046D01*
Y75540D02*Y78046D01*
X91098Y75540D02*Y76562D01*
X91598Y75540D02*Y76300D01*
X91098Y76562D02*X95368Y80831D01*
X91598Y76300D02*X95876Y80577D01*
X88099Y75540D02*Y80414D01*
X88598Y80676D02*Y75540D01*
X89099D02*Y82208D01*
X90099Y75541D02*Y84960D01*
X89598Y75541D02*Y86092D01*
X89780Y87181D02*X89272D01*
X91494Y82799D02*Y81735D01*
X91050Y85911D02*X90099Y84960D01*
X91050Y85911D02*X89780Y87181D01*
X91560Y91751D02*X94352Y88959D01*
X92850Y85911D02*Y89445D01*
X92066Y90229D01*
X91050D01*
X94352Y82053D02*Y88959D01*
X92850Y85889D02*Y84155D01*
X91494Y82799D01*
X94860Y81037D02*Y89213D01*
X95368Y80831D02*Y89467D01*
X95876Y80577D02*Y89721D01*
X94860Y89213D02*X91812Y92261D01*
X95368Y89467D02*X91584Y93251D01*
X95876Y89721D02*X91846Y93751D01*
X95344Y93491D02*X99940Y88895D01*
X106004Y84805D02*X96718Y94091D01*
X96030Y93641D02*X102226Y87445D01*
X96384Y79012D02*Y89975D01*
X97146Y78799D02*Y89975D01*
X97873Y77656D02*Y90010D01*
X99940Y78985D02*Y88895D01*
X102226Y87445D02*Y80509D01*
G54D13*X88075Y61534D02*X89599D01*
G54D12*X90099Y67144D02*Y65787D01*
X89599Y67144D02*Y64858D01*
G54D13*Y63334D02*Y63334D01*
G54D11*Y64858D02*Y63334D01*
X85575Y63334D02*X89639D01*
G54D12*X90099Y65787D02*X90715Y65171D01*
X90599Y67144D02*Y66049D01*
X91223Y65425D01*
X91099Y66311D02*X91731Y65679D01*
X91599Y66573D02*X92239Y65933D01*
X89099Y67144D02*Y68382D01*
X87938Y69543D01*
X89904Y68592D02*X88954Y69543D01*
X88983Y69514D02*X88475Y70022D01*
X84559Y64350D02*Y67121D01*
X87099Y65620D02*X86337Y64858D01*
G54D11*X82204Y59963D02*X85575Y63334D01*
G54D12*X85911Y68473D02*X84559Y67121D01*
X95187Y70700D02*X98779D01*
X95333Y72092D02*X95333Y72092D01*
G54D13*X95331Y72092D02*X96835D01*
X96835Y72092D01*
G54D12*X95187Y69938D02*X97081D01*
X98779Y70700D02*X99397Y70082D01*
X97081Y69938D02*X98889Y68130D01*
X95079Y69378D02*X95587Y68870D01*
X93047Y71592D02*X94294D01*
X95187Y70700D01*
X93047Y71092D02*X94032D01*
X93047Y73092D02*X94047D01*
X93047Y72592D02*X94309D01*
X93047Y72092D02*X95333D01*
X93047Y70592D02*X92223D01*
X91748Y71067D01*
X93047Y69092D02*X90421D01*
X89999Y71076D02*X90983Y70092D01*
X94103D01*
X90421Y69092D02*X89716Y69797D01*
X93047Y68592D02*X89904D01*
X94032Y71092D02*X95187Y69938D01*
X93047Y69592D02*X93840D01*
X94352Y69081D01*
X94103Y70092D02*X94817Y69378D01*
X95079D01*
X86599Y67144D02*Y70980D01*
X88099Y67144D02*Y68112D01*
X87684Y68527D01*
X86732Y71113D02*Y72129D01*
X87938Y72385D02*X86829Y73494D01*
X87938Y72385D02*Y69543D01*
X88475Y70022D02*Y72621D01*
X89716Y73861D02*X88475Y72621D01*
X89726Y69787D02*X88983Y70530D01*
Y71612D01*
X87099Y67144D02*Y65620D01*
X85911Y68473D02*Y71521D01*
X85340Y72092D01*
X84650D01*
Y73592D02*X85442D01*
X85657Y73807D01*
Y74569D01*
X86599Y70980D02*X86732Y71113D01*
X84650Y70592D02*X83646D01*
X84650Y71092D02*X83438D01*
X82887Y69833D02*X83646Y70592D01*
X84650Y71592D02*X82876D01*
X84650Y72592D02*X81275D01*
X84650Y73092D02*X80759D01*
X84650Y74092D02*X80743D01*
X87099Y75541D02*Y78304D01*
X86598Y75541D02*Y78042D01*
X86099Y75541D02*Y77780D01*
X85657Y74569D02*X83098Y77128D01*
X85051Y76542D02*X83606Y77987D01*
X84114Y79759D02*X86099Y77774D01*
X86598Y78020D02*X84622Y79997D01*
X87099Y78304D02*X85130Y80273D01*
Y82901D01*
X85638Y81241D02*Y83409D01*
X84978Y87981D02*Y84831D01*
X85478Y87981D02*Y85093D01*
X84240Y90775D02*X86018Y88997D01*
Y85289D01*
X85130Y82901D02*X83977Y84053D01*
X85638Y83409D02*X84478Y84569D01*
X84978Y84831D02*X86146Y83663D01*
X87176Y79703D02*X85638Y81241D01*
X86146Y82367D02*X88099Y80414D01*
X86654Y82621D02*X88598Y80676D01*
X86146Y83663D02*Y82367D01*
X85478Y85093D02*X86654Y83917D01*
Y82621D01*
X86018Y85289D02*X89099Y82208D01*
X86224Y92751D02*X87748D01*
X89598Y86092D02*X84446Y91245D01*
X106036Y91687D02*X103982D01*
X106036Y94227D02*X104490D01*
X106036Y87345D02*X104226D01*
X97226Y94345D02*X104226Y87345D01*
X103982Y91687D02*X100934Y94735D01*
X106036Y96767D02*X104490D01*
X106036Y99307D02*X104490D01*
X100954Y97047D02*X101670D01*
X104490Y94227D02*X101670Y97047D01*
X104490Y96767D02*X101924Y99333D01*
X102178Y101619D02*X104490Y99307D01*
X100954Y101619D02*X102178D01*
G54D13*X106036Y104387D02*X104766Y105657D01*
X99686D02*X104766D01*
G54D12*X100954Y99333D02*X101924D01*
X86224Y99251D02*X87748D01*
X97376Y99333D02*X99154D01*
X89756D02*X94582D01*
X86288Y100711D02*Y102235D01*
G54D11*X82478Y97551D02*Y99901D01*
X84924Y102347D01*
Y102601D01*
G54D12*X82478Y104521D02*Y101999D01*
G54D14*X83527Y100950D01*
G54D12*X87748Y98251D02*X89510D01*
X90534Y97735D02*X93836D01*
X87748Y97751D02*X89787D01*
X90280Y98243D01*
X89510Y98251D02*X90010Y98751D01*
X87748Y98751D02*X89174D01*
X89756Y99333D01*
X87748Y99751D02*X89412D01*
X87748Y100751D02*X95270D01*
X95776Y100245D01*
X89412Y99751D02*X89502Y99841D01*
X94836D01*
X90280Y98243D02*X94222D01*
X90010Y98751D02*X94402D01*
X87748Y91251D02*Y90751D01*
X89272Y87181D02*X85208Y91245D01*
Y94801D01*
X86157Y95751D01*
X87748D01*
X84446Y95309D02*X85887Y96751D01*
X87748D01*
X96384Y89975D02*X92108Y94251D01*
X97146Y89975D02*X92370Y94751D01*
X97873Y90010D02*X92632Y95251D01*
G54D13*X94344Y94941D02*X93095Y96189D01*
Y96465D01*
G54D12*X95344Y96227D02*Y93491D01*
X96030Y93641D02*Y96435D01*
X96718Y94091D02*Y96435D01*
X93836Y97735D02*X95344Y96227D01*
X96030Y96435D02*X94222Y98243D01*
X96718Y96435D02*X94402Y98751D01*
X97226Y94345D02*Y96689D01*
X99134Y94735D02*Y93765D01*
X99766Y93133D01*
G54D13*X89526Y88451D02*X91050D01*
G54D12*X87748Y90251D02*X89526D01*
G54D13*X89548D02*X91050D01*
G54D12*X87748Y91751D02*X91560D01*
X92108Y94251D02*X87748D01*
X92370Y94751D02*X87748D01*
X91812Y92261D02*X87748D01*
X91584Y93251D02*X87748D01*
X91846Y93751D02*X87748D01*
X92632Y95251D02*X87748D01*
Y96251D02*X89780D01*
G54D13*X89811D02*X91081D01*
X91296Y96465D01*
G54D12*X87748Y97251D02*X90050D01*
X90534Y97735D01*
X94836Y99841D02*X96464Y98213D01*
X97988D01*
X99154Y97047D01*
X97226Y96689D02*X94582Y99333D01*
X87748Y100251D02*X86748D01*
X86288Y100711D01*
X84970Y102791D02*X85018Y102743D01*
X85478Y104521D02*Y103203D01*
X85018Y102743D01*
X85478Y104473D02*Y105721D01*
X80978Y104521D02*Y102223D01*
X81478Y104521D02*Y101961D01*
X82978Y104521D02*Y103023D01*
X83400Y102601D01*
X81478Y101961D02*X80876Y101360D01*
X100954Y103905D02*Y101619D01*
G54D13*X99154Y103905D02*Y105125D01*
X99686Y105657D01*
G54D12*X87748Y101251D02*X98786D01*
X87748Y101751D02*X89363D01*
X87748Y102251D02*X89102D01*
X93334Y106483D01*
X98786Y101251D02*X99154Y101619D01*
X89363Y101751D02*X94606Y106993D01*
G54D13*X93312Y103397D02*X93820Y103905D01*
X99154D01*
G54D12*X94606Y106993D02*X94604Y121184D01*
X93334Y106483D02*Y111271D01*
X92066Y108013D02*Y119150D01*
X92064Y119152D01*
X89524D02*Y111039D01*
X91050Y111245D02*Y108727D01*
X86984Y120168D02*X86986Y111295D01*
X81904Y120168D02*Y111547D01*
X80866Y110509D01*
X84444Y111547D02*X82390Y109493D01*
X84444Y120168D02*Y111547D01*
X86288Y102235D02*X92066Y108013D01*
X89524Y111039D02*X87978Y109493D01*
X86437Y110001D02*X88002Y111565D01*
X91050Y108727D02*X86702Y104379D01*
G54D13*X86288Y108331D02*X87812D01*
G54D12*X85478Y105721D02*X86288Y106531D01*
X87978Y109493D02*X85438D01*
X84978Y109033D01*
X84478Y109295D02*X85184Y110001D01*
X84930Y110509D02*X83978Y109557D01*
X84978Y109033D02*Y104521D01*
X83478Y109819D02*X84676Y111017D01*
X85184Y110001D02*X86437D01*
X86986Y111295D02*X86200Y110509D01*
X84930D01*
X84676Y111017D02*X84913D01*
X85462Y111565D01*
X76478Y87981D02*Y84663D01*
X75732Y83917D01*
X76978Y87981D02*Y84401D01*
X75986Y83409D01*
X77478Y87981D02*Y84139D01*
X77978Y87981D02*Y83877D01*
X78478Y87981D02*Y81933D01*
X77978Y83877D02*X76494Y82393D01*
X75978Y87981D02*Y89625D01*
X75478Y85695D02*Y90521D01*
X75978Y89625D02*X77128Y90775D01*
X77478Y84139D02*X76240Y82901D01*
X75224D01*
X76494Y82393D02*X75478D01*
X75732Y83917D02*X74716D01*
X75986Y83409D02*X74970D01*
Y85187D02*X75478Y85695D01*
X78978Y87981D02*Y82195D01*
X79478Y87981D02*Y82457D01*
X79978Y87981D02*Y82719D01*
X78978Y82195D02*X80304Y80869D01*
X80478Y87981D02*Y82981D01*
X80978Y83243D02*Y87981D01*
X81478Y83505D02*Y87981D01*
X81978Y83767D02*Y87981D01*
X82478D02*Y84029D01*
X82978Y84291D02*Y87981D01*
X83478D02*Y89759D01*
X77128Y90775D02*X84240D01*
X83977Y84053D02*Y87981D01*
X84478Y84569D02*Y87981D01*
G54D13*X72430Y83409D02*Y84447D01*
X73170Y85187D01*
G54D12*X69508Y81377D02*Y85567D01*
X73978Y86989D02*X73446Y86457D01*
X74208Y89251D02*X73192D01*
X73478Y87981D02*X72938D01*
X73446Y86457D02*X72430D01*
X70778Y84805D02*X72430Y86457D01*
X72938Y87981D02*X70016Y85059D01*
X73192Y89251D02*X69508Y85567D01*
X70016Y89251D02*X70530D01*
X73978Y87981D02*Y86989D01*
X74478Y87981D02*Y88981D01*
X74208Y89251D01*
X74978Y87981D02*Y89243D01*
X72938Y89759D02*X68746Y85567D01*
X72810Y90393D02*X67884Y85467D01*
X70530Y89251D02*X71208Y89929D01*
Y90251D01*
Y91251D02*X69176D01*
G54D13*X67652D01*
G54D12*X71208Y92251D02*X68668D01*
X71208Y92751D02*X68930D01*
X68620Y93061D01*
X71208Y93251D02*X69192D01*
X68874Y93569D01*
X69454Y93751D02*X69128Y94077D01*
X71208Y93751D02*X69454D01*
X71208Y94251D02*X69716D01*
X69382Y94585D01*
X71208Y94751D02*X69978D01*
X69636Y95093D01*
X69684Y96251D02*X71208D01*
G54D13*X69684D02*X67906D01*
G54D12*X71208Y90751D02*X70252D01*
X69690Y90189D01*
X74978Y89243D02*X74462Y89759D01*
X72938D01*
X71208Y91751D02*X72342D01*
X72810Y91283D01*
Y90393D01*
G54D11*X75478Y90551D02*X82478Y97551D01*
G54D12*X84446Y91245D02*Y95309D01*
X71208Y96751D02*X72232D01*
X72986Y95997D01*
X71208Y97251D02*X69954D01*
X69684Y97521D01*
X71208Y97751D02*X70216D01*
X69938Y98029D01*
X71208Y98251D02*X72510D01*
X72986Y97775D01*
X71208Y98751D02*X80374D01*
X48864Y69208D02*Y71367D01*
X47594Y69208D02*Y72129D01*
X48864Y71367D02*X54198Y76701D01*
X47594Y72129D02*X52674Y77209D01*
G54D13*X47594Y78987D02*Y81771D01*
G54D11*X50134Y92195D02*Y86883D01*
X47856Y84604D02*X50134Y86882D01*
G54D12*X50134Y78987D02*Y81539D01*
X48864Y78987D02*Y80765D01*
X49294Y81195D01*
Y81449D01*
G54D13*X46332Y82818D02*Y93740D01*
G54D12*X64104Y78987D02*Y80257D01*
X67884Y84037D01*
X68746Y81321D02*Y85567D01*
X65190Y83139D02*X62834Y80784D01*
X65190Y83139D02*Y86451D01*
X61564Y78987D02*Y80765D01*
X60294Y78987D02*Y80765D01*
X59024Y78987D02*Y81019D01*
X61564Y80765D02*X62580Y81781D01*
X60294Y80765D02*X61818Y82289D01*
X59024Y81019D02*X60802Y82797D01*
Y86353D01*
X61818Y82289D02*Y86607D01*
X62580D02*Y81781D01*
X59278Y84067D02*Y85591D01*
X62834Y78987D02*Y80784D01*
X64634Y77209D02*X68746Y81321D01*
X55214Y81019D02*X58008Y83813D01*
X53944Y81273D02*X56992Y84321D01*
Y84829D01*
X58008Y83813D02*Y85083D01*
X56484Y81273D02*X59278Y84067D01*
X52674Y81527D02*X55976Y84829D01*
X51404Y82035D02*X54706Y85337D01*
X55722D02*X54706D01*
X57754Y78987D02*Y81019D01*
X56484Y78987D02*Y81273D01*
G54D13*X47594Y81771D02*X47856Y82034D01*
X47116D01*
G54D11*X47856Y83834D02*Y84604D01*
G54D12*X55214Y78987D02*Y81019D01*
X53944Y78987D02*Y81273D01*
X52674Y78987D02*Y81527D01*
X51404Y78987D02*Y82035D01*
X50134Y81539D02*X54460Y85866D01*
X49294Y81449D02*X55644Y87799D01*
G54D13*X47116Y82034D02*X46332Y82818D01*
G54D11*X56252Y89909D02*X54198D01*
X53690Y89401D01*
X51932Y86760D02*X53710Y88538D01*
Y89421D01*
G54D12*X54460Y85866D02*X55476D01*
X60724Y91113D01*
X55644Y87799D02*X56152D01*
X60216Y91863D01*
X72916Y106341D02*X73478Y105779D01*
X74526Y101868D02*X69206Y107189D01*
X74018Y101360D02*X67682Y107697D01*
X76478Y102997D02*Y104521D01*
X76978Y106015D02*X76548Y106445D01*
X74478Y104521D02*Y108261D01*
X73978Y104521D02*Y107809D01*
X71208Y102251D02*X70328D01*
X69182Y103397D01*
X71208Y101751D02*X70066D01*
X71208Y101251D02*X69804D01*
X71208Y100751D02*X69542D01*
X71208Y100251D02*X69280D01*
X73478Y104521D02*Y105779D01*
X79978Y102997D02*Y104521D01*
X82478D02*Y106277D01*
X82224Y106531D01*
X80478Y104521D02*Y107029D01*
X79478Y104521D02*Y107267D01*
X78978Y104521D02*Y107005D01*
X80978Y102223D02*X80622Y101868D01*
X74526D01*
X80876Y101360D02*X74018D01*
X80478Y107029D02*X79684Y107823D01*
X79478Y107267D02*X79176Y107569D01*
X78978Y107005D02*X78668Y107315D01*
X78478Y104521D02*Y106801D01*
X78072Y107207D01*
X77978Y104521D02*Y106539D01*
X77564Y106953D01*
X77478Y104521D02*Y106277D01*
X77056Y106699D01*
X76978Y104521D02*Y106015D01*
G54D13*X80700Y108331D02*X82224D01*
G54D12*X80338Y109493D02*X82390D01*
X84478Y104521D02*Y109295D01*
X83978Y109557D02*Y104521D01*
X83478D02*Y109819D01*
X80104Y110001D02*X81357D01*
X79850Y110509D02*X80866D01*
X81357Y110001D02*X82922Y111565D01*
X79833Y111017D02*X80382Y111565D01*
X79684Y108839D02*X80338Y109493D01*
X79176Y109073D02*X80104Y110001D01*
X78668Y109327D02*X79850Y110509D01*
X79684Y107823D02*Y108839D01*
X79176Y107569D02*Y109073D01*
X78668Y107315D02*Y109327D01*
X79596Y111017D02*X79833D01*
X78072Y109493D02*X79596Y111017D01*
X77056Y110001D02*X77842Y110787D01*
Y111565D01*
X75978Y110889D02*X75302Y111565D01*
X79364Y111547D02*X77564Y109747D01*
X78072Y107207D02*Y109493D01*
X77564Y106953D02*Y109747D01*
X77056Y106699D02*Y110001D01*
X76548Y106445D02*Y110509D01*
X76826Y110787D01*
X76824Y120168D01*
X75978Y104521D02*Y110889D01*
X75478Y104521D02*Y109547D01*
X74978Y104521D02*Y108523D01*
X79364Y120168D02*Y111547D01*
X74978Y108523D02*X72762Y110739D01*
X74478Y108261D02*X71746Y110993D01*
X73978Y107809D02*X70222Y111565D01*
X72762Y110739D02*Y111565D01*
X71746Y110993D02*X71744Y120168D01*
X74284D02*Y110741D01*
X75478Y109547D01*
X67884Y84037D02*Y85467D01*
X68668Y92251D02*X68366Y92553D01*
X69690Y90189D02*X68928D01*
X65190Y86451D01*
X68366Y92553D02*X65224D01*
G54D13*X65852Y91251D02*Y89473D01*
G54D12*X64788Y88815D02*Y92117D01*
X68620Y93061D02*X64970D01*
X68874Y93569D02*X64716D01*
X69128Y94077D02*X64462D01*
X69382Y94585D02*X64208D01*
G54D13*X64604Y96251D02*X66106D01*
G54D12*X64096Y98029D02*X61816Y95749D01*
X62502Y95673D02*X64350Y97521D01*
X69684D02*X64350D01*
X69938Y98029D02*X64096D01*
X69636Y95093D02*X63954D01*
X61232Y96181D02*X64302Y99251D01*
X60724Y96689D02*X63786Y99751D01*
X71208Y99251D02*X64302D01*
X71208Y99751D02*X63786D01*
X64788Y92117D02*X65224Y92553D01*
X64970Y93061D02*X64280Y92371D01*
X63772Y92625D02*X64716Y93569D01*
X63264Y92879D02*X64462Y94077D01*
X64280Y92371D02*Y89069D01*
X63772Y89323D02*Y92625D01*
X63264Y89577D02*Y92879D01*
X62580Y86607D02*X64788Y88815D01*
X61818Y86607D02*X64280Y89069D01*
X60802Y86353D02*X63772Y89323D01*
X59278Y85591D02*X63264Y89577D01*
X58008Y85083D02*X62756Y89831D01*
X56992Y84829D02*X62248Y90085D01*
X62756Y89831D02*Y93133D01*
X62248Y90085D02*Y93387D01*
X60724Y91113D02*Y94149D01*
X61232Y94657D01*
X60216Y91863D02*Y94403D01*
X60724Y94911D01*
X62756Y93133D02*X64208Y94585D01*
X62248Y93387D02*X63954Y95093D01*
X61740Y93641D02*X62502Y94403D01*
Y95673D01*
G54D11*X47868Y103149D02*Y104159D01*
X49154Y105429D02*X47868Y104142D01*
X49646Y105429D02*X56504D01*
X49629D02*X49154D01*
X58404Y102884D02*X60316Y104796D01*
Y109975D01*
X61584Y111243D01*
Y119152D01*
G54D12*X59046Y110483D02*Y121182D01*
X59044Y121184D01*
X61586Y107181D02*Y106381D01*
G54D11*X58404Y102884D02*X51666D01*
X51412Y103138D01*
X49126Y99986D02*X49090Y100022D01*
X49126Y97804D02*Y99986D01*
X46332Y97296D02*X47856Y95772D01*
X46332Y97296D02*Y101614D01*
X47856Y103138D02*X46332Y101614D01*
G54D13*X48110Y95518D02*X46332Y93740D01*
G54D12*X55976Y84829D02*X61740Y90593D01*
X61232Y90847D02*X55722Y85337D01*
X61740Y90593D02*Y93641D01*
X61816Y95749D02*Y94479D01*
X61232Y93895D01*
Y90847D01*
Y94657D02*Y96181D01*
X60724Y94911D02*Y96689D01*
G54D11*X56259Y89909D02*Y97611D01*
G54D12*X69280Y100251D02*X64102Y105429D01*
X69192Y103386D02*X66666Y105913D01*
X70066Y101751D02*X65142Y106675D01*
X63594Y109769D02*X62854Y110509D01*
X63594Y106699D02*Y109769D01*
X64102Y105429D02*X62600Y106931D01*
Y108477D01*
X69206Y107189D02*X69204Y120168D01*
X67682Y107697D02*Y111565D01*
X66666Y105913D02*X66664Y120168D01*
X65142Y106675D02*Y111565D01*
X64124Y120168D02*X64126Y106929D01*
X69804Y101251D02*X64126Y106929D01*
X69542Y100751D02*X63594Y106699D01*
X61586Y106381D02*X67144Y100823D01*
G54D15*X106036Y87345D03*
Y84805D03*
Y82265D03*
Y79725D03*
Y77185D03*
X105782Y53079D03*
Y50539D03*
Y47999D03*
Y45459D03*
Y42919D03*
Y40379D03*
G54D16*X106036Y104387D03*
Y101847D03*
Y99307D03*
Y96767D03*
Y94227D03*
Y91687D03*
X56492Y105424D03*
Y102884D03*
G54D17*G36*
X53878Y100484D02*Y98960D01*
X55402D01*
Y100484D01*
X53878D01*
G37*
G36*
X55878D02*Y98960D01*
X57402D01*
Y100484D01*
X55878D01*
G37*
G36*
Y98484D02*Y96960D01*
X57402D01*
Y98484D01*
X55878D01*
G37*
G36*
X53878D02*Y96960D01*
X55402D01*
Y98484D01*
X53878D01*
G37*
G36*
X55878Y96484D02*Y94960D01*
X57402D01*
Y96484D01*
X55878D01*
G37*
G36*
X53878D02*Y94960D01*
X55402D01*
Y96484D01*
X53878D01*
G37*
G36*
X57878Y100484D02*Y98960D01*
X59402D01*
Y100484D01*
X57878D01*
G37*
G36*
Y98484D02*Y96960D01*
X59402D01*
Y98484D01*
X57878D01*
G37*
G36*
Y96484D02*Y94960D01*
X59402D01*
Y96484D01*
X57878D01*
G37*
G54D18*X70441Y66838D03*
X72981D03*
X75521D03*
X78061D03*
X80601D03*
G54D17*G36*
X101604Y102369D02*X100304D01*
Y100869D01*
X101604D01*
Y102369D01*
G37*
G36*
X99804D02*X98504D01*
Y100869D01*
X99804D01*
Y102369D01*
G37*
G36*
X101604Y100083D02*X100304D01*
Y98583D01*
X101604D01*
Y100083D01*
G37*
G36*
X99804D02*X98504D01*
Y98583D01*
X99804D01*
Y100083D01*
G37*
G36*
X101604Y97797D02*X100304D01*
Y96297D01*
X101604D01*
Y97797D01*
G37*
G36*
X99804D02*X98504D01*
Y96297D01*
X99804D01*
Y97797D01*
G37*
G36*
X101584Y95485D02*X100284D01*
Y93985D01*
X101584D01*
Y95485D01*
G37*
G36*
X99784D02*X98484D01*
Y93985D01*
X99784D01*
Y95485D01*
G37*
G36*
X101604Y104655D02*X100304D01*
Y103155D01*
X101604D01*
Y104655D01*
G37*
G36*
X99804D02*X98504D01*
Y103155D01*
X99804D01*
Y104655D01*
G37*
G36*
X86986Y94891D02*Y94611D01*
X88510D01*
Y94891D01*
X86986D01*
G37*
G36*
Y95391D02*Y95111D01*
X88510D01*
Y95391D01*
X86986D01*
G37*
G36*
Y95891D02*Y95611D01*
X88510D01*
Y95891D01*
X86986D01*
G37*
G36*
Y96391D02*Y96111D01*
X88510D01*
Y96391D01*
X86986D01*
G37*
G36*
Y96891D02*Y96611D01*
X88510D01*
Y96891D01*
X86986D01*
G37*
G36*
Y97391D02*Y97111D01*
X88510D01*
Y97391D01*
X86986D01*
G37*
G36*
Y97891D02*Y97611D01*
X88510D01*
Y97891D01*
X86986D01*
G37*
G36*
Y98391D02*Y98111D01*
X88510D01*
Y98391D01*
X86986D01*
G37*
G36*
Y98891D02*Y98611D01*
X88510D01*
Y98891D01*
X86986D01*
G37*
G36*
X93745Y97215D02*X92445D01*
Y95715D01*
X93745D01*
Y97215D01*
G37*
G36*
X91945D02*X90645D01*
Y95715D01*
X91945D01*
Y97215D01*
G37*
G36*
X93500Y86661D02*X92200D01*
Y85161D01*
X93500D01*
Y86661D01*
G37*
G36*
X91700D02*X90400D01*
Y85161D01*
X91700D01*
Y86661D01*
G37*
G36*
X90744Y82385D02*Y81085D01*
X92244D01*
Y82385D01*
X90744D01*
G37*
G36*
Y80585D02*Y79285D01*
X92244D01*
Y80585D01*
X90744D01*
G37*
G36*
X97331Y57417D02*Y56117D01*
X98831D01*
Y57417D01*
X97331D01*
G37*
G36*
Y59217D02*Y57917D01*
X98831D01*
Y59217D01*
X97331D01*
G37*
G36*
X96481Y47183D02*Y45883D01*
X97981D01*
Y47183D01*
X96481D01*
G37*
G36*
Y45383D02*Y44083D01*
X97981D01*
Y45383D01*
X96481D01*
G37*
G36*
X98767Y47183D02*Y45883D01*
X100267D01*
Y47183D01*
X98767D01*
G37*
G36*
Y45383D02*Y44083D01*
X100267D01*
Y45383D01*
X98767D01*
G37*
G36*
X95211Y40187D02*Y38887D01*
X96711D01*
Y40187D01*
X95211D01*
G37*
G36*
Y41987D02*Y40687D01*
X96711D01*
Y41987D01*
X95211D01*
G37*
G36*
X97751Y40187D02*Y38887D01*
X99251D01*
Y40187D01*
X97751D01*
G37*
G36*
Y41987D02*Y40687D01*
X99251D01*
Y41987D01*
X97751D01*
G37*
G36*
X88849Y62184D02*Y60884D01*
X90349D01*
Y62184D01*
X88849D01*
G37*
G36*
Y63984D02*Y62684D01*
X90349D01*
Y63984D01*
X88849D01*
G37*
G36*
X105493Y63964D02*X103461D01*
Y58376D01*
X105493D01*
Y63964D01*
G37*
G36*
X96869Y63932D02*Y62632D01*
X98369D01*
Y63932D01*
X96869D01*
G37*
G36*
X92476Y68732D02*Y68452D01*
X93619D01*
Y68732D01*
X92476D01*
G37*
G36*
Y69232D02*Y68952D01*
X93619D01*
Y69232D01*
X92476D01*
G37*
G36*
Y69732D02*Y69452D01*
X93619D01*
Y69732D01*
X92476D01*
G37*
G36*
Y70232D02*Y69952D01*
X93619D01*
Y70232D01*
X92476D01*
G37*
G36*
Y70732D02*Y70452D01*
X93619D01*
Y70732D01*
X92476D01*
G37*
G36*
Y71232D02*Y70952D01*
X93619D01*
Y71232D01*
X92476D01*
G37*
G36*
Y71732D02*Y71452D01*
X93619D01*
Y71732D01*
X92476D01*
G37*
G36*
Y72232D02*Y71952D01*
X93619D01*
Y72232D01*
X92476D01*
G37*
G36*
Y72732D02*Y72452D01*
X93619D01*
Y72732D01*
X92476D01*
G37*
G36*
X105493Y73464D02*X103461D01*
Y67876D01*
X105493D01*
Y73464D01*
G37*
G36*
X92476Y73232D02*Y72952D01*
X93619D01*
Y73232D01*
X92476D01*
G37*
G36*
Y73732D02*Y73452D01*
X93619D01*
Y73732D01*
X92476D01*
G37*
G36*
Y74232D02*Y73952D01*
X93619D01*
Y74232D01*
X92476D01*
G37*
G36*
X91738Y76112D02*X91459D01*
Y74969D01*
X91738D01*
Y76112D01*
G37*
G36*
X91239D02*X90959D01*
Y74969D01*
X91239D01*
Y76112D01*
G37*
G36*
X90738D02*X90459D01*
Y74969D01*
X90738D01*
Y76112D01*
G37*
G36*
X90239D02*X89959D01*
Y74969D01*
X90239D01*
Y76112D01*
G37*
G36*
X89738D02*X89459D01*
Y74969D01*
X89738D01*
Y76112D01*
G37*
G36*
X89239D02*X88959D01*
Y74969D01*
X89239D01*
Y76112D01*
G37*
G36*
X88738D02*X88459D01*
Y74969D01*
X88738D01*
Y76112D01*
G37*
G36*
X88239D02*X87959D01*
Y74969D01*
X88239D01*
Y76112D01*
G37*
G36*
X87738D02*X87459D01*
Y74969D01*
X87738D01*
Y76112D01*
G37*
G36*
X86239Y67715D02*X85959D01*
Y66572D01*
X86239D01*
Y67715D01*
G37*
G36*
X86739D02*X86459D01*
Y66572D01*
X86739D01*
Y67715D01*
G37*
G36*
X87239D02*X86959D01*
Y66572D01*
X87239D01*
Y67715D01*
G37*
G36*
X87997Y53379D02*X86697D01*
Y51879D01*
X87997D01*
Y53379D01*
G37*
G36*
X87117Y48649D02*X86517D01*
Y46449D01*
X87117D01*
Y48649D01*
G37*
G36*
X87739Y67715D02*X87459D01*
Y66572D01*
X87739D01*
Y67715D01*
G37*
G36*
X88239D02*X87959D01*
Y66572D01*
X88239D01*
Y67715D01*
G37*
G36*
X88739D02*X88459D01*
Y66572D01*
X88739D01*
Y67715D01*
G37*
G36*
X89239D02*X88959D01*
Y66572D01*
X89239D01*
Y67715D01*
G37*
G36*
X89739D02*X89459D01*
Y66572D01*
X89739D01*
Y67715D01*
G37*
G36*
X90239D02*X89959D01*
Y66572D01*
X90239D01*
Y67715D01*
G37*
G36*
X90739D02*X90459D01*
Y66572D01*
X90739D01*
Y67715D01*
G37*
G36*
X91239D02*X90959D01*
Y66572D01*
X91239D01*
Y67715D01*
G37*
G36*
X91739D02*X91459D01*
Y66572D01*
X91739D01*
Y67715D01*
G37*
G36*
X91147Y46421D02*Y45121D01*
X92647D01*
Y46421D01*
X91147D01*
G37*
G36*
X99663Y65884D02*Y64584D01*
X101163D01*
Y65884D01*
X99663D01*
G37*
G36*
Y64084D02*Y62784D01*
X101163D01*
Y64084D01*
X99663D01*
G37*
G36*
Y68932D02*Y67632D01*
X101163D01*
Y68932D01*
X99663D01*
G37*
G36*
Y70732D02*Y69432D01*
X101163D01*
Y70732D01*
X99663D01*
G37*
G36*
X94837Y66980D02*Y65680D01*
X96337D01*
Y66980D01*
X94837D01*
G37*
G36*
Y68780D02*Y67480D01*
X96337D01*
Y68780D01*
X94837D01*
G37*
G36*
X99285Y72842D02*X97985D01*
Y71342D01*
X99285D01*
Y72842D01*
G37*
G36*
X97485D02*X96185D01*
Y71342D01*
X97485D01*
Y72842D01*
G37*
G36*
X96869Y65732D02*Y64432D01*
X98369D01*
Y65732D01*
X96869D01*
G37*
G36*
X47848Y70224D02*X47340D01*
Y68192D01*
X47848D01*
Y70224D01*
G37*
G36*
X47107Y84484D02*Y83184D01*
X48606D01*
Y84484D01*
X47107D01*
G37*
G36*
Y82684D02*Y81384D01*
X48606D01*
Y82684D01*
X47107D01*
G37*
G36*
X49118Y70224D02*X48610D01*
Y68192D01*
X49118D01*
Y70224D01*
G37*
G36*
X49384Y66573D02*X48084D01*
Y65073D01*
X49384D01*
Y66573D01*
G37*
G36*
X47584D02*X46284D01*
Y65073D01*
X47584D01*
Y66573D01*
G37*
G36*
X50388Y70224D02*X49880D01*
Y68192D01*
X50388D01*
Y70224D01*
G37*
G36*
X51658D02*X51150D01*
Y68192D01*
X51658D01*
Y70224D01*
G37*
G36*
X52928D02*X52420D01*
Y68192D01*
X52928D01*
Y70224D01*
G37*
G36*
X54198D02*X53690D01*
Y68192D01*
X54198D01*
Y70224D01*
G37*
G36*
X55468D02*X54960D01*
Y68192D01*
X55468D01*
Y70224D01*
G37*
G36*
X56738D02*X56230D01*
Y68192D01*
X56738D01*
Y70224D01*
G37*
G36*
X58008D02*X57500D01*
Y68192D01*
X58008D01*
Y70224D01*
G37*
G36*
X56519Y64777D02*X55219D01*
Y63277D01*
X56519D01*
Y64777D01*
G37*
G36*
X54719D02*X53419D01*
Y63277D01*
X54719D01*
Y64777D01*
G37*
G36*
X49937Y64278D02*X48937D01*
Y60778D01*
X49937D01*
Y64278D01*
G37*
G36*
X48737Y64278D02*X47337D01*
Y60778D01*
X48737D01*
Y64278D01*
G37*
G36*
X51837D02*X50437D01*
Y61778D01*
X51837D01*
Y64278D01*
G37*
G36*
X59278Y70224D02*X58770D01*
Y68192D01*
X59278D01*
Y70224D01*
G37*
G36*
X60548D02*X60040D01*
Y68192D01*
X60548D01*
Y70224D01*
G37*
G36*
X61818D02*X61310D01*
Y68192D01*
X61818D01*
Y70224D01*
G37*
G36*
X63088D02*X62580D01*
Y68192D01*
X63088D01*
Y70224D01*
G37*
G36*
X64358D02*X63850D01*
Y68192D01*
X64358D01*
Y70224D01*
G37*
G36*
X60040Y65271D02*X58008D01*
Y62731D01*
X60040D01*
Y65271D01*
G37*
G36*
X63596D02*X61564D01*
Y62731D01*
X63596D01*
Y65271D01*
G37*
G36*
X64358Y80003D02*X63850D01*
Y77971D01*
X64358D01*
Y80003D01*
G37*
G36*
X63088D02*X62580D01*
Y77971D01*
X63088D01*
Y80003D01*
G37*
G36*
X61818D02*X61310D01*
Y77971D01*
X61818D01*
Y80003D01*
G37*
G36*
X60548D02*X60040D01*
Y77971D01*
X60548D01*
Y80003D01*
G37*
G36*
X59278D02*X58770D01*
Y77971D01*
X59278D01*
Y80003D01*
G37*
G36*
X58008D02*X57500D01*
Y77971D01*
X58008D01*
Y80003D01*
G37*
G36*
X56738D02*X56230D01*
Y77971D01*
X56738D01*
Y80003D01*
G37*
G36*
X55468D02*X54960D01*
Y77971D01*
X55468D01*
Y80003D01*
G37*
G36*
X54198D02*X53690D01*
Y77971D01*
X54198D01*
Y80003D01*
G37*
G36*
X52928D02*X52420D01*
Y77971D01*
X52928D01*
Y80003D01*
G37*
G36*
X51658D02*X51150D01*
Y77971D01*
X51658D01*
Y80003D01*
G37*
G36*
X50388D02*X49880D01*
Y77971D01*
X50388D01*
Y80003D01*
G37*
G36*
X49118D02*X48610D01*
Y77971D01*
X49118D01*
Y80003D01*
G37*
G36*
X47848D02*X47340D01*
Y77971D01*
X47848D01*
Y80003D01*
G37*
G36*
X48872Y104408D02*X46840D01*
Y101868D01*
X48872D01*
Y104408D01*
G37*
G36*
X52428D02*X50396D01*
Y101868D01*
X52428D01*
Y104408D01*
G37*
G36*
X47340Y96222D02*Y94622D01*
X50840D01*
Y96222D01*
X47340D01*
G37*
G36*
Y100822D02*Y99222D01*
X50840D01*
Y100822D01*
X47340D01*
G37*
G36*
X54706Y90671D02*X52674D01*
Y88131D01*
X54706D01*
Y90671D01*
G37*
G36*
X51150D02*X49118D01*
Y88131D01*
X51150D01*
Y90671D01*
G37*
G36*
X51640Y100722D02*Y94722D01*
X59640D01*
Y100722D01*
X51640D01*
G37*
G36*
X69237Y48018D02*X68137D01*
Y45368D01*
X69237D01*
Y48018D01*
G37*
G36*
X66737Y47518D02*X65637D01*
Y44868D01*
X66737D01*
Y47518D01*
G37*
G36*
X64237Y46718D02*X63137D01*
Y44069D01*
X64237D01*
Y46718D01*
G37*
G36*
X61737D02*X60637D01*
Y44069D01*
X61737D01*
Y46718D01*
G37*
G36*
X59237Y47518D02*X58137D01*
Y44868D01*
X59237D01*
Y47518D01*
G37*
G36*
X56737D02*X55637D01*
Y44868D01*
X56737D01*
Y47518D01*
G37*
G36*
X54237D02*X53137D01*
Y44868D01*
X54237D01*
Y47518D01*
G37*
G36*
X52612D02*X51512D01*
Y44868D01*
X52612D01*
Y47518D01*
G37*
G36*
X71737Y45218D02*X70637D01*
Y42568D01*
X71737D01*
Y45218D01*
G37*
G36*
X76887Y44428D02*X74187D01*
Y41428D01*
X76887D01*
Y44428D01*
G37*
G36*
X48787D02*X46087D01*
Y41428D01*
X48787D01*
Y44428D01*
G37*
G36*
X77633Y125962D02*X76014D01*
Y116405D01*
X77633D01*
Y125962D01*
G37*
G36*
X80173D02*X78554D01*
Y116405D01*
X80173D01*
Y125962D01*
G37*
G36*
X82713D02*X81094D01*
Y116405D01*
X82713D01*
Y125962D01*
G37*
G36*
X85253D02*X83634D01*
Y116405D01*
X85253D01*
Y125962D01*
G37*
G36*
X87793D02*X86174D01*
Y116405D01*
X87793D01*
Y125962D01*
G37*
G36*
X90333D02*X88714D01*
Y116405D01*
X90333D01*
Y125962D01*
G37*
G36*
X92873D02*X91254D01*
Y116405D01*
X92873D01*
Y125962D01*
G37*
G36*
X95413D02*X93794D01*
Y116405D01*
X95413D01*
Y125962D01*
G37*
G36*
X66756Y97001D02*X65456D01*
Y95501D01*
X66756D01*
Y97001D01*
G37*
G36*
X68556D02*X67256D01*
Y95501D01*
X68556D01*
Y97001D01*
G37*
G36*
X73618Y88743D02*X73338D01*
Y87219D01*
X73618D01*
Y88743D01*
G37*
G36*
X74118D02*X73838D01*
Y87219D01*
X74118D01*
Y88743D01*
G37*
G36*
X74618D02*X74338D01*
Y87219D01*
X74618D01*
Y88743D01*
G37*
G36*
X75118D02*X74838D01*
Y87219D01*
X75118D01*
Y88743D01*
G37*
G36*
X75618D02*X75338D01*
Y87219D01*
X75618D01*
Y88743D01*
G37*
G36*
X76118D02*X75838D01*
Y87219D01*
X76118D01*
Y88743D01*
G37*
G36*
X76618D02*X76338D01*
Y87219D01*
X76618D01*
Y88743D01*
G37*
G36*
X77118D02*X76838D01*
Y87219D01*
X77118D01*
Y88743D01*
G37*
G36*
X77618D02*X77338D01*
Y87219D01*
X77618D01*
Y88743D01*
G37*
G36*
X73820Y85937D02*X72520D01*
Y84437D01*
X73820D01*
Y85937D01*
G37*
G36*
X75620D02*X74320D01*
Y84437D01*
X75620D01*
Y85937D01*
G37*
G36*
X78118Y88743D02*X77838D01*
Y87219D01*
X78118D01*
Y88743D01*
G37*
G36*
X78618D02*X78338D01*
Y87219D01*
X78618D01*
Y88743D01*
G37*
G36*
X79118D02*X78838D01*
Y87219D01*
X79118D01*
Y88743D01*
G37*
G36*
X79618D02*X79338D01*
Y87219D01*
X79618D01*
Y88743D01*
G37*
G36*
X80118D02*X79838D01*
Y87219D01*
X80118D01*
Y88743D01*
G37*
G36*
X80618D02*X80338D01*
Y87219D01*
X80618D01*
Y88743D01*
G37*
G36*
X81118D02*X80838D01*
Y87219D01*
X81118D01*
Y88743D01*
G37*
G36*
X81618D02*X81338D01*
Y87219D01*
X81618D01*
Y88743D01*
G37*
G36*
X82118D02*X81838D01*
Y87219D01*
X82118D01*
Y88743D01*
G37*
G36*
X82618D02*X82338D01*
Y87219D01*
X82618D01*
Y88743D01*
G37*
G36*
X83118D02*X82838D01*
Y87219D01*
X83118D01*
Y88743D01*
G37*
G36*
X83618D02*X83338D01*
Y87219D01*
X83618D01*
Y88743D01*
G37*
G36*
X84118D02*X83838D01*
Y87219D01*
X84118D01*
Y88743D01*
G37*
G36*
X84618D02*X84338D01*
Y87219D01*
X84618D01*
Y88743D01*
G37*
G36*
X85118D02*X84838D01*
Y87219D01*
X85118D01*
Y88743D01*
G37*
G36*
X85618D02*X85338D01*
Y87219D01*
X85618D01*
Y88743D01*
G37*
G36*
X90300Y89101D02*Y87801D01*
X91800D01*
Y89101D01*
X90300D01*
G37*
G36*
X86986Y90391D02*Y90111D01*
X88510D01*
Y90391D01*
X86986D01*
G37*
G36*
Y90891D02*Y90611D01*
X88510D01*
Y90891D01*
X86986D01*
G37*
G36*
Y91391D02*Y91111D01*
X88510D01*
Y91391D01*
X86986D01*
G37*
G36*
Y91891D02*Y91611D01*
X88510D01*
Y91891D01*
X86986D01*
G37*
G36*
X90300Y90901D02*Y89601D01*
X91800D01*
Y90901D01*
X90300D01*
G37*
G36*
X86986Y92391D02*Y92111D01*
X88510D01*
Y92391D01*
X86986D01*
G37*
G36*
Y92891D02*Y92611D01*
X88510D01*
Y92891D01*
X86986D01*
G37*
G36*
Y93391D02*Y93111D01*
X88510D01*
Y93391D01*
X86986D01*
G37*
G36*
Y93891D02*Y93611D01*
X88510D01*
Y93891D01*
X86986D01*
G37*
G36*
Y94391D02*Y94111D01*
X88510D01*
Y94391D01*
X86986D01*
G37*
G36*
X66502Y92001D02*X65202D01*
Y90501D01*
X66502D01*
Y92001D01*
G37*
G36*
X68302D02*X67002D01*
Y90501D01*
X68302D01*
Y92001D01*
G37*
G36*
X70446Y96891D02*Y96611D01*
X71970D01*
Y96891D01*
X70446D01*
G37*
G36*
Y96391D02*Y96111D01*
X71970D01*
Y96391D01*
X70446D01*
G37*
G36*
Y95891D02*Y95611D01*
X71970D01*
Y95891D01*
X70446D01*
G37*
G36*
Y95391D02*Y95111D01*
X71970D01*
Y95391D01*
X70446D01*
G37*
G36*
Y94891D02*Y94611D01*
X71970D01*
Y94891D01*
X70446D01*
G37*
G36*
Y94391D02*Y94111D01*
X71970D01*
Y94391D01*
X70446D01*
G37*
G36*
Y93891D02*Y93611D01*
X71970D01*
Y93891D01*
X70446D01*
G37*
G36*
Y93391D02*Y93111D01*
X71970D01*
Y93391D01*
X70446D01*
G37*
G36*
Y92891D02*Y92611D01*
X71970D01*
Y92891D01*
X70446D01*
G37*
G36*
Y92391D02*Y92111D01*
X71970D01*
Y92391D01*
X70446D01*
G37*
G36*
Y91891D02*Y91611D01*
X71970D01*
Y91891D01*
X70446D01*
G37*
G36*
Y91391D02*Y91111D01*
X71970D01*
Y91391D01*
X70446D01*
G37*
G36*
Y90891D02*Y90611D01*
X71970D01*
Y90891D01*
X70446D01*
G37*
G36*
Y90391D02*Y90111D01*
X71970D01*
Y90391D01*
X70446D01*
G37*
G36*
X67473Y125962D02*X65854D01*
Y116405D01*
X67473D01*
Y125962D01*
G37*
G36*
X70013D02*X68394D01*
Y116405D01*
X70013D01*
Y125962D01*
G37*
G36*
X59853D02*X58234D01*
Y116405D01*
X59853D01*
Y125962D01*
G37*
G36*
X62393D02*X60774D01*
Y116405D01*
X62393D01*
Y125962D01*
G37*
G36*
X64933D02*X63314D01*
Y116405D01*
X64933D01*
Y125962D01*
G37*
G36*
X72553D02*X70934D01*
Y116405D01*
X72553D01*
Y125962D01*
G37*
G36*
X75093D02*X73474D01*
Y116405D01*
X75093D01*
Y125962D01*
G37*
G36*
X86986Y99391D02*Y99111D01*
X88510D01*
Y99391D01*
X86986D01*
G37*
G36*
Y99891D02*Y99611D01*
X88510D01*
Y99891D01*
X86986D01*
G37*
G36*
Y100391D02*Y100111D01*
X88510D01*
Y100391D01*
X86986D01*
G37*
G36*
Y100891D02*Y100611D01*
X88510D01*
Y100891D01*
X86986D01*
G37*
G36*
Y101391D02*Y101111D01*
X88510D01*
Y101391D01*
X86986D01*
G37*
G36*
Y101891D02*Y101611D01*
X88510D01*
Y101891D01*
X86986D01*
G37*
G36*
Y102391D02*Y102111D01*
X88510D01*
Y102391D01*
X86986D01*
G37*
G36*
X85618Y105283D02*X85338D01*
Y103759D01*
X85618D01*
Y105283D01*
G37*
G36*
X85118D02*X84838D01*
Y103759D01*
X85118D01*
Y105283D01*
G37*
G36*
X84618D02*X84338D01*
Y103759D01*
X84618D01*
Y105283D01*
G37*
G36*
X84118D02*X83838D01*
Y103759D01*
X84118D01*
Y105283D01*
G37*
G36*
X83618D02*X83338D01*
Y103759D01*
X83618D01*
Y105283D01*
G37*
G36*
X83118D02*X82838D01*
Y103759D01*
X83118D01*
Y105283D01*
G37*
G36*
X85538Y107181D02*Y105881D01*
X87038D01*
Y107181D01*
X85538D01*
G37*
G36*
X81474D02*Y105881D01*
X82974D01*
Y107181D01*
X81474D01*
G37*
G36*
X85538Y108981D02*Y107681D01*
X87038D01*
Y108981D01*
X85538D01*
G37*
G36*
X81474D02*Y107681D01*
X82974D01*
Y108981D01*
X81474D01*
G37*
G36*
X82618Y105283D02*X82338D01*
Y103759D01*
X82618D01*
Y105283D01*
G37*
G36*
X82118D02*X81838D01*
Y103759D01*
X82118D01*
Y105283D01*
G37*
G36*
X81618D02*X81338D01*
Y103759D01*
X81618D01*
Y105283D01*
G37*
G36*
X81118D02*X80838D01*
Y103759D01*
X81118D01*
Y105283D01*
G37*
G36*
X80618D02*X80338D01*
Y103759D01*
X80618D01*
Y105283D01*
G37*
G36*
X80118D02*X79838D01*
Y103759D01*
X80118D01*
Y105283D01*
G37*
G36*
X79618D02*X79338D01*
Y103759D01*
X79618D01*
Y105283D01*
G37*
G36*
X79118D02*X78838D01*
Y103759D01*
X79118D01*
Y105283D01*
G37*
G36*
X78618D02*X78338D01*
Y103759D01*
X78618D01*
Y105283D01*
G37*
G36*
X78118D02*X77838D01*
Y103759D01*
X78118D01*
Y105283D01*
G37*
G36*
X77618D02*X77338D01*
Y103759D01*
X77618D01*
Y105283D01*
G37*
G36*
X77118D02*X76838D01*
Y103759D01*
X77118D01*
Y105283D01*
G37*
G36*
X76618D02*X76338D01*
Y103759D01*
X76618D01*
Y105283D01*
G37*
G36*
X76118D02*X75838D01*
Y103759D01*
X76118D01*
Y105283D01*
G37*
G36*
X75618D02*X75338D01*
Y103759D01*
X75618D01*
Y105283D01*
G37*
G36*
X75118D02*X74838D01*
Y103759D01*
X75118D01*
Y105283D01*
G37*
G36*
X74618D02*X74338D01*
Y103759D01*
X74618D01*
Y105283D01*
G37*
G36*
X74118D02*X73838D01*
Y103759D01*
X74118D01*
Y105283D01*
G37*
G36*
X73618D02*X73338D01*
Y103759D01*
X73618D01*
Y105283D01*
G37*
G36*
X70446Y102391D02*Y102111D01*
X71970D01*
Y102391D01*
X70446D01*
G37*
G36*
Y101891D02*Y101611D01*
X71970D01*
Y101891D01*
X70446D01*
G37*
G36*
Y101391D02*Y101111D01*
X71970D01*
Y101391D01*
X70446D01*
G37*
G36*
Y100891D02*Y100611D01*
X71970D01*
Y100891D01*
X70446D01*
G37*
G36*
Y100391D02*Y100111D01*
X71970D01*
Y100391D01*
X70446D01*
G37*
G36*
Y99891D02*Y99611D01*
X71970D01*
Y99891D01*
X70446D01*
G37*
G36*
Y99391D02*Y99111D01*
X71970D01*
Y99391D01*
X70446D01*
G37*
G36*
Y98891D02*Y98611D01*
X71970D01*
Y98891D01*
X70446D01*
G37*
G36*
Y98391D02*Y98111D01*
X71970D01*
Y98391D01*
X70446D01*
G37*
G36*
Y97891D02*Y97611D01*
X71970D01*
Y97891D01*
X70446D01*
G37*
G36*
Y97391D02*Y97111D01*
X71970D01*
Y97391D01*
X70446D01*
G37*
G36*
X87239Y76112D02*X86959D01*
Y74969D01*
X87239D01*
Y76112D01*
G37*
G36*
X86738D02*X86459D01*
Y74969D01*
X86738D01*
Y76112D01*
G37*
G36*
X86239D02*X85959D01*
Y74969D01*
X86239D01*
Y76112D01*
G37*
G36*
X84079Y74232D02*Y73952D01*
X85222D01*
Y74232D01*
X84079D01*
G37*
G36*
Y73732D02*Y73452D01*
X85222D01*
Y73732D01*
X84079D01*
G37*
G36*
Y73232D02*Y72952D01*
X85222D01*
Y73232D01*
X84079D01*
G37*
G36*
Y72732D02*Y72452D01*
X85222D01*
Y72732D01*
X84079D01*
G37*
G36*
Y72232D02*Y71952D01*
X85222D01*
Y72232D01*
X84079D01*
G37*
G36*
Y71732D02*Y71452D01*
X85222D01*
Y71732D01*
X84079D01*
G37*
G36*
Y71232D02*Y70952D01*
X85222D01*
Y71232D01*
X84079D01*
G37*
G36*
Y70732D02*Y70452D01*
X85222D01*
Y70732D01*
X84079D01*
G37*
G36*
Y70232D02*Y69952D01*
X85222D01*
Y70232D01*
X84079D01*
G37*
G36*
Y69732D02*Y69452D01*
X85222D01*
Y69732D01*
X84079D01*
G37*
G36*
Y69232D02*Y68952D01*
X85222D01*
Y69232D01*
X84079D01*
G37*
G36*
Y68732D02*Y68452D01*
X85222D01*
Y68732D01*
X84079D01*
G37*
G36*
X86197Y53379D02*X84897D01*
Y51879D01*
X86197D01*
Y53379D01*
G37*
G36*
X81411Y52331D02*X80111D01*
Y50831D01*
X81411D01*
Y52331D01*
G37*
G36*
X79611D02*X78311D01*
Y50831D01*
X79611D01*
Y52331D01*
G37*
G36*
X87117Y44749D02*X86517D01*
Y42549D01*
X87117D01*
Y44749D01*
G37*
G36*
X91147Y44621D02*Y43321D01*
X92647D01*
Y44621D01*
X91147D01*
G37*
G36*
X85847Y44749D02*X85247D01*
Y42549D01*
X85847D01*
Y44749D01*
G37*
G36*
Y48649D02*X85247D01*
Y46449D01*
X85847D01*
Y48649D01*
G37*
G36*
X84577Y44749D02*X83977D01*
Y42549D01*
X84577D01*
Y44749D01*
G37*
G36*
Y48649D02*X83977D01*
Y46449D01*
X84577D01*
Y48649D01*
G37*
G36*
X83307D02*X82707D01*
Y46449D01*
X83307D01*
Y48649D01*
G37*
G36*
X82037D02*X81437D01*
Y46449D01*
X82037D01*
Y48649D01*
G37*
G36*
X83307Y44749D02*X82707D01*
Y42549D01*
X83307D01*
Y44749D01*
G37*
G36*
X82037D02*X81437D01*
Y42549D01*
X82037D01*
Y44749D01*
G37*
G54D11*X70016Y89251D03*
X64604Y96251D03*
X65852Y89473D03*
G54D19*X69176Y91251D03*
G54D11*X69684Y96251D03*
G54D20*X50134Y92195D03*
X51932Y86760D03*
X56252Y89909D03*
G54D11*X75478Y90521D03*
X72986Y97775D03*
Y95997D03*
G54D20*X49126Y97804D03*
G54D11*X57754Y81019D03*
X72430Y83409D03*
G54D20*X65628Y69208D03*
X68569Y63519D03*
X74919Y59963D03*
G54D11*X68917Y68362D03*
G54D20*X53964Y66440D03*
X56187Y48733D03*
X65013Y64027D03*
G54D11*X62567Y53884D03*
X59519D03*
G54D20*X63687Y47933D03*
G54D11*X46702Y67347D03*
X67682Y111565D03*
X65142D03*
X62854Y110509D03*
X62600Y108477D03*
X59046Y110483D03*
X70222Y111565D03*
X75302D03*
X72762D03*
X61586Y107181D03*
X67144Y100823D03*
X80700Y108331D03*
X72916Y106341D03*
X87812Y108331D03*
G54D20*X85018Y102743D03*
G54D11*X83400Y102601D03*
X86702Y104379D03*
X77842Y111565D03*
X76478Y102997D03*
X79978D03*
X80382Y111565D03*
X82922D03*
X85462D03*
X88002D03*
X93334Y111271D03*
X94344Y94941D03*
X97376Y99333D03*
G54D20*X93312Y103397D03*
G54D11*X95776Y100245D03*
X89526Y88451D03*
X89780Y96251D03*
X89526Y90251D03*
X99766Y93133D03*
X91050Y111245D03*
X83430Y75431D03*
X83478Y89759D03*
X86224Y92751D03*
Y99251D03*
G54D20*X82478Y97551D03*
G54D11*X80374Y98751D03*
X93336Y64509D03*
X88075Y61534D03*
X87684Y68527D03*
X86829Y73494D03*
X85051Y76542D03*
X86732Y72129D03*
X89716Y73861D03*
X87176Y79703D03*
G54D19*X89599Y64858D03*
G54D11*X86337Y64858D03*
Y61810D03*
X84559Y64350D03*
X86337Y60032D03*
X85547Y50343D03*
X83769Y50089D03*
X99940Y79749D03*
X98635Y73870D03*
X100413Y66758D03*
X89999Y71076D03*
X99517Y53391D03*
Y50089D03*
X97485Y53391D03*
X95961Y58752D03*
X95622Y64509D03*
X100787Y48565D03*
G54D19*X95333Y72092D03*
G54D11*X91748Y71067D03*
X93272Y80973D03*
X93590Y42919D03*
X90119Y47295D03*
Y43993D03*
X88341Y44247D03*
G54D21*G54D22*G54D21*G54D22*G54D21*G54D22*G54D21*G54D22*G54D23*G54D22*G54D21*G54D22*G54D21*G54D22*G54D21*G54D22*G54D21*G54D22*G54D21*G54D24*G54D22*G54D24*G54D25*G54D24*G54D26*M02*
