G04 start of page 9 for group -4079 idx -4079 *
G04 Title: (unknown), topsilk *
G04 Creator: pcb 1.99z *
G04 CreationDate: Tue 16 Sep 2014 08:23:19 PM GMT UTC *
G04 For: p *
G04 Format: Gerber/RS-274X *
G04 PCB-Dimensions (mil): 6000.00 5000.00 *
G04 PCB-Coordinate-Origin: lower left *
%MOIN*%
%FSLAX25Y25*%
%LNTOPSILK*%
%ADD94C,0.0100*%
%ADD93C,0.0001*%
G54D93*G36*
X318898Y247899D02*X321475D01*
X321558Y247867D01*
X321606Y247791D01*
X321654Y247552D01*
X321698Y247330D01*
X322089Y245198D01*
X322136Y245110D01*
X322219Y245052D01*
X322322Y245008D01*
X323112Y244737D01*
X323862Y244379D01*
X323869D01*
X323956Y244341D01*
X324052Y244327D01*
X324150Y244358D01*
X325923Y245577D01*
X326115Y245702D01*
X326315Y245838D01*
X326402Y245863D01*
X326483Y245827D01*
X326815Y245497D01*
X327319Y244997D01*
X327476Y244834D01*
X327975Y244336D01*
X328137Y244179D01*
X328306Y244005D01*
X328344Y243920D01*
X328322Y243831D01*
X328186Y243630D01*
X328057Y243440D01*
X326869Y241704D01*
X326836Y241612D01*
X326852Y241515D01*
X326896Y241416D01*
X327580Y239810D01*
X327617Y239719D01*
X327680Y239641D01*
X327769Y239594D01*
X329808Y239213D01*
X330032Y239170D01*
X330275Y239127D01*
X330350Y239080D01*
X330380Y238997D01*
Y236420D01*
X330350Y236331D01*
X330275Y236284D01*
X330032Y236241D01*
X329808Y236198D01*
X327830Y235829D01*
X327741Y235781D01*
X327687Y235698D01*
X327659Y235638D01*
Y235627D01*
X326944Y233854D01*
X326939Y233842D01*
X326922Y233799D01*
X326906Y233698D01*
X326933Y233604D01*
X328062Y231972D01*
X328186Y231781D01*
X328328Y231580D01*
X328346Y231494D01*
X328306Y231412D01*
X328137Y231233D01*
X327975Y231076D01*
X326657Y229758D01*
X326483Y229590D01*
X326402Y229549D01*
X326315Y229567D01*
X326115Y229709D01*
X325923Y229833D01*
X324330Y230930D01*
X324230Y230959D01*
X324133Y230940D01*
X323802Y230756D01*
X323608Y230647D01*
X323261Y230469D01*
X323176Y230463D01*
X323115Y230523D01*
X322969Y230880D01*
X322880Y231087D01*
X321497Y234445D01*
X321409Y234651D01*
X321312Y234884D01*
X321308Y234979D01*
X321361Y235052D01*
X321584Y235183D01*
X321725Y235291D01*
X322261Y235737D01*
X322676Y236301D01*
X322943Y236960D01*
X323037Y237690D01*
X322980Y238265D01*
X322815Y238799D01*
X322552Y239284D01*
X322202Y239706D01*
X321782Y240055D01*
X321298Y240319D01*
X320765Y240484D01*
X320190Y240542D01*
X319615Y240484D01*
X319080Y240319D01*
X318597Y240055D01*
X318175Y239706D01*
X317828Y239284D01*
X317565Y238799D01*
X317400Y238265D01*
X317341Y237690D01*
X317434Y236960D01*
X317702Y236301D01*
X318115Y235737D01*
X318654Y235291D01*
X318790Y235183D01*
X319012Y235052D01*
X319067Y234979D01*
X319061Y234884D01*
X318965Y234651D01*
X318876Y234445D01*
X317493Y231087D01*
X317407Y230880D01*
X317259Y230523D01*
X317198Y230463D01*
X317115Y230469D01*
X316772Y230647D01*
X316571Y230756D01*
X316240Y230940D01*
X316141Y230959D01*
X316044Y230930D01*
X314450Y229833D01*
X314265Y229709D01*
X314059Y229567D01*
X313972Y229549D01*
X313890Y229590D01*
X313717Y229758D01*
X313559Y229920D01*
X313061Y230419D01*
X312898Y230577D01*
X312398Y231076D01*
X312236Y231233D01*
X312069Y231412D01*
X312030Y231494D01*
X312052Y231580D01*
X312187Y231781D01*
X312319Y231972D01*
X313440Y233604D01*
X313469Y233698D01*
X313452Y233799D01*
X313430Y233859D01*
X312719Y235633D01*
X312686Y235698D01*
X312632Y235781D01*
X312546Y235829D01*
X310565Y236198D01*
X310343Y236241D01*
X310104Y236284D01*
X310025Y236334D01*
X309996Y236420D01*
Y238997D01*
X310025Y239080D01*
X310104Y239127D01*
X310343Y239176D01*
X310565Y239213D01*
X312606Y239594D01*
X312694Y239641D01*
X312757Y239724D01*
X312794Y239810D01*
X313483Y241416D01*
X313522Y241515D01*
X313539Y241612D01*
X313511Y241704D01*
X312319Y243445D01*
X312187Y243630D01*
X312052Y243831D01*
X312030Y243920D01*
X312069Y244005D01*
X312236Y244179D01*
X312398Y244336D01*
X313890Y245827D01*
X313972Y245863D01*
X314059Y245844D01*
X314265Y245708D01*
X314450Y245577D01*
X316223Y244358D01*
X316321Y244329D01*
X316419Y244347D01*
X316506Y244379D01*
X316517Y244384D01*
X317262Y244738D01*
X318052Y245013D01*
X318156Y245052D01*
X318239Y245110D01*
X318284Y245198D01*
X318682Y247330D01*
X318719Y247552D01*
X318769Y247791D01*
X318815Y247867D01*
X318898Y247899D01*
G37*
G54D94*X400145Y210079D02*X400645Y210579D01*
X401645D01*
X402145Y210079D01*
X401645Y206579D02*X402145Y207079D01*
X400645Y206579D02*X401645D01*
X400145Y207079D02*X400645Y206579D01*
Y208779D02*X401645D01*
X402145Y210079D02*Y209279D01*
Y208279D02*Y207079D01*
Y208279D02*X401645Y208779D01*
X402145Y209279D02*X401645Y208779D01*
X403345Y210579D02*X404345Y206579D01*
X405345Y210579D01*
X406545Y210079D02*X407045Y210579D01*
X408045D01*
X408545Y210079D01*
X408045Y206579D02*X408545Y207079D01*
X407045Y206579D02*X408045D01*
X406545Y207079D02*X407045Y206579D01*
Y208779D02*X408045D01*
X408545Y210079D02*Y209279D01*
Y208279D02*Y207079D01*
Y208279D02*X408045Y208779D01*
X408545Y209279D02*X408045Y208779D01*
X401145Y200579D02*X401645Y200079D01*
X399645Y200579D02*X401145D01*
X399145Y200079D02*X399645Y200579D01*
X399145Y200079D02*Y197079D01*
X399645Y196579D01*
X401145D01*
X401645Y197079D01*
Y198079D02*Y197079D01*
X401145Y198579D02*X401645Y198079D01*
X400145Y198579D02*X401145D01*
X402845Y200579D02*Y196579D01*
Y200579D02*X405345Y196579D01*
Y200579D02*Y196579D01*
X407045Y200579D02*Y196579D01*
X408345Y200579D02*X409045Y199879D01*
Y197279D01*
X408345Y196579D02*X409045Y197279D01*
X406545Y196579D02*X408345D01*
X406545Y200579D02*X408345D01*
X399145Y190579D02*X401145D01*
X401645Y190079D01*
Y189079D01*
X401145Y188579D02*X401645Y189079D01*
X399645Y188579D02*X401145D01*
X399645Y190579D02*Y186579D01*
X400445Y188579D02*X401645Y186579D01*
X402845D02*X405345Y190579D01*
X402845D02*X405345Y186579D01*
X407045Y190579D02*Y186579D01*
X408345Y190579D02*X409045Y189879D01*
Y187279D01*
X408345Y186579D02*X409045Y187279D01*
X406545Y186579D02*X408345D01*
X406545Y190579D02*X408345D01*
X392298Y161200D02*Y157200D01*
X391798Y161200D02*X393798D01*
X394298Y160700D01*
Y159700D01*
X393798Y159200D02*X394298Y159700D01*
X392298Y159200D02*X393798D01*
X395498Y161200D02*X396498D01*
X395998D02*Y157200D01*
X395498D02*X396498D01*
X397698Y160700D02*Y157700D01*
Y160700D02*X398198Y161200D01*
X399198D01*
X399698Y160700D01*
Y157700D01*
X399198Y157200D02*X399698Y157700D01*
X398198Y157200D02*X399198D01*
X397698Y157700D02*X398198Y157200D01*
X400898Y157700D02*X401398Y157200D01*
X400898Y160700D02*Y157700D01*
Y160700D02*X401398Y161200D01*
X402398D01*
X402898Y160700D01*
Y157700D01*
X402398Y157200D02*X402898Y157700D01*
X401398Y157200D02*X402398D01*
X400898Y158200D02*X402898Y160200D01*
X404098Y157200D02*X406098D01*
X407298Y160400D02*X408098Y161200D01*
Y157200D01*
X407298D02*X408798D01*
X399463Y170973D02*X401463D01*
X401963Y170473D01*
Y169473D01*
X401463Y168973D02*X401963Y169473D01*
X399963Y168973D02*X401463D01*
X399963Y170973D02*Y166973D01*
X400763Y168973D02*X401963Y166973D01*
X405163Y170973D02*X405663Y170473D01*
X403663Y170973D02*X405163D01*
X403163Y170473D02*X403663Y170973D01*
X403163Y170473D02*Y169473D01*
X403663Y168973D01*
X405163D01*
X405663Y168473D01*
Y167473D01*
X405163Y166973D02*X405663Y167473D01*
X403663Y166973D02*X405163D01*
X403163Y167473D02*X403663Y166973D01*
X406863Y170973D02*X408863D01*
X407863D02*Y166973D01*
X399145Y180579D02*X401145D01*
X400145D02*Y176579D01*
X402345D02*X404845Y180579D01*
X402345D02*X404845Y176579D01*
X406545Y180579D02*Y176579D01*
X407845Y180579D02*X408545Y179879D01*
Y177279D01*
X407845Y176579D02*X408545Y177279D01*
X406045Y176579D02*X407845D01*
X406045Y180579D02*X407845D01*
X299956Y219952D02*Y216292D01*
Y219952D02*X300810Y221172D01*
X302152D01*
X303006Y219952D01*
Y216292D01*
X299956Y218732D02*X303006D01*
X305080Y221172D02*Y216902D01*
X305690Y216292D01*
X304470Y219342D02*X305690D01*
X308740Y218732D02*X309350Y218122D01*
X307520Y218732D02*X308740D01*
X306910Y218122D02*X307520Y218732D01*
X306910Y218122D02*Y216902D01*
X307520Y216292D01*
X309350Y218732D02*Y216902D01*
X309960Y216292D01*
X307520D02*X308740D01*
X309350Y216902D01*
X312034Y218122D02*Y216292D01*
Y218122D02*X312644Y218732D01*
X313864D01*
X311424D02*X312034Y218122D01*
X315328Y219952D02*Y219830D01*
Y218122D02*Y216292D01*
X318744D02*X321794Y221172D01*
X318744D02*X321794Y216292D01*
X323258Y221172D02*Y216292D01*
X325698D01*
X327162Y216902D02*X330822Y220562D01*
X332286Y216292D02*X335336Y221172D01*
X332286D02*X335336Y216292D01*
X336800Y218976D02*X338630D01*
X336800Y216292D02*X339240D01*
X336800Y221172D02*Y216292D01*
Y221172D02*X339240D01*
X345340D02*X345950Y220562D01*
X343510Y221172D02*X345340D01*
X342900Y220562D02*X343510Y221172D01*
X342900Y220562D02*Y219342D01*
X343510Y218732D01*
X345340D01*
X345950Y218122D01*
Y216902D01*
X345340Y216292D02*X345950Y216902D01*
X343510Y216292D02*X345340D01*
X342900Y216902D02*X343510Y216292D01*
X348024Y221172D02*Y216292D01*
X349610Y221172D02*X350464Y220318D01*
Y217146D01*
X349610Y216292D02*X350464Y217146D01*
X347414Y216292D02*X349610D01*
X347414Y221172D02*X349610D01*
X354978Y216292D02*X356564D01*
X354124Y217146D02*X354978Y216292D01*
X354124Y220318D02*Y217146D01*
Y220318D02*X354978Y221172D01*
X356564D01*
X359858Y218732D02*X360468Y218122D01*
X358638Y218732D02*X359858D01*
X358028Y218122D02*X358638Y218732D01*
X358028Y218122D02*Y216902D01*
X358638Y216292D01*
X360468Y218732D02*Y216902D01*
X361078Y216292D01*
X358638D02*X359858D01*
X360468Y216902D01*
X363152Y218122D02*Y216292D01*
Y218122D02*X363762Y218732D01*
X364982D01*
X362542D02*X363152Y218122D01*
X367056Y221172D02*Y216902D01*
X367666Y216292D01*
X366446Y219342D02*X367666D01*
X369496Y218122D02*Y216292D01*
Y218122D02*X370106Y218732D01*
X371326D01*
X368886D02*X369496Y218122D01*
X372790Y219952D02*Y219830D01*
Y218122D02*Y216292D01*
X376450Y221172D02*Y216292D01*
X375840D02*X376450Y216902D01*
X374620Y216292D02*X375840D01*
X374010Y216902D02*X374620Y216292D01*
X374010Y218122D02*Y216902D01*
Y218122D02*X374620Y218732D01*
X375840D01*
X376450Y218122D01*
X379744Y218732D02*X380354Y218122D01*
X378524Y218732D02*X379744D01*
X377914Y218122D02*X378524Y218732D01*
X377914Y218122D02*Y216902D01*
X378524Y216292D01*
X379744D01*
X380354Y216902D01*
X377914Y215072D02*X378524Y214462D01*
X379744D01*
X380354Y215072D01*
Y218732D02*Y215072D01*
X382428Y216292D02*X384258D01*
X381818Y216902D02*X382428Y216292D01*
X381818Y218122D02*Y216902D01*
Y218122D02*X382428Y218732D01*
X383648D01*
X384258Y218122D01*
X381818Y217512D02*X384258D01*
Y218122D02*Y217512D01*
X355955Y203671D02*Y201841D01*
Y203671D02*X356565Y204281D01*
X357785D01*
X355345D02*X355955Y203671D01*
X359859Y201841D02*X361689D01*
X359249Y202451D02*X359859Y201841D01*
X359249Y203671D02*Y202451D01*
Y203671D02*X359859Y204281D01*
X361079D01*
X361689Y203671D01*
X359249Y203061D02*X361689D01*
Y203671D02*Y203061D01*
X363153Y204281D02*X364373Y201841D01*
X365593Y204281D02*X364373Y201841D01*
X367057D02*X367667D01*
X369131Y205745D02*X370107Y206721D01*
Y201841D01*
X369131D02*X370961D01*
X372425D02*X373035D01*
X374499Y206111D02*X375109Y206721D01*
X376329D01*
X376939Y206111D01*
X376329Y201841D02*X376939Y202451D01*
X375109Y201841D02*X376329D01*
X374499Y202451D02*X375109Y201841D01*
Y204525D02*X376329D01*
X376939Y206111D02*Y205135D01*
Y203915D02*Y202451D01*
Y203915D02*X376329Y204525D01*
X376939Y205135D02*X376329Y204525D01*
X275327Y272142D02*X275827Y272642D01*
X275327Y272142D02*Y270642D01*
X275827Y270142D02*X275327Y270642D01*
X275827Y270142D02*X278827D01*
X279327Y270642D01*
Y272142D02*Y270642D01*
Y272142D02*X278827Y272642D01*
X277827D02*X278827D01*
X277327Y272142D02*X277827Y272642D01*
X277327Y272142D02*Y271142D01*
X275327Y273842D02*X279327D01*
X275327D02*X279327Y276342D01*
X275327D02*X279327D01*
X275327Y278042D02*X279327D01*
X275327Y279342D02*X276027Y280042D01*
X278627D01*
X279327Y279342D02*X278627Y280042D01*
X279327Y279342D02*Y277542D01*
X275327Y279342D02*Y277542D01*
X309327Y273142D02*Y271842D01*
X308627Y271142D02*X309327Y271842D01*
X306027Y271142D02*X308627D01*
X306027D02*X305327Y271842D01*
Y273142D02*Y271842D01*
Y276342D02*X305827Y276842D01*
X305327Y276342D02*Y274842D01*
X305827Y274342D02*X305327Y274842D01*
X305827Y274342D02*X306827D01*
X307327Y274842D01*
Y276342D02*Y274842D01*
Y276342D02*X307827Y276842D01*
X308827D01*
X309327Y276342D02*X308827Y276842D01*
X309327Y276342D02*Y274842D01*
X308827Y274342D02*X309327Y274842D01*
X285463Y270878D02*X289463D01*
X285463D02*X287463Y272378D01*
X285463Y273878D01*
X289463D01*
X285463Y276078D02*Y275078D01*
Y275578D02*X289463D01*
Y276078D02*Y275078D01*
X285463Y279278D02*X285963Y279778D01*
X285463Y279278D02*Y277778D01*
X285963Y277278D02*X285463Y277778D01*
X285963Y277278D02*X286963D01*
X287463Y277778D01*
Y279278D02*Y277778D01*
Y279278D02*X287963Y279778D01*
X288963D01*
X289463Y279278D02*X288963Y279778D01*
X289463Y279278D02*Y277778D01*
X288963Y277278D02*X289463Y277778D01*
X285963Y280978D02*X288963D01*
X285963D02*X285463Y281478D01*
Y282478D02*Y281478D01*
Y282478D02*X285963Y282978D01*
X288963D01*
X289463Y282478D02*X288963Y282978D01*
X289463Y282478D02*Y281478D01*
X288963Y280978D02*X289463Y281478D01*
X295463Y270878D02*X299463D01*
X295463D02*X297463Y272378D01*
X295463Y273878D01*
X299463D01*
X295963Y275078D02*X298963D01*
X295963D02*X295463Y275578D01*
Y276578D02*Y275578D01*
Y276578D02*X295963Y277078D01*
X298963D01*
X299463Y276578D02*X298963Y277078D01*
X299463Y276578D02*Y275578D01*
X298963Y275078D02*X299463Y275578D01*
X295463Y280278D02*X295963Y280778D01*
X295463Y280278D02*Y278778D01*
X295963Y278278D02*X295463Y278778D01*
X295963Y278278D02*X296963D01*
X297463Y278778D01*
Y280278D02*Y278778D01*
Y280278D02*X297963Y280778D01*
X298963D01*
X299463Y280278D02*X298963Y280778D01*
X299463Y280278D02*Y278778D01*
X298963Y278278D02*X299463Y278778D01*
X295463Y282978D02*Y281978D01*
Y282478D02*X299463D01*
Y282978D02*Y281978D01*
X315463Y272878D02*X315963Y273378D01*
X315463Y272878D02*Y271378D01*
X315963Y270878D02*X315463Y271378D01*
X315963Y270878D02*X316963D01*
X317463Y271378D01*
Y272878D02*Y271378D01*
Y272878D02*X317963Y273378D01*
X318963D01*
X319463Y272878D02*X318963Y273378D01*
X319463Y272878D02*Y271378D01*
X318963Y270878D02*X319463Y271378D01*
Y276578D02*Y275278D01*
X318763Y274578D02*X319463Y275278D01*
X316163Y274578D02*X318763D01*
X316163D02*X315463Y275278D01*
Y276578D02*Y275278D01*
Y277778D02*X319463D01*
X317463D02*X315463Y279778D01*
X317463Y277778D02*X319463Y279778D01*
X231599Y406626D02*X232099Y406126D01*
X230099Y406626D02*X231599D01*
X229599Y406126D02*X230099Y406626D01*
X229599Y406126D02*Y403126D01*
X230099Y402626D01*
X231599D01*
X232099Y403126D01*
Y404126D02*Y403126D01*
X231599Y404626D02*X232099Y404126D01*
X230599Y404626D02*X231599D01*
X233299Y406626D02*Y402626D01*
Y406626D02*X235799Y402626D01*
Y406626D02*Y402626D01*
X237499Y406626D02*Y402626D01*
X238799Y406626D02*X239499Y405926D01*
Y403326D01*
X238799Y402626D02*X239499Y403326D01*
X236999Y402626D02*X238799D01*
X236999Y406626D02*X238799D01*
X229206Y415020D02*X231206D01*
X230206Y416020D02*Y414020D01*
X232406Y417020D02*X234406D01*
X232406D02*Y415020D01*
X232906Y415520D01*
X233906D01*
X234406Y415020D01*
Y413520D01*
X233906Y413020D02*X234406Y413520D01*
X232906Y413020D02*X233906D01*
X232406Y413520D02*X232906Y413020D01*
X237406Y417020D02*X238406Y413020D01*
X239406Y417020D01*
X402463Y412473D02*X402963Y412973D01*
X403963D01*
X404463Y412473D01*
X403963Y408973D02*X404463Y409473D01*
X402963Y408973D02*X403963D01*
X402463Y409473D02*X402963Y408973D01*
Y411173D02*X403963D01*
X404463Y412473D02*Y411673D01*
Y410673D02*Y409473D01*
Y410673D02*X403963Y411173D01*
X404463Y411673D02*X403963Y411173D01*
X405663Y412973D02*X406663Y408973D01*
X407663Y412973D01*
X408863Y412473D02*X409363Y412973D01*
X410363D01*
X410863Y412473D01*
X410363Y408973D02*X410863Y409473D01*
X409363Y408973D02*X410363D01*
X408863Y409473D02*X409363Y408973D01*
Y411173D02*X410363D01*
X410863Y412473D02*Y411673D01*
Y410673D02*Y409473D01*
Y410673D02*X410363Y411173D01*
X410863Y411673D02*X410363Y411173D01*
X403463Y402973D02*X403963Y402473D01*
X401963Y402973D02*X403463D01*
X401463Y402473D02*X401963Y402973D01*
X401463Y402473D02*Y399473D01*
X401963Y398973D01*
X403463D01*
X403963Y399473D01*
Y400473D02*Y399473D01*
X403463Y400973D02*X403963Y400473D01*
X402463Y400973D02*X403463D01*
X405163Y402973D02*Y398973D01*
Y402973D02*X407663Y398973D01*
Y402973D02*Y398973D01*
X409363Y402973D02*Y398973D01*
X410663Y402973D02*X411363Y402273D01*
Y399673D01*
X410663Y398973D02*X411363Y399673D01*
X408863Y398973D02*X410663D01*
X408863Y402973D02*X410663D01*
X402463Y392973D02*X404463D01*
X403463D02*Y388973D01*
X406363D02*X407663D01*
X405663Y389673D02*X406363Y388973D01*
X405663Y392273D02*Y389673D01*
Y392273D02*X406363Y392973D01*
X407663D01*
X408863D02*Y388973D01*
Y390973D02*X410863Y392973D01*
X408863Y390973D02*X410863Y388973D01*
X401463Y382973D02*X403463D01*
X402463D02*Y378973D01*
X405163Y382973D02*Y378973D01*
X406463Y382973D02*X407163Y382273D01*
Y379673D01*
X406463Y378973D02*X407163Y379673D01*
X404663Y378973D02*X406463D01*
X404663Y382973D02*X406463D01*
X408363Y382473D02*Y379473D01*
Y382473D02*X408863Y382973D01*
X409863D01*
X410363Y382473D01*
Y379473D01*
X409863Y378973D02*X410363Y379473D01*
X408863Y378973D02*X409863D01*
X408363Y379473D02*X408863Y378973D01*
X402463Y372973D02*X404463D01*
X403463D02*Y368973D01*
X406163Y372973D02*Y368973D01*
X407463Y372973D02*X408163Y372273D01*
Y369673D01*
X407463Y368973D02*X408163Y369673D01*
X405663Y368973D02*X407463D01*
X405663Y372973D02*X407463D01*
X409363D02*X410363D01*
X409863D02*Y368973D01*
X409363D02*X410363D01*
X401463Y362973D02*X403463D01*
X402463D02*Y358973D01*
X404663Y362973D02*Y358973D01*
Y362973D02*X406163Y360973D01*
X407663Y362973D01*
Y358973D01*
X410863Y362973D02*X411363Y362473D01*
X409363Y362973D02*X410863D01*
X408863Y362473D02*X409363Y362973D01*
X408863Y362473D02*Y361473D01*
X409363Y360973D01*
X410863D01*
X411363Y360473D01*
Y359473D01*
X410863Y358973D02*X411363Y359473D01*
X409363Y358973D02*X410863D01*
X408863Y359473D02*X409363Y358973D01*
X397963Y345878D02*Y341878D01*
X399263Y345878D02*X399963Y345178D01*
Y342578D01*
X399263Y341878D02*X399963Y342578D01*
X397463Y341878D02*X399263D01*
X397463Y345878D02*X399263D01*
X401163Y341878D02*X403163D01*
X403663Y342378D01*
Y343578D02*Y342378D01*
X403163Y344078D02*X403663Y343578D01*
X401663Y344078D02*X403163D01*
X401663Y345878D02*Y341878D01*
X401163Y345878D02*X403163D01*
X403663Y345378D01*
Y344578D01*
X403163Y344078D02*X403663Y344578D01*
X406863Y345878D02*X407363Y345378D01*
X405363Y345878D02*X406863D01*
X404863Y345378D02*X405363Y345878D01*
X404863Y345378D02*Y342378D01*
X405363Y341878D01*
X406863D01*
X407363Y342378D01*
Y343378D02*Y342378D01*
X406863Y343878D02*X407363Y343378D01*
X405863Y343878D02*X406863D01*
X408563Y342378D02*X409063Y341878D01*
X408563Y345378D02*Y342378D01*
Y345378D02*X409063Y345878D01*
X410063D01*
X410563Y345378D01*
Y342378D01*
X410063Y341878D02*X410563Y342378D01*
X409063Y341878D02*X410063D01*
X408563Y342878D02*X410563Y344878D01*
X398963Y335878D02*Y331878D01*
X400263Y335878D02*X400963Y335178D01*
Y332578D01*
X400263Y331878D02*X400963Y332578D01*
X398463Y331878D02*X400263D01*
X398463Y335878D02*X400263D01*
X402163Y331878D02*X404163D01*
X404663Y332378D01*
Y333578D02*Y332378D01*
X404163Y334078D02*X404663Y333578D01*
X402663Y334078D02*X404163D01*
X402663Y335878D02*Y331878D01*
X402163Y335878D02*X404163D01*
X404663Y335378D01*
Y334578D01*
X404163Y334078D02*X404663Y334578D01*
X407863Y335878D02*X408363Y335378D01*
X406363Y335878D02*X407863D01*
X405863Y335378D02*X406363Y335878D01*
X405863Y335378D02*Y332378D01*
X406363Y331878D01*
X407863D01*
X408363Y332378D01*
Y333378D02*Y332378D01*
X407863Y333878D02*X408363Y333378D01*
X406863Y333878D02*X407863D01*
X409563Y335078D02*X410363Y335878D01*
Y331878D01*
X409563D02*X411063D01*
X402463Y305878D02*X402963Y305378D01*
X400963Y305878D02*X402463D01*
X400463Y305378D02*X400963Y305878D01*
X400463Y305378D02*Y302378D01*
X400963Y301878D01*
X402463D01*
X402963Y302378D01*
Y303378D02*Y302378D01*
X402463Y303878D02*X402963Y303378D01*
X401463Y303878D02*X402463D01*
X404163Y305878D02*Y301878D01*
Y305878D02*X406663Y301878D01*
Y305878D02*Y301878D01*
X408363Y305878D02*Y301878D01*
X409663Y305878D02*X410363Y305178D01*
Y302578D01*
X409663Y301878D02*X410363Y302578D01*
X407863Y301878D02*X409663D01*
X407863Y305878D02*X409663D01*
X398463Y324878D02*Y321878D01*
Y324878D02*X399163Y325878D01*
X400263D01*
X400963Y324878D01*
Y321878D01*
X398463Y323878D02*X400963D01*
X402163Y325878D02*Y322378D01*
X402663Y321878D01*
X403663D01*
X404163Y322378D01*
Y325878D02*Y322378D01*
X405363Y321878D02*X407863Y325878D01*
X405363D02*X407863Y321878D01*
X409063Y322378D02*X409563Y321878D01*
X409063Y325378D02*Y322378D01*
Y325378D02*X409563Y325878D01*
X410563D01*
X411063Y325378D01*
Y322378D01*
X410563Y321878D02*X411063Y322378D01*
X409563Y321878D02*X410563D01*
X409063Y322878D02*X411063Y324878D01*
X398463Y314878D02*Y311878D01*
Y314878D02*X399163Y315878D01*
X400263D01*
X400963Y314878D01*
Y311878D01*
X398463Y313878D02*X400963D01*
X402163Y315878D02*Y312378D01*
X402663Y311878D01*
X403663D01*
X404163Y312378D01*
Y315878D02*Y312378D01*
X405363Y311878D02*X407863Y315878D01*
X405363D02*X407863Y311878D01*
X409063Y315078D02*X409863Y315878D01*
Y311878D01*
X409063D02*X410563D01*
X412463Y415973D02*Y355973D01*
X422463D01*
Y415973D01*
X412463D01*
Y405973D02*X422463D01*
Y415973D01*
X393520Y397319D02*X394306D01*
X393520Y402829D02*X394306D01*
X393520Y388319D02*X394306D01*
X393520Y393829D02*X394306D01*
X393520Y379319D02*X394306D01*
X393520Y384829D02*X394306D01*
X393442Y370218D02*X394228D01*
X393442Y375728D02*X394228D01*
X393520Y406319D02*X394306D01*
X393520Y411829D02*X394306D01*
X263409Y381696D02*X264195D01*
X263409Y376186D02*X264195D01*
X262409Y362011D02*X263195D01*
X262409Y356501D02*X263195D01*
X285745Y406100D02*Y354682D01*
Y406100D02*X340063D01*
Y351782D01*
X288645D02*X340063D01*
X288645D02*X285745Y354682D01*
X288645Y353682D02*G75*G03X288645Y353682I0J1000D01*G01*
X291220Y338137D02*X292006D01*
X291220Y332627D02*X292006D01*
X355708Y352169D02*Y351383D01*
X361218Y352169D02*Y351383D01*
X362581Y377029D02*X363367D01*
X362581Y382539D02*X363367D01*
X361613Y335478D02*X362399D01*
X361613Y340988D02*X362399D01*
X185377Y267473D02*X254377D01*
Y315973D02*Y267473D01*
X185377Y315973D02*X254377D01*
X185377Y289223D02*Y267473D01*
Y315973D02*Y294223D01*
Y289223D02*G75*G03X185377Y294223I0J2500D01*G01*
X362966Y318642D02*Y317856D01*
X357456Y318642D02*Y317856D01*
X272327Y258142D02*X322327D01*
Y268142D02*Y258142D01*
X272327Y268142D02*X322327D01*
X272327D02*Y258142D01*
X282327Y268142D02*Y258142D01*
X272327Y268142D02*X282327D01*
X217411Y420054D02*Y400054D01*
X227411D01*
Y420054D01*
X217411D01*
Y410054D02*X227411D01*
Y420054D01*
X336960Y423350D02*Y422564D01*
X342470Y423350D02*Y422564D01*
X320960Y423350D02*Y422564D01*
X326470Y423350D02*Y422564D01*
X182911Y412554D02*Y399554D01*
X207911D01*
Y412554D01*
X182911D01*
X183911D02*Y399554D01*
X202323Y397527D02*X235788D01*
X202323D02*Y371937D01*
X235788D01*
Y397527D02*Y371937D01*
X191496Y393590D02*X202323D01*
X191496Y375874D02*X202323D01*
X191166Y326904D02*Y326118D01*
X185656Y326904D02*Y326118D01*
X216877Y358473D02*Y345473D01*
X191877Y358473D02*X216877D01*
X191877D02*Y345473D01*
X216877D01*
X215877Y358473D02*Y345473D01*
X383390Y227429D02*Y226643D01*
X388900Y227429D02*Y226643D01*
X398082Y253677D02*Y252891D01*
X392572Y253677D02*Y252891D01*
X387082Y253078D02*Y252292D01*
X381572Y253078D02*Y252292D01*
X373572Y265078D02*Y264292D01*
X379082Y265078D02*Y264292D01*
X336419Y267495D02*X360277D01*
X336419Y294253D02*Y267495D01*
Y294253D02*X363177D01*
Y270395D01*
X360277Y267495D01*
X361277Y270395D02*G75*G03X361277Y270395I-1000J0D01*G01*
X349996Y246196D02*Y245410D01*
X355506Y246196D02*Y245410D01*
X384391Y281073D02*X385177D01*
X384391Y286583D02*X385177D01*
X392572Y272764D02*Y271978D01*
X398082Y272764D02*Y271978D01*
X412463Y348878D02*Y298878D01*
X422463D01*
Y348878D01*
X412463D01*
Y338878D02*X422463D01*
Y348878D01*
X401327Y284528D02*X406327D01*
X401327D02*Y234528D01*
X406327D01*
X416327D02*X421327D01*
Y284528D02*Y234528D01*
X416327Y284528D02*X421327D01*
X416327Y237028D02*G75*G03X418827Y239528I0J2500D01*G01*
X403827D02*G75*G03X406327Y237028I2500J0D01*G01*
Y282028D02*G75*G03X403827Y279528I0J-2500D01*G01*
X418827D02*G75*G03X416327Y282028I-2500J0D01*G01*
X187928Y256391D02*X188714D01*
X187928Y261901D02*X188714D01*
X216020Y249319D02*X216806D01*
X216020Y254829D02*X216806D01*
X226877Y258473D02*Y245473D01*
X251877D01*
Y258473D02*Y245473D01*
X226877Y258473D02*X251877D01*
X227877D02*Y245473D01*
X199162Y188890D02*Y151883D01*
X188925D02*X199162D01*
X188925Y161726D02*Y151883D01*
X199162Y188890D02*X235776D01*
Y186134D01*
X255264D01*
Y188890D02*Y186134D01*
Y188890D02*X265106D01*
Y191055D02*Y188890D01*
Y191055D02*X275539D01*
Y179245D01*
X285185D01*
Y151883D01*
X296011D01*
Y161529D02*Y151883D01*
Y176686D02*Y161529D01*
Y242827D02*Y176686D01*
X205264Y242827D02*X296011D01*
X188925D02*X205264D01*
X188925D02*Y237709D01*
Y176489D01*
Y161726D01*
X339948Y204445D02*X340734D01*
X339948Y209955D02*X340734D01*
X314020Y200319D02*X314806D01*
X314020Y205829D02*X314806D01*
X344160Y193106D02*Y166334D01*
X319357D02*X344160D01*
X319357Y193106D02*Y166334D01*
Y193106D02*X344160D01*
X342192Y193893D02*X344948Y196649D01*
X339436D02*X344948D01*
X339436D02*X342192Y193893D01*
X359043Y177050D02*Y176264D01*
X364553Y177050D02*Y176264D01*
X411463Y213973D02*Y153973D01*
X421463D01*
Y213973D01*
X411463D01*
Y203973D02*X421463D01*
Y213973D01*
X385553Y180050D02*Y179264D01*
X380043Y180050D02*Y179264D01*
X394553Y180050D02*Y179264D01*
X389043Y180050D02*Y179264D01*
X375043Y159593D02*Y158807D01*
X380553Y159593D02*Y158807D01*
X385043Y159593D02*Y158807D01*
X390553Y159593D02*Y158807D01*
X312005Y417660D02*X313305D01*
X311305Y418360D02*X312005Y417660D01*
X311305Y420960D02*Y418360D01*
Y420960D02*X312005Y421660D01*
X313305D01*
X314505Y420860D02*X315305Y421660D01*
Y417660D01*
X314505D02*X316005D01*
X317205Y421160D02*X317705Y421660D01*
X318705D01*
X319205Y421160D01*
X318705Y417660D02*X319205Y418160D01*
X317705Y417660D02*X318705D01*
X317205Y418160D02*X317705Y417660D01*
Y419860D02*X318705D01*
X319205Y421160D02*Y420360D01*
Y419360D02*Y418160D01*
Y419360D02*X318705Y419860D01*
X319205Y420360D02*X318705Y419860D01*
X301380Y205704D02*X303380D01*
X303880Y205204D01*
Y204204D01*
X303380Y203704D02*X303880Y204204D01*
X301880Y203704D02*X303380D01*
X301880Y205704D02*Y201704D01*
X302680Y203704D02*X303880Y201704D01*
X305080Y202204D02*X305580Y201704D01*
X305080Y203004D02*Y202204D01*
Y203004D02*X305780Y203704D01*
X306380D01*
X307080Y203004D01*
Y202204D01*
X306580Y201704D02*X307080Y202204D01*
X305580Y201704D02*X306580D01*
X305080Y204404D02*X305780Y203704D01*
X305080Y205204D02*Y204404D01*
Y205204D02*X305580Y205704D01*
X306580D01*
X307080Y205204D01*
Y204404D01*
X306380Y203704D02*X307080Y204404D01*
X378674Y404495D02*X380674D01*
X381174Y403995D01*
Y402995D01*
X380674Y402495D02*X381174Y402995D01*
X379174Y402495D02*X380674D01*
X379174Y404495D02*Y400495D01*
X379974Y402495D02*X381174Y400495D01*
X382374Y403695D02*X383174Y404495D01*
Y400495D01*
X382374D02*X383874D01*
X385074Y403695D02*X385874Y404495D01*
Y400495D01*
X385074D02*X386574D01*
X378071Y397101D02*X380071D01*
X380571Y396601D01*
Y395601D01*
X380071Y395101D02*X380571Y395601D01*
X378571Y395101D02*X380071D01*
X378571Y397101D02*Y393101D01*
X379371Y395101D02*X380571Y393101D01*
X381771Y396301D02*X382571Y397101D01*
Y393101D01*
X381771D02*X383271D01*
X384471Y393601D02*X384971Y393101D01*
X384471Y396601D02*Y393601D01*
Y396601D02*X384971Y397101D01*
X385971D01*
X386471Y396601D01*
Y393601D01*
X385971Y393101D02*X386471Y393601D01*
X384971Y393101D02*X385971D01*
X384471Y394101D02*X386471Y396101D01*
X379784Y384224D02*X381784D01*
X382284Y383724D01*
Y382724D01*
X381784Y382224D02*X382284Y382724D01*
X380284Y382224D02*X381784D01*
X380284Y384224D02*Y380224D01*
X381084Y382224D02*X382284Y380224D01*
X384984Y384224D02*X385484Y383724D01*
X383984Y384224D02*X384984D01*
X383484Y383724D02*X383984Y384224D01*
X383484Y383724D02*Y380724D01*
X383984Y380224D01*
X384984Y382424D02*X385484Y381924D01*
X383484Y382424D02*X384984D01*
X383984Y380224D02*X384984D01*
X385484Y380724D01*
Y381924D02*Y380724D01*
X369888Y340076D02*X371888D01*
X372388Y339576D01*
Y338576D01*
X371888Y338076D02*X372388Y338576D01*
X370388Y338076D02*X371888D01*
X370388Y340076D02*Y336076D01*
X371188Y338076D02*X372388Y336076D01*
X373588Y339276D02*X374388Y340076D01*
Y336076D01*
X373588D02*X375088D01*
X376288Y340076D02*X378288D01*
X376288D02*Y338076D01*
X376788Y338576D01*
X377788D01*
X378288Y338076D01*
Y336576D01*
X377788Y336076D02*X378288Y336576D01*
X376788Y336076D02*X377788D01*
X376288Y336576D02*X376788Y336076D01*
X380706Y375123D02*X382706D01*
X383206Y374623D01*
Y373623D01*
X382706Y373123D02*X383206Y373623D01*
X381206Y373123D02*X382706D01*
X381206Y375123D02*Y371123D01*
X382006Y373123D02*X383206Y371123D01*
X384406Y375123D02*X386406D01*
X384406D02*Y373123D01*
X384906Y373623D01*
X385906D01*
X386406Y373123D01*
Y371623D01*
X385906Y371123D02*X386406Y371623D01*
X384906Y371123D02*X385906D01*
X384406Y371623D02*X384906Y371123D01*
X345218Y417374D02*X346518D01*
X344518Y418074D02*X345218Y417374D01*
X344518Y420674D02*Y418074D01*
Y420674D02*X345218Y421374D01*
X346518D01*
X347718Y420574D02*X348518Y421374D01*
Y417374D01*
X347718D02*X349218D01*
X350418Y420874D02*X350918Y421374D01*
X352418D01*
X352918Y420874D01*
Y419874D01*
X350418Y417374D02*X352918Y419874D01*
X350418Y417374D02*X352918D01*
X359649Y384099D02*X360949D01*
X358949Y384799D02*X359649Y384099D01*
X358949Y387399D02*Y384799D01*
Y387399D02*X359649Y388099D01*
X360949D01*
X362149Y387299D02*X362949Y388099D01*
Y384099D01*
X362149D02*X363649D01*
X365349D02*X367349Y388099D01*
X364849D02*X367349D01*
X377376Y411090D02*X379376D01*
X379876Y410590D01*
Y409590D01*
X379376Y409090D02*X379876Y409590D01*
X377876Y409090D02*X379376D01*
X377876Y411090D02*Y407090D01*
X378676Y409090D02*X379876Y407090D01*
X381076Y410290D02*X381876Y411090D01*
Y407090D01*
X381076D02*X382576D01*
X383776Y410590D02*X384276Y411090D01*
X385776D01*
X386276Y410590D01*
Y409590D01*
X383776Y407090D02*X386276Y409590D01*
X383776Y407090D02*X386276D01*
X363056Y349436D02*X364356D01*
X362356Y350136D02*X363056Y349436D01*
X362356Y352736D02*Y350136D01*
Y352736D02*X363056Y353436D01*
X364356D01*
X365556Y352636D02*X366356Y353436D01*
Y349436D01*
X365556D02*X367056D01*
X368256Y349936D02*X368756Y349436D01*
X368256Y350736D02*Y349936D01*
Y350736D02*X368956Y351436D01*
X369556D01*
X370256Y350736D01*
Y349936D01*
X369756Y349436D02*X370256Y349936D01*
X368756Y349436D02*X369756D01*
X368256Y352136D02*X368956Y351436D01*
X368256Y352936D02*Y352136D01*
Y352936D02*X368756Y353436D01*
X369756D01*
X370256Y352936D01*
Y352136D01*
X369556Y351436D02*X370256Y352136D01*
X366634Y266465D02*X368634D01*
X369134Y265965D01*
Y264965D01*
X368634Y264465D02*X369134Y264965D01*
X367134Y264465D02*X368634D01*
X367134Y266465D02*Y262465D01*
X367934Y264465D02*X369134Y262465D01*
X370334Y265665D02*X371134Y266465D01*
Y262465D01*
X370334D02*X371834D01*
X357770Y243713D02*X359070D01*
X357070Y244413D02*X357770Y243713D01*
X357070Y247013D02*Y244413D01*
Y247013D02*X357770Y247713D01*
X359070D01*
X361770D02*X362270Y247213D01*
X360770Y247713D02*X361770D01*
X360270Y247213D02*X360770Y247713D01*
X360270Y247213D02*Y244213D01*
X360770Y243713D01*
X361770Y245913D02*X362270Y245413D01*
X360270Y245913D02*X361770D01*
X360770Y243713D02*X361770D01*
X362270Y244213D01*
Y245413D02*Y244213D01*
X329721Y266327D02*Y262827D01*
X330221Y262327D01*
X331221D01*
X331721Y262827D01*
Y266327D02*Y262827D01*
X332921Y266327D02*X334921D01*
X332921D02*Y264327D01*
X333421Y264827D01*
X334421D01*
X334921Y264327D01*
Y262827D01*
X334421Y262327D02*X334921Y262827D01*
X333421Y262327D02*X334421D01*
X332921Y262827D02*X333421Y262327D01*
X347015Y320745D02*X349015D01*
X349515Y320245D01*
Y319245D01*
X349015Y318745D02*X349515Y319245D01*
X347515Y318745D02*X349015D01*
X347515Y320745D02*Y316745D01*
X348315Y318745D02*X349515Y316745D01*
X350715Y319945D02*X351515Y320745D01*
Y316745D01*
X350715D02*X352215D01*
X353415Y318245D02*X355415Y320745D01*
X353415Y318245D02*X355915D01*
X355415Y320745D02*Y316745D01*
X390665Y229028D02*X392665D01*
X393165Y228528D01*
Y227528D01*
X392665Y227028D02*X393165Y227528D01*
X391165Y227028D02*X392665D01*
X391165Y229028D02*Y225028D01*
X391965Y227028D02*X393165Y225028D01*
X394365Y228528D02*X394865Y229028D01*
X396365D01*
X396865Y228528D01*
Y227528D01*
X394365Y225028D02*X396865Y227528D01*
X394365Y225028D02*X396865D01*
X379631Y191492D02*X381631D01*
X382131Y190992D01*
Y189992D01*
X381631Y189492D02*X382131Y189992D01*
X380131Y189492D02*X381631D01*
X380131Y191492D02*Y187492D01*
X380931Y189492D02*X382131Y187492D01*
X383331Y188992D02*X385331Y191492D01*
X383331Y188992D02*X385831D01*
X385331Y191492D02*Y187492D01*
X388499Y191564D02*X390499D01*
X390999Y191064D01*
Y190064D01*
X390499Y189564D02*X390999Y190064D01*
X388999Y189564D02*X390499D01*
X388999Y191564D02*Y187564D01*
X389799Y189564D02*X390999Y187564D01*
X392199Y191064D02*X392699Y191564D01*
X393699D01*
X394199Y191064D01*
X393699Y187564D02*X394199Y188064D01*
X392699Y187564D02*X393699D01*
X392199Y188064D02*X392699Y187564D01*
Y189764D02*X393699D01*
X394199Y191064D02*Y190264D01*
Y189264D02*Y188064D01*
Y189264D02*X393699Y189764D01*
X394199Y190264D02*X393699Y189764D01*
X378693Y287997D02*X379993D01*
X377993Y288697D02*X378693Y287997D01*
X377993Y291297D02*Y288697D01*
Y291297D02*X378693Y291997D01*
X379993D01*
X381693Y287997D02*X383693Y291997D01*
X381193D02*X383693D01*
X393850Y241806D02*X395150D01*
X393150Y242506D02*X393850Y241806D01*
X393150Y245106D02*Y242506D01*
Y245106D02*X393850Y245806D01*
X395150D01*
X396350Y245306D02*X396850Y245806D01*
X398350D01*
X398850Y245306D01*
Y244306D01*
X396350Y241806D02*X398850Y244306D01*
X396350Y241806D02*X398850D01*
X393601Y280065D02*X394901D01*
X392901Y280765D02*X393601Y280065D01*
X392901Y283365D02*Y280765D01*
Y283365D02*X393601Y284065D01*
X394901D01*
X396101Y280565D02*X396601Y280065D01*
X396101Y281365D02*Y280565D01*
Y281365D02*X396801Y282065D01*
X397401D01*
X398101Y281365D01*
Y280565D01*
X397601Y280065D02*X398101Y280565D01*
X396601Y280065D02*X397601D01*
X396101Y282765D02*X396801Y282065D01*
X396101Y283565D02*Y282765D01*
Y283565D02*X396601Y284065D01*
X397601D01*
X398101Y283565D01*
Y282765D01*
X397401Y282065D02*X398101Y282765D01*
X380720Y244378D02*X382720D01*
X383220Y243878D01*
Y242878D01*
X382720Y242378D02*X383220Y242878D01*
X381220Y242378D02*X382720D01*
X381220Y244378D02*Y240378D01*
X382020Y242378D02*X383220Y240378D01*
X384420Y243578D02*X385220Y244378D01*
Y240378D01*
X384420D02*X385920D01*
X388620Y244378D02*X389120Y243878D01*
X387620Y244378D02*X388620D01*
X387120Y243878D02*X387620Y244378D01*
X387120Y243878D02*Y240878D01*
X387620Y240378D01*
X388620Y242578D02*X389120Y242078D01*
X387120Y242578D02*X388620D01*
X387620Y240378D02*X388620D01*
X389120Y240878D01*
Y242078D02*Y240878D01*
X374616Y170293D02*Y166293D01*
X375916Y170293D02*X376616Y169593D01*
Y166993D01*
X375916Y166293D02*X376616Y166993D01*
X374116Y166293D02*X375916D01*
X374116Y170293D02*X375916D01*
X377816Y169793D02*X378316Y170293D01*
X379816D01*
X380316Y169793D01*
Y168793D01*
X377816Y166293D02*X380316Y168793D01*
X377816Y166293D02*X380316D01*
X385872Y170925D02*Y166925D01*
X387172Y170925D02*X387872Y170225D01*
Y167625D01*
X387172Y166925D02*X387872Y167625D01*
X385372Y166925D02*X387172D01*
X385372Y170925D02*X387172D01*
X389072Y170125D02*X389872Y170925D01*
Y166925D01*
X389072D02*X390572D01*
X326630Y209437D02*X328630D01*
X329130Y208937D01*
Y207937D01*
X328630Y207437D02*X329130Y207937D01*
X327130Y207437D02*X328630D01*
X327130Y209437D02*Y205437D01*
X327930Y207437D02*X329130Y205437D01*
X330830D02*X332830Y209437D01*
X330330D02*X332830D01*
X357845Y188139D02*X359845D01*
X360345Y187639D01*
Y186639D01*
X359845Y186139D02*X360345Y186639D01*
X358345Y186139D02*X359845D01*
X358345Y188139D02*Y184139D01*
X359145Y186139D02*X360345Y184139D01*
X361545Y187339D02*X362345Y188139D01*
Y184139D01*
X361545D02*X363045D01*
X364245Y187639D02*X364745Y188139D01*
X365745D01*
X366245Y187639D01*
X365745Y184139D02*X366245Y184639D01*
X364745Y184139D02*X365745D01*
X364245Y184639D02*X364745Y184139D01*
Y186339D02*X365745D01*
X366245Y187639D02*Y186839D01*
Y185839D02*Y184639D01*
Y185839D02*X365745Y186339D01*
X366245Y186839D02*X365745Y186339D01*
X193818Y413754D02*X195118D01*
X193118Y414454D02*X193818Y413754D01*
X193118Y417054D02*Y414454D01*
Y417054D02*X193818Y417754D01*
X195118D01*
X196318D02*X198318D01*
X196318D02*Y415754D01*
X196818Y416254D01*
X197818D01*
X198318Y415754D01*
Y414254D01*
X197818Y413754D02*X198318Y414254D01*
X196818Y413754D02*X197818D01*
X196318Y414254D02*X196818Y413754D01*
X186806Y333903D02*X188106D01*
X186106Y334603D02*X186806Y333903D01*
X186106Y337203D02*Y334603D01*
Y337203D02*X186806Y337903D01*
X188106D01*
X189306Y337103D02*X190106Y337903D01*
Y333903D01*
X189306D02*X190806D01*
X216127Y322473D02*Y318973D01*
X216627Y318473D01*
X217627D01*
X218127Y318973D01*
Y322473D02*Y318973D01*
X219327Y321673D02*X220127Y322473D01*
Y318473D01*
X219327D02*X220827D01*
X276407Y333406D02*X277707D01*
X275707Y334106D02*X276407Y333406D01*
X275707Y336706D02*Y334106D01*
Y336706D02*X276407Y337406D01*
X277707D01*
X278907Y336606D02*X279707Y337406D01*
Y333406D01*
X278907D02*X280407D01*
X283107Y337406D02*X283607Y336906D01*
X282107Y337406D02*X283107D01*
X281607Y336906D02*X282107Y337406D01*
X281607Y336906D02*Y333906D01*
X282107Y333406D01*
X283107Y335606D02*X283607Y335106D01*
X281607Y335606D02*X283107D01*
X282107Y333406D02*X283107D01*
X283607Y333906D01*
Y335106D02*Y333906D01*
X185672Y350900D02*X186972D01*
X184972Y351600D02*X185672Y350900D01*
X184972Y354200D02*Y351600D01*
Y354200D02*X185672Y354900D01*
X186972D01*
X188672Y350900D02*X190172Y352900D01*
Y354400D02*Y352900D01*
X189672Y354900D02*X190172Y354400D01*
X188672Y354900D02*X189672D01*
X188172Y354400D02*X188672Y354900D01*
X188172Y354400D02*Y353400D01*
X188672Y352900D01*
X190172D01*
X195392Y261285D02*X197392D01*
X197892Y260785D01*
Y259785D01*
X197392Y259285D02*X197892Y259785D01*
X195892Y259285D02*X197392D01*
X195892Y261285D02*Y257285D01*
X196692Y259285D02*X197892Y257285D01*
X199592D02*X201092Y259285D01*
Y260785D02*Y259285D01*
X200592Y261285D02*X201092Y260785D01*
X199592Y261285D02*X200592D01*
X199092Y260785D02*X199592Y261285D01*
X199092Y260785D02*Y259785D01*
X199592Y259285D01*
X201092D01*
X215742Y259949D02*Y255949D01*
X217742D01*
X218942Y259449D02*X219442Y259949D01*
X220942D01*
X221442Y259449D01*
Y258449D01*
X218942Y255949D02*X221442Y258449D01*
X218942Y255949D02*X221442D01*
X228077Y259973D02*X229377D01*
X227377Y260673D02*X228077Y259973D01*
X227377Y263273D02*Y260673D01*
Y263273D02*X228077Y263973D01*
X229377D01*
X230577Y263473D02*X231077Y263973D01*
X232077D01*
X232577Y263473D01*
X232077Y259973D02*X232577Y260473D01*
X231077Y259973D02*X232077D01*
X230577Y260473D02*X231077Y259973D01*
Y262173D02*X232077D01*
X232577Y263473D02*Y262673D01*
Y261673D02*Y260473D01*
Y261673D02*X232077Y262173D01*
X232577Y262673D02*X232077Y262173D01*
X260035Y383477D02*X261335D01*
X259335Y384177D02*X260035Y383477D01*
X259335Y386777D02*Y384177D01*
Y386777D02*X260035Y387477D01*
X261335D01*
X262535Y386677D02*X263335Y387477D01*
Y383477D01*
X262535D02*X264035D01*
X265235Y384977D02*X267235Y387477D01*
X265235Y384977D02*X267735D01*
X267235Y387477D02*Y383477D01*
X259809Y363280D02*X261109D01*
X259109Y363980D02*X259809Y363280D01*
X259109Y366580D02*Y363980D01*
Y366580D02*X259809Y367280D01*
X261109D01*
X262309Y366480D02*X263109Y367280D01*
Y363280D01*
X262309D02*X263809D01*
X265009Y367280D02*X267009D01*
X265009D02*Y365280D01*
X265509Y365780D01*
X266509D01*
X267009Y365280D01*
Y363780D01*
X266509Y363280D02*X267009Y363780D01*
X265509Y363280D02*X266509D01*
X265009Y363780D02*X265509Y363280D01*
X277967Y412602D02*Y409102D01*
X278467Y408602D01*
X279467D01*
X279967Y409102D01*
Y412602D02*Y409102D01*
X281167Y410102D02*X283167Y412602D01*
X281167Y410102D02*X283667D01*
X283167Y412602D02*Y408602D01*
X237954Y396502D02*Y393002D01*
X238454Y392502D01*
X239454D01*
X239954Y393002D01*
Y396502D02*Y393002D01*
X241154Y396002D02*X241654Y396502D01*
X242654D01*
X243154Y396002D01*
X242654Y392502D02*X243154Y393002D01*
X241654Y392502D02*X242654D01*
X241154Y393002D02*X241654Y392502D01*
Y394702D02*X242654D01*
X243154Y396002D02*Y395202D01*
Y394202D02*Y393002D01*
Y394202D02*X242654Y394702D01*
X243154Y395202D02*X242654Y394702D01*
M02*
