G04 start of page 9 for group -4079 idx -4079 *
G04 Title: (unknown), topsilk *
G04 Creator: pcb 1.99z *
G04 CreationDate: Thu 29 Aug 2013 05:32:10 PM GMT UTC *
G04 For: p *
G04 Format: Gerber/RS-274X *
G04 PCB-Dimensions (mil): 6000.00 5000.00 *
G04 PCB-Coordinate-Origin: lower left *
%MOIN*%
%FSLAX25Y25*%
%LNTOPSILK*%
%ADD94C,0.0100*%
G54D94*X403145Y210079D02*X403645Y210579D01*
X404645D01*
X405145Y210079D01*
X404645Y206579D02*X405145Y207079D01*
X403645Y206579D02*X404645D01*
X403145Y207079D02*X403645Y206579D01*
Y208779D02*X404645D01*
X405145Y210079D02*Y209279D01*
Y208279D02*Y207079D01*
Y208279D02*X404645Y208779D01*
X405145Y209279D02*X404645Y208779D01*
X406345Y210579D02*X407345Y206579D01*
X408345Y210579D01*
X409545Y210079D02*X410045Y210579D01*
X411045D01*
X411545Y210079D01*
X411045Y206579D02*X411545Y207079D01*
X410045Y206579D02*X411045D01*
X409545Y207079D02*X410045Y206579D01*
Y208779D02*X411045D01*
X411545Y210079D02*Y209279D01*
Y208279D02*Y207079D01*
Y208279D02*X411045Y208779D01*
X411545Y209279D02*X411045Y208779D01*
X403463Y305973D02*X403963Y305473D01*
X401963Y305973D02*X403463D01*
X401463Y305473D02*X401963Y305973D01*
X401463Y305473D02*Y302473D01*
X401963Y301973D01*
X403463D01*
X403963Y302473D01*
Y303473D02*Y302473D01*
X403463Y303973D02*X403963Y303473D01*
X402463Y303973D02*X403463D01*
X405163Y305973D02*Y301973D01*
Y305973D02*X407663Y301973D01*
Y305973D02*Y301973D01*
X409363Y305973D02*Y301973D01*
X410663Y305973D02*X411363Y305273D01*
Y302673D01*
X410663Y301973D02*X411363Y302673D01*
X408863Y301973D02*X410663D01*
X408863Y305973D02*X410663D01*
X399463Y314973D02*Y311973D01*
Y314973D02*X400163Y315973D01*
X401263D01*
X401963Y314973D01*
Y311973D01*
X399463Y313973D02*X401963D01*
X403163Y315973D02*Y312473D01*
X403663Y311973D01*
X404663D01*
X405163Y312473D01*
Y315973D02*Y312473D01*
X406363Y311973D02*X408863Y315973D01*
X406363D02*X408863Y311973D01*
X410063Y315173D02*X410863Y315973D01*
Y311973D01*
X410063D02*X411563D01*
X404145Y200579D02*X404645Y200079D01*
X402645Y200579D02*X404145D01*
X402145Y200079D02*X402645Y200579D01*
X402145Y200079D02*Y197079D01*
X402645Y196579D01*
X404145D01*
X404645Y197079D01*
Y198079D02*Y197079D01*
X404145Y198579D02*X404645Y198079D01*
X403145Y198579D02*X404145D01*
X405845Y200579D02*Y196579D01*
Y200579D02*X408345Y196579D01*
Y200579D02*Y196579D01*
X410045Y200579D02*Y196579D01*
X411345Y200579D02*X412045Y199879D01*
Y197279D01*
X411345Y196579D02*X412045Y197279D01*
X409545Y196579D02*X411345D01*
X409545Y200579D02*X411345D01*
X402145Y190579D02*X404145D01*
X404645Y190079D01*
Y189079D01*
X404145Y188579D02*X404645Y189079D01*
X402645Y188579D02*X404145D01*
X402645Y190579D02*Y186579D01*
X403445Y188579D02*X404645Y186579D01*
X405845D02*X408345Y190579D01*
X405845D02*X408345Y186579D01*
X410045Y190579D02*Y186579D01*
X411345Y190579D02*X412045Y189879D01*
Y187279D01*
X411345Y186579D02*X412045Y187279D01*
X409545Y186579D02*X411345D01*
X409545Y190579D02*X411345D01*
X402145Y180579D02*X404145D01*
X403145D02*Y176579D01*
X405345D02*X407845Y180579D01*
X405345D02*X407845Y176579D01*
X409545Y180579D02*Y176579D01*
X410845Y180579D02*X411545Y179879D01*
Y177279D01*
X410845Y176579D02*X411545Y177279D01*
X409045Y176579D02*X410845D01*
X409045Y180579D02*X410845D01*
X398963Y345973D02*Y341973D01*
X400263Y345973D02*X400963Y345273D01*
Y342673D01*
X400263Y341973D02*X400963Y342673D01*
X398463Y341973D02*X400263D01*
X398463Y345973D02*X400263D01*
X402163Y341973D02*X404163D01*
X404663Y342473D01*
Y343673D02*Y342473D01*
X404163Y344173D02*X404663Y343673D01*
X402663Y344173D02*X404163D01*
X402663Y345973D02*Y341973D01*
X402163Y345973D02*X404163D01*
X404663Y345473D01*
Y344673D01*
X404163Y344173D02*X404663Y344673D01*
X407863Y345973D02*X408363Y345473D01*
X406363Y345973D02*X407863D01*
X405863Y345473D02*X406363Y345973D01*
X405863Y345473D02*Y342473D01*
X406363Y341973D01*
X407863D01*
X408363Y342473D01*
Y343473D02*Y342473D01*
X407863Y343973D02*X408363Y343473D01*
X406863Y343973D02*X407863D01*
X409563Y342473D02*X410063Y341973D01*
X409563Y345473D02*Y342473D01*
Y345473D02*X410063Y345973D01*
X411063D01*
X411563Y345473D01*
Y342473D01*
X411063Y341973D02*X411563Y342473D01*
X410063Y341973D02*X411063D01*
X409563Y342973D02*X411563Y344973D01*
X399963Y335973D02*Y331973D01*
X401263Y335973D02*X401963Y335273D01*
Y332673D01*
X401263Y331973D02*X401963Y332673D01*
X399463Y331973D02*X401263D01*
X399463Y335973D02*X401263D01*
X403163Y331973D02*X405163D01*
X405663Y332473D01*
Y333673D02*Y332473D01*
X405163Y334173D02*X405663Y333673D01*
X403663Y334173D02*X405163D01*
X403663Y335973D02*Y331973D01*
X403163Y335973D02*X405163D01*
X405663Y335473D01*
Y334673D01*
X405163Y334173D02*X405663Y334673D01*
X408863Y335973D02*X409363Y335473D01*
X407363Y335973D02*X408863D01*
X406863Y335473D02*X407363Y335973D01*
X406863Y335473D02*Y332473D01*
X407363Y331973D01*
X408863D01*
X409363Y332473D01*
Y333473D02*Y332473D01*
X408863Y333973D02*X409363Y333473D01*
X407863Y333973D02*X408863D01*
X410563Y335173D02*X411363Y335973D01*
Y331973D01*
X410563D02*X412063D01*
X399463Y324973D02*Y321973D01*
Y324973D02*X400163Y325973D01*
X401263D01*
X401963Y324973D01*
Y321973D01*
X399463Y323973D02*X401963D01*
X403163Y325973D02*Y322473D01*
X403663Y321973D01*
X404663D01*
X405163Y322473D01*
Y325973D02*Y322473D01*
X406363Y321973D02*X408863Y325973D01*
X406363D02*X408863Y321973D01*
X410063Y322473D02*X410563Y321973D01*
X410063Y325473D02*Y322473D01*
Y325473D02*X410563Y325973D01*
X411563D01*
X412063Y325473D01*
Y322473D01*
X411563Y321973D02*X412063Y322473D01*
X410563Y321973D02*X411563D01*
X410063Y322973D02*X412063Y324973D01*
X404463Y402973D02*X404963Y402473D01*
X402963Y402973D02*X404463D01*
X402463Y402473D02*X402963Y402973D01*
X402463Y402473D02*Y399473D01*
X402963Y398973D01*
X404463D01*
X404963Y399473D01*
Y400473D02*Y399473D01*
X404463Y400973D02*X404963Y400473D01*
X403463Y400973D02*X404463D01*
X406163Y402973D02*Y398973D01*
Y402973D02*X408663Y398973D01*
Y402973D02*Y398973D01*
X410363Y402973D02*Y398973D01*
X411663Y402973D02*X412363Y402273D01*
Y399673D01*
X411663Y398973D02*X412363Y399673D01*
X409863Y398973D02*X411663D01*
X409863Y402973D02*X411663D01*
X403463Y412473D02*X403963Y412973D01*
X404963D01*
X405463Y412473D01*
X404963Y408973D02*X405463Y409473D01*
X403963Y408973D02*X404963D01*
X403463Y409473D02*X403963Y408973D01*
Y411173D02*X404963D01*
X405463Y412473D02*Y411673D01*
Y410673D02*Y409473D01*
Y410673D02*X404963Y411173D01*
X405463Y411673D02*X404963Y411173D01*
X406663Y412973D02*X407663Y408973D01*
X408663Y412973D01*
X409863Y412473D02*X410363Y412973D01*
X411363D01*
X411863Y412473D01*
X411363Y408973D02*X411863Y409473D01*
X410363Y408973D02*X411363D01*
X409863Y409473D02*X410363Y408973D01*
Y411173D02*X411363D01*
X411863Y412473D02*Y411673D01*
Y410673D02*Y409473D01*
Y410673D02*X411363Y411173D01*
X411863Y411673D02*X411363Y411173D01*
X403463Y392973D02*X405463D01*
X404463D02*Y388973D01*
X407363D02*X408663D01*
X406663Y389673D02*X407363Y388973D01*
X406663Y392273D02*Y389673D01*
Y392273D02*X407363Y392973D01*
X408663D01*
X409863D02*Y388973D01*
Y390973D02*X411863Y392973D01*
X409863Y390973D02*X411863Y388973D01*
X402463Y382973D02*X404463D01*
X403463D02*Y378973D01*
X406163Y382973D02*Y378973D01*
X407463Y382973D02*X408163Y382273D01*
Y379673D01*
X407463Y378973D02*X408163Y379673D01*
X405663Y378973D02*X407463D01*
X405663Y382973D02*X407463D01*
X409363Y382473D02*Y379473D01*
Y382473D02*X409863Y382973D01*
X410863D01*
X411363Y382473D01*
Y379473D01*
X410863Y378973D02*X411363Y379473D01*
X409863Y378973D02*X410863D01*
X409363Y379473D02*X409863Y378973D01*
X403463Y372973D02*X405463D01*
X404463D02*Y368973D01*
X407163Y372973D02*Y368973D01*
X408463Y372973D02*X409163Y372273D01*
Y369673D01*
X408463Y368973D02*X409163Y369673D01*
X406663Y368973D02*X408463D01*
X406663Y372973D02*X408463D01*
X410363D02*X411363D01*
X410863D02*Y368973D01*
X410363D02*X411363D01*
X402463Y362973D02*X404463D01*
X403463D02*Y358973D01*
X405663Y362973D02*Y358973D01*
Y362973D02*X407163Y360973D01*
X408663Y362973D01*
Y358973D01*
X411863Y362973D02*X412363Y362473D01*
X410363Y362973D02*X411863D01*
X409863Y362473D02*X410363Y362973D01*
X409863Y362473D02*Y361473D01*
X410363Y360973D01*
X411863D01*
X412363Y360473D01*
Y359473D01*
X411863Y358973D02*X412363Y359473D01*
X410363Y358973D02*X411863D01*
X409863Y359473D02*X410363Y358973D01*
X275327Y272142D02*X275827Y272642D01*
X275327Y272142D02*Y270642D01*
X275827Y270142D02*X275327Y270642D01*
X275827Y270142D02*X278827D01*
X279327Y270642D01*
Y272142D02*Y270642D01*
Y272142D02*X278827Y272642D01*
X277827D02*X278827D01*
X277327Y272142D02*X277827Y272642D01*
X277327Y272142D02*Y271142D01*
X275327Y273842D02*X279327D01*
X275327D02*X279327Y276342D01*
X275327D02*X279327D01*
X275327Y278042D02*X279327D01*
X275327Y279342D02*X276027Y280042D01*
X278627D01*
X279327Y279342D02*X278627Y280042D01*
X279327Y279342D02*Y277542D01*
X275327Y279342D02*Y277542D01*
X309327Y273142D02*Y271842D01*
X308627Y271142D02*X309327Y271842D01*
X306027Y271142D02*X308627D01*
X306027D02*X305327Y271842D01*
Y273142D02*Y271842D01*
Y276342D02*X305827Y276842D01*
X305327Y276342D02*Y274842D01*
X305827Y274342D02*X305327Y274842D01*
X305827Y274342D02*X306827D01*
X307327Y274842D01*
Y276342D02*Y274842D01*
Y276342D02*X307827Y276842D01*
X308827D01*
X309327Y276342D02*X308827Y276842D01*
X309327Y276342D02*Y274842D01*
X308827Y274342D02*X309327Y274842D01*
X285463Y270878D02*X289463D01*
X285463D02*X287463Y272378D01*
X285463Y273878D01*
X289463D01*
X285463Y276078D02*Y275078D01*
Y275578D02*X289463D01*
Y276078D02*Y275078D01*
X285463Y279278D02*X285963Y279778D01*
X285463Y279278D02*Y277778D01*
X285963Y277278D02*X285463Y277778D01*
X285963Y277278D02*X286963D01*
X287463Y277778D01*
Y279278D02*Y277778D01*
Y279278D02*X287963Y279778D01*
X288963D01*
X289463Y279278D02*X288963Y279778D01*
X289463Y279278D02*Y277778D01*
X288963Y277278D02*X289463Y277778D01*
X285963Y280978D02*X288963D01*
X285963D02*X285463Y281478D01*
Y282478D02*Y281478D01*
Y282478D02*X285963Y282978D01*
X288963D01*
X289463Y282478D02*X288963Y282978D01*
X289463Y282478D02*Y281478D01*
X288963Y280978D02*X289463Y281478D01*
X295463Y270878D02*X299463D01*
X295463D02*X297463Y272378D01*
X295463Y273878D01*
X299463D01*
X295963Y275078D02*X298963D01*
X295963D02*X295463Y275578D01*
Y276578D02*Y275578D01*
Y276578D02*X295963Y277078D01*
X298963D01*
X299463Y276578D02*X298963Y277078D01*
X299463Y276578D02*Y275578D01*
X298963Y275078D02*X299463Y275578D01*
X295463Y280278D02*X295963Y280778D01*
X295463Y280278D02*Y278778D01*
X295963Y278278D02*X295463Y278778D01*
X295963Y278278D02*X296963D01*
X297463Y278778D01*
Y280278D02*Y278778D01*
Y280278D02*X297963Y280778D01*
X298963D01*
X299463Y280278D02*X298963Y280778D01*
X299463Y280278D02*Y278778D01*
X298963Y278278D02*X299463Y278778D01*
X295463Y282978D02*Y281978D01*
Y282478D02*X299463D01*
Y282978D02*Y281978D01*
X315463Y272878D02*X315963Y273378D01*
X315463Y272878D02*Y271378D01*
X315963Y270878D02*X315463Y271378D01*
X315963Y270878D02*X316963D01*
X317463Y271378D01*
Y272878D02*Y271378D01*
Y272878D02*X317963Y273378D01*
X318963D01*
X319463Y272878D02*X318963Y273378D01*
X319463Y272878D02*Y271378D01*
X318963Y270878D02*X319463Y271378D01*
Y276578D02*Y275278D01*
X318763Y274578D02*X319463Y275278D01*
X316163Y274578D02*X318763D01*
X316163D02*X315463Y275278D01*
Y276578D02*Y275278D01*
Y277778D02*X319463D01*
X317463D02*X315463Y279778D01*
X317463Y277778D02*X319463Y279778D01*
X231599Y406626D02*X232099Y406126D01*
X230099Y406626D02*X231599D01*
X229599Y406126D02*X230099Y406626D01*
X229599Y406126D02*Y403126D01*
X230099Y402626D01*
X231599D01*
X232099Y403126D01*
Y404126D02*Y403126D01*
X231599Y404626D02*X232099Y404126D01*
X230599Y404626D02*X231599D01*
X233299Y406626D02*Y402626D01*
Y406626D02*X235799Y402626D01*
Y406626D02*Y402626D01*
X237499Y406626D02*Y402626D01*
X238799Y406626D02*X239499Y405926D01*
Y403326D01*
X238799Y402626D02*X239499Y403326D01*
X236999Y402626D02*X238799D01*
X236999Y406626D02*X238799D01*
X229206Y415020D02*X231206D01*
X230206Y416020D02*Y414020D01*
X232406Y417020D02*X234406D01*
X232406D02*Y415020D01*
X232906Y415520D01*
X233906D01*
X234406Y415020D01*
Y413520D01*
X233906Y413020D02*X234406Y413520D01*
X232906Y413020D02*X233906D01*
X232406Y413520D02*X232906Y413020D01*
X237406Y417020D02*X238406Y413020D01*
X239406Y417020D01*
X395298Y161200D02*Y157200D01*
X394798Y161200D02*X396798D01*
X397298Y160700D01*
Y159700D01*
X396798Y159200D02*X397298Y159700D01*
X395298Y159200D02*X396798D01*
X398498Y161200D02*X399498D01*
X398998D02*Y157200D01*
X398498D02*X399498D01*
X400698Y160700D02*Y157700D01*
Y160700D02*X401198Y161200D01*
X402198D01*
X402698Y160700D01*
Y157700D01*
X402198Y157200D02*X402698Y157700D01*
X401198Y157200D02*X402198D01*
X400698Y157700D02*X401198Y157200D01*
X403898Y157700D02*X404398Y157200D01*
X403898Y160700D02*Y157700D01*
Y160700D02*X404398Y161200D01*
X405398D01*
X405898Y160700D01*
Y157700D01*
X405398Y157200D02*X405898Y157700D01*
X404398Y157200D02*X405398D01*
X403898Y158200D02*X405898Y160200D01*
X407098Y157200D02*X409098D01*
X410298Y160400D02*X411098Y161200D01*
Y157200D01*
X410298D02*X411798D01*
X402463Y170973D02*X404463D01*
X404963Y170473D01*
Y169473D01*
X404463Y168973D02*X404963Y169473D01*
X402963Y168973D02*X404463D01*
X402963Y170973D02*Y166973D01*
X403763Y168973D02*X404963Y166973D01*
X408163Y170973D02*X408663Y170473D01*
X406663Y170973D02*X408163D01*
X406163Y170473D02*X406663Y170973D01*
X406163Y170473D02*Y169473D01*
X406663Y168973D01*
X408163D01*
X408663Y168473D01*
Y167473D01*
X408163Y166973D02*X408663Y167473D01*
X406663Y166973D02*X408163D01*
X406163Y167473D02*X406663Y166973D01*
X409863Y170973D02*X411863D01*
X410863D02*Y166973D01*
X414463Y415973D02*Y355973D01*
X424463D01*
Y415973D01*
X414463D01*
Y405973D02*X424463D01*
Y415973D01*
X393520Y397319D02*X394306D01*
X393520Y402829D02*X394306D01*
X393520Y388319D02*X394306D01*
X393520Y393829D02*X394306D01*
X393520Y379319D02*X394306D01*
X393520Y384829D02*X394306D01*
X393442Y370218D02*X394228D01*
X393442Y375728D02*X394228D01*
X393520Y406319D02*X394306D01*
X393520Y411829D02*X394306D01*
X263409Y381696D02*X264195D01*
X263409Y376186D02*X264195D01*
X262409Y362011D02*X263195D01*
X262409Y356501D02*X263195D01*
X285745Y406100D02*Y354682D01*
Y406100D02*X340063D01*
Y351782D01*
X288645D02*X340063D01*
X288645D02*X285745Y354682D01*
X288645Y353682D02*G75*G03X288645Y353682I0J1000D01*G01*
X291220Y338137D02*X292006D01*
X291220Y332627D02*X292006D01*
X355708Y352169D02*Y351383D01*
X361218Y352169D02*Y351383D01*
X362581Y377029D02*X363367D01*
X362581Y382539D02*X363367D01*
X361613Y335478D02*X362399D01*
X361613Y340988D02*X362399D01*
X185377Y267473D02*X254377D01*
Y315973D02*Y267473D01*
X185377Y315973D02*X254377D01*
X185377Y289223D02*Y267473D01*
Y315973D02*Y294223D01*
Y289223D02*G75*G03X185377Y294223I0J2500D01*G01*
X362966Y318642D02*Y317856D01*
X357456Y318642D02*Y317856D01*
X272327Y258142D02*X322327D01*
Y268142D02*Y258142D01*
X272327Y268142D02*X322327D01*
X272327D02*Y258142D01*
X282327Y268142D02*Y258142D01*
X272327Y268142D02*X282327D01*
X217411Y420054D02*Y400054D01*
X227411D01*
Y420054D01*
X217411D01*
Y410054D02*X227411D01*
Y420054D01*
X336960Y423350D02*Y422564D01*
X342470Y423350D02*Y422564D01*
X320960Y423350D02*Y422564D01*
X326470Y423350D02*Y422564D01*
X182911Y412554D02*Y399554D01*
X207911D01*
Y412554D01*
X182911D01*
X183911D02*Y399554D01*
X202323Y397527D02*X235788D01*
X202323D02*Y371937D01*
X235788D01*
Y397527D02*Y371937D01*
X191496Y393590D02*X202323D01*
X191496Y375874D02*X202323D01*
X191166Y326904D02*Y326118D01*
X185656Y326904D02*Y326118D01*
X216877Y358473D02*Y345473D01*
X191877Y358473D02*X216877D01*
X191877D02*Y345473D01*
X216877D01*
X215877Y358473D02*Y345473D01*
X383390Y227429D02*Y226643D01*
X388900Y227429D02*Y226643D01*
X398082Y253677D02*Y252891D01*
X392572Y253677D02*Y252891D01*
X387082Y253078D02*Y252292D01*
X381572Y253078D02*Y252292D01*
X373572Y265078D02*Y264292D01*
X379082Y265078D02*Y264292D01*
X336419Y267495D02*X360277D01*
X336419Y294253D02*Y267495D01*
Y294253D02*X363177D01*
Y270395D01*
X360277Y267495D01*
X361277Y270395D02*G75*G03X361277Y270395I-1000J0D01*G01*
X349996Y246196D02*Y245410D01*
X355506Y246196D02*Y245410D01*
X384391Y281073D02*X385177D01*
X384391Y286583D02*X385177D01*
X392572Y272764D02*Y271978D01*
X398082Y272764D02*Y271978D01*
X401327Y284528D02*X406327D01*
X401327D02*Y234528D01*
X406327D01*
X416327D02*X421327D01*
Y284528D02*Y234528D01*
X416327Y284528D02*X421327D01*
X416327Y237028D02*G75*G03X418827Y239528I0J2500D01*G01*
X403827D02*G75*G03X406327Y237028I2500J0D01*G01*
Y282028D02*G75*G03X403827Y279528I0J-2500D01*G01*
X418827D02*G75*G03X416327Y282028I-2500J0D01*G01*
X414463Y348878D02*Y298878D01*
X424463D01*
Y348878D01*
X414463D01*
Y338878D02*X424463D01*
Y348878D01*
X187928Y256391D02*X188714D01*
X187928Y261901D02*X188714D01*
X216020Y249319D02*X216806D01*
X216020Y254829D02*X216806D01*
X226877Y258473D02*Y245473D01*
X251877D01*
Y258473D02*Y245473D01*
X226877Y258473D02*X251877D01*
X227877D02*Y245473D01*
X199162Y188890D02*Y151883D01*
X188925D02*X199162D01*
X188925Y161726D02*Y151883D01*
X199162Y188890D02*X235776D01*
Y186134D01*
X255264D01*
Y188890D02*Y186134D01*
Y188890D02*X265106D01*
Y191055D02*Y188890D01*
Y191055D02*X275539D01*
Y179245D01*
X285185D01*
Y151883D01*
X296011D01*
Y161529D02*Y151883D01*
Y176686D02*Y161529D01*
Y242827D02*Y176686D01*
X205264Y242827D02*X296011D01*
X188925D02*X205264D01*
X188925D02*Y237709D01*
Y176489D01*
Y161726D01*
X339948Y204445D02*X340734D01*
X339948Y209955D02*X340734D01*
X314020Y200319D02*X314806D01*
X314020Y205829D02*X314806D01*
X344160Y193106D02*Y166334D01*
X319357D02*X344160D01*
X319357Y193106D02*Y166334D01*
Y193106D02*X344160D01*
X342192Y193893D02*X344948Y196649D01*
X339436D02*X344948D01*
X339436D02*X342192Y193893D01*
X359043Y177050D02*Y176264D01*
X364553Y177050D02*Y176264D01*
X413463Y213973D02*Y153973D01*
X423463D01*
Y213973D01*
X413463D01*
Y203973D02*X423463D01*
Y213973D01*
X385553Y180050D02*Y179264D01*
X380043Y180050D02*Y179264D01*
X394553Y180050D02*Y179264D01*
X389043Y180050D02*Y179264D01*
X375043Y159593D02*Y158807D01*
X380553Y159593D02*Y158807D01*
X385043Y159593D02*Y158807D01*
X390553Y159593D02*Y158807D01*
X312005Y417660D02*X313305D01*
X311305Y418360D02*X312005Y417660D01*
X311305Y420960D02*Y418360D01*
Y420960D02*X312005Y421660D01*
X313305D01*
X314505Y420860D02*X315305Y421660D01*
Y417660D01*
X314505D02*X316005D01*
X317205Y421160D02*X317705Y421660D01*
X318705D01*
X319205Y421160D01*
X318705Y417660D02*X319205Y418160D01*
X317705Y417660D02*X318705D01*
X317205Y418160D02*X317705Y417660D01*
Y419860D02*X318705D01*
X319205Y421160D02*Y420360D01*
Y419360D02*Y418160D01*
Y419360D02*X318705Y419860D01*
X319205Y420360D02*X318705Y419860D01*
X311380Y211704D02*X313380D01*
X313880Y211204D01*
Y210204D01*
X313380Y209704D02*X313880Y210204D01*
X311880Y209704D02*X313380D01*
X311880Y211704D02*Y207704D01*
X312680Y209704D02*X313880Y207704D01*
X315080Y208204D02*X315580Y207704D01*
X315080Y209004D02*Y208204D01*
Y209004D02*X315780Y209704D01*
X316380D01*
X317080Y209004D01*
Y208204D01*
X316580Y207704D02*X317080Y208204D01*
X315580Y207704D02*X316580D01*
X315080Y210404D02*X315780Y209704D01*
X315080Y211204D02*Y210404D01*
Y211204D02*X315580Y211704D01*
X316580D01*
X317080Y211204D01*
Y210404D01*
X316380Y209704D02*X317080Y210404D01*
X378674Y404495D02*X380674D01*
X381174Y403995D01*
Y402995D01*
X380674Y402495D02*X381174Y402995D01*
X379174Y402495D02*X380674D01*
X379174Y404495D02*Y400495D01*
X379974Y402495D02*X381174Y400495D01*
X382374Y403695D02*X383174Y404495D01*
Y400495D01*
X382374D02*X383874D01*
X385074Y403695D02*X385874Y404495D01*
Y400495D01*
X385074D02*X386574D01*
X378071Y397101D02*X380071D01*
X380571Y396601D01*
Y395601D01*
X380071Y395101D02*X380571Y395601D01*
X378571Y395101D02*X380071D01*
X378571Y397101D02*Y393101D01*
X379371Y395101D02*X380571Y393101D01*
X381771Y396301D02*X382571Y397101D01*
Y393101D01*
X381771D02*X383271D01*
X384471Y393601D02*X384971Y393101D01*
X384471Y396601D02*Y393601D01*
Y396601D02*X384971Y397101D01*
X385971D01*
X386471Y396601D01*
Y393601D01*
X385971Y393101D02*X386471Y393601D01*
X384971Y393101D02*X385971D01*
X384471Y394101D02*X386471Y396101D01*
X379784Y384224D02*X381784D01*
X382284Y383724D01*
Y382724D01*
X381784Y382224D02*X382284Y382724D01*
X380284Y382224D02*X381784D01*
X380284Y384224D02*Y380224D01*
X381084Y382224D02*X382284Y380224D01*
X384984Y384224D02*X385484Y383724D01*
X383984Y384224D02*X384984D01*
X383484Y383724D02*X383984Y384224D01*
X383484Y383724D02*Y380724D01*
X383984Y380224D01*
X384984Y382424D02*X385484Y381924D01*
X383484Y382424D02*X384984D01*
X383984Y380224D02*X384984D01*
X385484Y380724D01*
Y381924D02*Y380724D01*
X369888Y340076D02*X371888D01*
X372388Y339576D01*
Y338576D01*
X371888Y338076D02*X372388Y338576D01*
X370388Y338076D02*X371888D01*
X370388Y340076D02*Y336076D01*
X371188Y338076D02*X372388Y336076D01*
X373588Y339276D02*X374388Y340076D01*
Y336076D01*
X373588D02*X375088D01*
X376288Y340076D02*X378288D01*
X376288D02*Y338076D01*
X376788Y338576D01*
X377788D01*
X378288Y338076D01*
Y336576D01*
X377788Y336076D02*X378288Y336576D01*
X376788Y336076D02*X377788D01*
X376288Y336576D02*X376788Y336076D01*
X380706Y375123D02*X382706D01*
X383206Y374623D01*
Y373623D01*
X382706Y373123D02*X383206Y373623D01*
X381206Y373123D02*X382706D01*
X381206Y375123D02*Y371123D01*
X382006Y373123D02*X383206Y371123D01*
X384406Y375123D02*X386406D01*
X384406D02*Y373123D01*
X384906Y373623D01*
X385906D01*
X386406Y373123D01*
Y371623D01*
X385906Y371123D02*X386406Y371623D01*
X384906Y371123D02*X385906D01*
X384406Y371623D02*X384906Y371123D01*
X345218Y417374D02*X346518D01*
X344518Y418074D02*X345218Y417374D01*
X344518Y420674D02*Y418074D01*
Y420674D02*X345218Y421374D01*
X346518D01*
X347718Y420574D02*X348518Y421374D01*
Y417374D01*
X347718D02*X349218D01*
X350418Y420874D02*X350918Y421374D01*
X352418D01*
X352918Y420874D01*
Y419874D01*
X350418Y417374D02*X352918Y419874D01*
X350418Y417374D02*X352918D01*
X359649Y384099D02*X360949D01*
X358949Y384799D02*X359649Y384099D01*
X358949Y387399D02*Y384799D01*
Y387399D02*X359649Y388099D01*
X360949D01*
X362149Y387299D02*X362949Y388099D01*
Y384099D01*
X362149D02*X363649D01*
X365349D02*X367349Y388099D01*
X364849D02*X367349D01*
X377376Y411090D02*X379376D01*
X379876Y410590D01*
Y409590D01*
X379376Y409090D02*X379876Y409590D01*
X377876Y409090D02*X379376D01*
X377876Y411090D02*Y407090D01*
X378676Y409090D02*X379876Y407090D01*
X381076Y410290D02*X381876Y411090D01*
Y407090D01*
X381076D02*X382576D01*
X383776Y410590D02*X384276Y411090D01*
X385776D01*
X386276Y410590D01*
Y409590D01*
X383776Y407090D02*X386276Y409590D01*
X383776Y407090D02*X386276D01*
X363056Y349436D02*X364356D01*
X362356Y350136D02*X363056Y349436D01*
X362356Y352736D02*Y350136D01*
Y352736D02*X363056Y353436D01*
X364356D01*
X365556Y352636D02*X366356Y353436D01*
Y349436D01*
X365556D02*X367056D01*
X368256Y349936D02*X368756Y349436D01*
X368256Y350736D02*Y349936D01*
Y350736D02*X368956Y351436D01*
X369556D01*
X370256Y350736D01*
Y349936D01*
X369756Y349436D02*X370256Y349936D01*
X368756Y349436D02*X369756D01*
X368256Y352136D02*X368956Y351436D01*
X368256Y352936D02*Y352136D01*
Y352936D02*X368756Y353436D01*
X369756D01*
X370256Y352936D01*
Y352136D01*
X369556Y351436D02*X370256Y352136D01*
X366634Y266465D02*X368634D01*
X369134Y265965D01*
Y264965D01*
X368634Y264465D02*X369134Y264965D01*
X367134Y264465D02*X368634D01*
X367134Y266465D02*Y262465D01*
X367934Y264465D02*X369134Y262465D01*
X370334Y265665D02*X371134Y266465D01*
Y262465D01*
X370334D02*X371834D01*
X357770Y243713D02*X359070D01*
X357070Y244413D02*X357770Y243713D01*
X357070Y247013D02*Y244413D01*
Y247013D02*X357770Y247713D01*
X359070D01*
X361770D02*X362270Y247213D01*
X360770Y247713D02*X361770D01*
X360270Y247213D02*X360770Y247713D01*
X360270Y247213D02*Y244213D01*
X360770Y243713D01*
X361770Y245913D02*X362270Y245413D01*
X360270Y245913D02*X361770D01*
X360770Y243713D02*X361770D01*
X362270Y244213D01*
Y245413D02*Y244213D01*
X329721Y266327D02*Y262827D01*
X330221Y262327D01*
X331221D01*
X331721Y262827D01*
Y266327D02*Y262827D01*
X332921Y266327D02*X334921D01*
X332921D02*Y264327D01*
X333421Y264827D01*
X334421D01*
X334921Y264327D01*
Y262827D01*
X334421Y262327D02*X334921Y262827D01*
X333421Y262327D02*X334421D01*
X332921Y262827D02*X333421Y262327D01*
X347015Y320745D02*X349015D01*
X349515Y320245D01*
Y319245D01*
X349015Y318745D02*X349515Y319245D01*
X347515Y318745D02*X349015D01*
X347515Y320745D02*Y316745D01*
X348315Y318745D02*X349515Y316745D01*
X350715Y319945D02*X351515Y320745D01*
Y316745D01*
X350715D02*X352215D01*
X353415Y318245D02*X355415Y320745D01*
X353415Y318245D02*X355915D01*
X355415Y320745D02*Y316745D01*
X382665Y219028D02*X384665D01*
X385165Y218528D01*
Y217528D01*
X384665Y217028D02*X385165Y217528D01*
X383165Y217028D02*X384665D01*
X383165Y219028D02*Y215028D01*
X383965Y217028D02*X385165Y215028D01*
X386365Y218528D02*X386865Y219028D01*
X388365D01*
X388865Y218528D01*
Y217528D01*
X386365Y215028D02*X388865Y217528D01*
X386365Y215028D02*X388865D01*
X379631Y191492D02*X381631D01*
X382131Y190992D01*
Y189992D01*
X381631Y189492D02*X382131Y189992D01*
X380131Y189492D02*X381631D01*
X380131Y191492D02*Y187492D01*
X380931Y189492D02*X382131Y187492D01*
X383331Y188992D02*X385331Y191492D01*
X383331Y188992D02*X385831D01*
X385331Y191492D02*Y187492D01*
X388499Y191564D02*X390499D01*
X390999Y191064D01*
Y190064D01*
X390499Y189564D02*X390999Y190064D01*
X388999Y189564D02*X390499D01*
X388999Y191564D02*Y187564D01*
X389799Y189564D02*X390999Y187564D01*
X392199Y191064D02*X392699Y191564D01*
X393699D01*
X394199Y191064D01*
X393699Y187564D02*X394199Y188064D01*
X392699Y187564D02*X393699D01*
X392199Y188064D02*X392699Y187564D01*
Y189764D02*X393699D01*
X394199Y191064D02*Y190264D01*
Y189264D02*Y188064D01*
Y189264D02*X393699Y189764D01*
X394199Y190264D02*X393699Y189764D01*
X378693Y287997D02*X379993D01*
X377993Y288697D02*X378693Y287997D01*
X377993Y291297D02*Y288697D01*
Y291297D02*X378693Y291997D01*
X379993D01*
X381693Y287997D02*X383693Y291997D01*
X381193D02*X383693D01*
X393850Y241806D02*X395150D01*
X393150Y242506D02*X393850Y241806D01*
X393150Y245106D02*Y242506D01*
Y245106D02*X393850Y245806D01*
X395150D01*
X396350Y245306D02*X396850Y245806D01*
X398350D01*
X398850Y245306D01*
Y244306D01*
X396350Y241806D02*X398850Y244306D01*
X396350Y241806D02*X398850D01*
X393601Y280065D02*X394901D01*
X392901Y280765D02*X393601Y280065D01*
X392901Y283365D02*Y280765D01*
Y283365D02*X393601Y284065D01*
X394901D01*
X396101Y280565D02*X396601Y280065D01*
X396101Y281365D02*Y280565D01*
Y281365D02*X396801Y282065D01*
X397401D01*
X398101Y281365D01*
Y280565D01*
X397601Y280065D02*X398101Y280565D01*
X396601Y280065D02*X397601D01*
X396101Y282765D02*X396801Y282065D01*
X396101Y283565D02*Y282765D01*
Y283565D02*X396601Y284065D01*
X397601D01*
X398101Y283565D01*
Y282765D01*
X397401Y282065D02*X398101Y282765D01*
X380720Y244378D02*X382720D01*
X383220Y243878D01*
Y242878D01*
X382720Y242378D02*X383220Y242878D01*
X381220Y242378D02*X382720D01*
X381220Y244378D02*Y240378D01*
X382020Y242378D02*X383220Y240378D01*
X384420Y243578D02*X385220Y244378D01*
Y240378D01*
X384420D02*X385920D01*
X388620Y244378D02*X389120Y243878D01*
X387620Y244378D02*X388620D01*
X387120Y243878D02*X387620Y244378D01*
X387120Y243878D02*Y240878D01*
X387620Y240378D01*
X388620Y242578D02*X389120Y242078D01*
X387120Y242578D02*X388620D01*
X387620Y240378D02*X388620D01*
X389120Y240878D01*
Y242078D02*Y240878D01*
X374616Y170293D02*Y166293D01*
X375916Y170293D02*X376616Y169593D01*
Y166993D01*
X375916Y166293D02*X376616Y166993D01*
X374116Y166293D02*X375916D01*
X374116Y170293D02*X375916D01*
X377816Y169793D02*X378316Y170293D01*
X379816D01*
X380316Y169793D01*
Y168793D01*
X377816Y166293D02*X380316Y168793D01*
X377816Y166293D02*X380316D01*
X385872Y170925D02*Y166925D01*
X387172Y170925D02*X387872Y170225D01*
Y167625D01*
X387172Y166925D02*X387872Y167625D01*
X385372Y166925D02*X387172D01*
X385372Y170925D02*X387172D01*
X389072Y170125D02*X389872Y170925D01*
Y166925D01*
X389072D02*X390572D01*
X337630Y215437D02*X339630D01*
X340130Y214937D01*
Y213937D01*
X339630Y213437D02*X340130Y213937D01*
X338130Y213437D02*X339630D01*
X338130Y215437D02*Y211437D01*
X338930Y213437D02*X340130Y211437D01*
X341830D02*X343830Y215437D01*
X341330D02*X343830D01*
X357845Y188139D02*X359845D01*
X360345Y187639D01*
Y186639D01*
X359845Y186139D02*X360345Y186639D01*
X358345Y186139D02*X359845D01*
X358345Y188139D02*Y184139D01*
X359145Y186139D02*X360345Y184139D01*
X361545Y187339D02*X362345Y188139D01*
Y184139D01*
X361545D02*X363045D01*
X364245Y187639D02*X364745Y188139D01*
X365745D01*
X366245Y187639D01*
X365745Y184139D02*X366245Y184639D01*
X364745Y184139D02*X365745D01*
X364245Y184639D02*X364745Y184139D01*
Y186339D02*X365745D01*
X366245Y187639D02*Y186839D01*
Y185839D02*Y184639D01*
Y185839D02*X365745Y186339D01*
X366245Y186839D02*X365745Y186339D01*
X193818Y413754D02*X195118D01*
X193118Y414454D02*X193818Y413754D01*
X193118Y417054D02*Y414454D01*
Y417054D02*X193818Y417754D01*
X195118D01*
X196318D02*X198318D01*
X196318D02*Y415754D01*
X196818Y416254D01*
X197818D01*
X198318Y415754D01*
Y414254D01*
X197818Y413754D02*X198318Y414254D01*
X196818Y413754D02*X197818D01*
X196318Y414254D02*X196818Y413754D01*
X186806Y333903D02*X188106D01*
X186106Y334603D02*X186806Y333903D01*
X186106Y337203D02*Y334603D01*
Y337203D02*X186806Y337903D01*
X188106D01*
X189306Y337103D02*X190106Y337903D01*
Y333903D01*
X189306D02*X190806D01*
X216127Y322473D02*Y318973D01*
X216627Y318473D01*
X217627D01*
X218127Y318973D01*
Y322473D02*Y318973D01*
X219327Y321673D02*X220127Y322473D01*
Y318473D01*
X219327D02*X220827D01*
X276407Y333406D02*X277707D01*
X275707Y334106D02*X276407Y333406D01*
X275707Y336706D02*Y334106D01*
Y336706D02*X276407Y337406D01*
X277707D01*
X278907Y336606D02*X279707Y337406D01*
Y333406D01*
X278907D02*X280407D01*
X283107Y337406D02*X283607Y336906D01*
X282107Y337406D02*X283107D01*
X281607Y336906D02*X282107Y337406D01*
X281607Y336906D02*Y333906D01*
X282107Y333406D01*
X283107Y335606D02*X283607Y335106D01*
X281607Y335606D02*X283107D01*
X282107Y333406D02*X283107D01*
X283607Y333906D01*
Y335106D02*Y333906D01*
X185672Y350900D02*X186972D01*
X184972Y351600D02*X185672Y350900D01*
X184972Y354200D02*Y351600D01*
Y354200D02*X185672Y354900D01*
X186972D01*
X188672Y350900D02*X190172Y352900D01*
Y354400D02*Y352900D01*
X189672Y354900D02*X190172Y354400D01*
X188672Y354900D02*X189672D01*
X188172Y354400D02*X188672Y354900D01*
X188172Y354400D02*Y353400D01*
X188672Y352900D01*
X190172D01*
X195392Y261285D02*X197392D01*
X197892Y260785D01*
Y259785D01*
X197392Y259285D02*X197892Y259785D01*
X195892Y259285D02*X197392D01*
X195892Y261285D02*Y257285D01*
X196692Y259285D02*X197892Y257285D01*
X199592D02*X201092Y259285D01*
Y260785D02*Y259285D01*
X200592Y261285D02*X201092Y260785D01*
X199592Y261285D02*X200592D01*
X199092Y260785D02*X199592Y261285D01*
X199092Y260785D02*Y259785D01*
X199592Y259285D01*
X201092D01*
X215742Y259949D02*Y255949D01*
X217742D01*
X218942Y259449D02*X219442Y259949D01*
X220942D01*
X221442Y259449D01*
Y258449D01*
X218942Y255949D02*X221442Y258449D01*
X218942Y255949D02*X221442D01*
X228077Y259973D02*X229377D01*
X227377Y260673D02*X228077Y259973D01*
X227377Y263273D02*Y260673D01*
Y263273D02*X228077Y263973D01*
X229377D01*
X230577Y263473D02*X231077Y263973D01*
X232077D01*
X232577Y263473D01*
X232077Y259973D02*X232577Y260473D01*
X231077Y259973D02*X232077D01*
X230577Y260473D02*X231077Y259973D01*
Y262173D02*X232077D01*
X232577Y263473D02*Y262673D01*
Y261673D02*Y260473D01*
Y261673D02*X232077Y262173D01*
X232577Y262673D02*X232077Y262173D01*
X260035Y383477D02*X261335D01*
X259335Y384177D02*X260035Y383477D01*
X259335Y386777D02*Y384177D01*
Y386777D02*X260035Y387477D01*
X261335D01*
X262535Y386677D02*X263335Y387477D01*
Y383477D01*
X262535D02*X264035D01*
X265235Y384977D02*X267235Y387477D01*
X265235Y384977D02*X267735D01*
X267235Y387477D02*Y383477D01*
X259809Y363280D02*X261109D01*
X259109Y363980D02*X259809Y363280D01*
X259109Y366580D02*Y363980D01*
Y366580D02*X259809Y367280D01*
X261109D01*
X262309Y366480D02*X263109Y367280D01*
Y363280D01*
X262309D02*X263809D01*
X265009Y367280D02*X267009D01*
X265009D02*Y365280D01*
X265509Y365780D01*
X266509D01*
X267009Y365280D01*
Y363780D01*
X266509Y363280D02*X267009Y363780D01*
X265509Y363280D02*X266509D01*
X265009Y363780D02*X265509Y363280D01*
X277967Y412602D02*Y409102D01*
X278467Y408602D01*
X279467D01*
X279967Y409102D01*
Y412602D02*Y409102D01*
X281167Y410102D02*X283167Y412602D01*
X281167Y410102D02*X283667D01*
X283167Y412602D02*Y408602D01*
X237954Y396502D02*Y393002D01*
X238454Y392502D01*
X239454D01*
X239954Y393002D01*
Y396502D02*Y393002D01*
X241154Y396002D02*X241654Y396502D01*
X242654D01*
X243154Y396002D01*
X242654Y392502D02*X243154Y393002D01*
X241654Y392502D02*X242654D01*
X241154Y393002D02*X241654Y392502D01*
Y394702D02*X242654D01*
X243154Y396002D02*Y395202D01*
Y394202D02*Y393002D01*
Y394202D02*X242654Y394702D01*
X243154Y395202D02*X242654Y394702D01*
M02*
