G04 start of page 2 for group 0 idx 0 *
G04 Title: (unknown), component *
G04 Creator: pcb 1.99z *
G04 CreationDate: Sun 23 Jun 2013 09:16:34 AM GMT UTC *
G04 For: p *
G04 Format: Gerber/RS-274X *
G04 PCB-Dimensions (mil): 6000.00 5000.00 *
G04 PCB-Coordinate-Origin: lower left *
%MOIN*%
%FSLAX25Y25*%
%LNTOP*%
%ADD39C,0.0433*%
%ADD38C,0.0630*%
%ADD37C,0.0433*%
%ADD36C,0.1969*%
%ADD35C,0.0354*%
%ADD34C,0.0197*%
%ADD33C,0.0500*%
%ADD32C,0.0600*%
%ADD31R,0.0637X0.0637*%
%ADD30R,0.1063X0.1063*%
%ADD29R,0.0433X0.0433*%
%ADD28R,0.2362X0.2362*%
%ADD27R,0.0630X0.0630*%
%ADD26R,0.0551X0.0551*%
%ADD25R,0.0394X0.0394*%
%ADD24R,0.0200X0.0200*%
%ADD23R,0.0236X0.0236*%
%ADD22R,0.0800X0.0800*%
%ADD21R,0.0110X0.0110*%
%ADD20R,0.0512X0.0512*%
%ADD19C,0.0669*%
%ADD18C,0.0001*%
%ADD17C,0.0787*%
%ADD16C,0.0709*%
%ADD15C,0.0080*%
%ADD14C,0.0200*%
%ADD13C,0.0250*%
%ADD12C,0.0400*%
%ADD11C,0.0100*%
G54D11*X222500Y421000D02*X225000D01*
X232500Y428500D01*
G54D12*X195500Y421000D02*X222500D01*
X229980Y410980D02*X203456D01*
X202456Y411980D01*
X195435Y421000D02*X193565D01*
X188500Y415935D01*
X229980Y410980D02*X237508Y418508D01*
G54D11*X252414Y421000D02*X246500Y426914D01*
X271414Y361000D02*X256697Y346283D01*
G54D13*X259304Y365181D02*Y358181D01*
G54D11*X255115Y355592D02*Y368592D01*
X253115Y369592D02*Y356592D01*
X243422Y346898D02*X253115Y356592D01*
X251115Y357591D02*Y370592D01*
X249115Y358592D02*Y371592D01*
X247115Y359591D02*Y372592D01*
X245115Y360592D02*Y373592D01*
X243115Y362592D02*Y374592D01*
X241115Y375592D02*Y363592D01*
G54D13*X254390Y384867D02*X260304D01*
G54D11*X252390Y391867D02*X243414Y382891D01*
X246115Y382592D02*X253390Y389867D01*
X269201Y370307D02*X256831D01*
X270201Y372307D02*X255831D01*
X271201Y374307D02*X254831D01*
X255115Y368592D02*X256831Y370307D01*
X255831Y372307D02*X253115Y369592D01*
X251115Y370592D02*X254831Y374307D01*
X249115Y371592D02*X253831Y376307D01*
X272201D02*X253831D01*
X247115Y372592D02*X252831Y378307D01*
X241115Y384592D02*X253201Y396678D01*
X239115Y386592D02*X251170Y398646D01*
X245115Y373592D02*X251831Y380307D01*
X243115Y374592D02*X246115Y377592D01*
Y382592D01*
G54D12*X221537Y359898D02*Y390221D01*
G54D11*X243414Y382891D02*Y377891D01*
X241115Y375592D01*
X239115Y364639D02*Y376592D01*
X241115Y378592D01*
X237115Y367592D02*Y377592D01*
X239115Y379592D01*
X241115Y378592D02*Y384592D01*
X239115Y379592D02*Y386592D01*
X219115Y351592D02*X221115D01*
X237115Y367592D01*
G54D12*X188500Y412024D02*Y416000D01*
X193456Y399569D02*X193312Y399713D01*
X182456Y388980D02*Y405980D01*
X188456Y411980D02*X182456Y405980D01*
X193456Y390980D02*Y399569D01*
X182456Y388980D02*X188456Y382980D01*
G54D13*X189456Y381980D02*X182456Y374980D01*
G54D12*X237508Y418508D02*Y438898D01*
X242500Y443891D01*
Y469120D01*
G54D11*X232500D02*Y428500D01*
X252500Y473120D02*X252508Y426906D01*
X272508Y427928D02*X272500Y473120D01*
X266508Y429928D02*Y445159D01*
X262508Y422906D02*X262500Y473120D01*
X256508Y425906D02*Y445159D01*
X272800Y400615D02*X252414Y421000D01*
X272456Y412959D02*X262508Y422906D01*
X275894Y406520D02*X256508Y425906D01*
X274863Y404552D02*X252508Y426906D01*
X273831Y402583D02*X250414Y426000D01*
Y438086D02*X247500Y441000D01*
X250414Y426000D02*Y438086D01*
X246500Y426914D02*Y433000D01*
X301138Y352307D02*Y339244D01*
X291295Y352307D02*Y348402D01*
X289201Y346307D01*
X285201D01*
X295201Y341307D02*X297201Y343307D01*
X289327Y352307D02*X287201D01*
X298201Y336307D02*X294201D01*
X299201Y334307D02*X295201D01*
X300201Y332307D02*X296201D01*
G54D13*X285201Y334307D02*Y338393D01*
X288115Y341307D01*
G54D11*X293264Y352307D02*Y356244D01*
X292201Y357307D01*
X288201D01*
X293201Y359307D02*X287201D01*
X295232Y352307D02*Y357276D01*
X293201Y359307D01*
X299169Y352307D02*Y358780D01*
X303697Y363307D01*
X280390Y367150D02*X284854D01*
X280390Y359976D02*Y361244D01*
X284854Y367150D02*X286697Y365307D01*
Y361804D01*
X278697Y339804D02*X285201Y346307D01*
X287201Y352307D02*X275697Y340804D01*
X288201Y357307D02*X273697Y342804D01*
X287201Y359307D02*X270697Y342804D01*
X275697Y357307D02*X277722D01*
X286697Y361804D02*X267304Y342411D01*
X277722Y357307D02*X280390Y359976D01*
Y365181D02*X272390D01*
G54D13*X266390D01*
G54D11*X280390Y363213D02*X276628D01*
X274414Y361000D01*
X271414D01*
X280390Y375024D02*X273484D01*
X272201Y376307D01*
X280390Y376993D02*X274516D01*
X273201Y378307D01*
X280390Y378961D02*X275547D01*
X274201Y380307D01*
X274390Y384867D02*X280390D01*
Y388804D02*X275453D01*
X274390Y389867D01*
X280390Y390772D02*X276484D01*
X275390Y391867D01*
X280390Y392741D02*X285516D01*
X287390Y390867D01*
G54D13*X274390Y384867D02*X267390D01*
G54D11*X274390Y389867D02*X253390D01*
X275390Y391867D02*X252390D01*
X273201Y378307D02*X252831D01*
X274201Y380307D02*X251831D01*
X280390Y396678D02*X253201D01*
X280390Y398646D02*X251170D01*
X302067Y285898D02*X323201Y307032D01*
X301067Y287898D02*X321201Y308032D01*
X300067Y289898D02*X319201Y309032D01*
X323201Y307032D02*Y326307D01*
X321201Y308032D02*Y325307D01*
X319201Y309032D02*Y324307D01*
X316201Y309033D02*X317201Y310033D01*
Y323307D01*
X316201Y324307D01*
X312949Y330559D02*X319201Y324307D01*
X309012Y328496D02*X315201Y322307D01*
X316886Y332622D02*X323201Y326307D01*
X314917Y331591D02*X321201Y325307D01*
X298067Y293898D02*X315201Y311032D01*
Y322307D01*
X280390Y369119D02*X270390D01*
X269201Y370307D01*
X280390Y371087D02*X271421D01*
X280390Y373056D02*X272453D01*
X280390Y394709D02*X316476D01*
X271421Y371087D02*X270201Y372307D01*
X272453Y373056D02*X271201Y374307D01*
X287115Y424592D02*X289327Y422380D01*
X293264Y417426D02*Y432150D01*
X291296Y417426D02*Y430371D01*
X280390Y408489D02*X276926D01*
X272414Y413000D01*
X280390Y406520D02*X275894D01*
X280390Y404552D02*X274863D01*
X280390Y402583D02*X273831D01*
X280390Y400615D02*X272800D01*
X289327Y417426D02*Y422380D01*
X293456Y406980D02*X272508Y427928D01*
X291456Y404980D02*X266508Y429928D01*
X314918Y411426D02*Y417426D01*
X318855D02*Y408379D01*
X317456Y406980D01*
X320823Y417426D02*Y407347D01*
X318456Y404980D01*
X291456D01*
X227422Y278398D02*Y283898D01*
X222422Y278398D02*Y283898D01*
X217422Y278398D02*Y284898D01*
X230422Y297898D02*X261792D01*
X226422Y299898D02*X260792D01*
X222422Y301898D02*X259792D01*
X219422Y303898D02*X257288D01*
X216422Y305898D02*X256288D01*
X213422Y307898D02*X255288D01*
X252422Y316898D02*Y321898D01*
X242422Y316898D02*Y323898D01*
X246422Y327898D01*
X237422Y323898D02*X243422Y329898D01*
X252422Y321898D02*X267304Y336781D01*
X247422Y316898D02*Y323971D01*
X232422Y316898D02*Y324898D01*
X239422Y331898D01*
X217422Y316898D02*Y324898D01*
X227422Y316898D02*Y324898D01*
X222422Y316898D02*Y325898D01*
X207422Y309898D02*X254508D01*
X239422Y331898D02*Y345898D01*
X243422Y329898D02*Y346898D01*
X246422D02*Y327898D01*
X256697Y333246D02*Y346283D01*
X246422Y346898D02*X255115Y355592D01*
X239422Y345898D02*X251115Y357591D01*
X233422Y342898D02*X249115Y358592D01*
X228422Y340898D02*X247115Y359591D01*
X224422Y339898D02*X245115Y360592D01*
X220422Y339898D02*X243115Y362592D01*
X241115Y363592D02*X219422Y341898D01*
X214456Y343980D02*X218456D01*
X239115Y364639D01*
X268702Y272398D02*X206422D01*
G54D13*X252422Y278398D02*X258422D01*
G54D11*X268702Y272398D02*X277372Y281068D01*
G54D12*X256000Y258000D02*X246523D01*
X246422Y257898D01*
X212500Y267500D02*X258500D01*
X212500D02*Y258414D01*
X212914Y258000D01*
X220000D02*X232000D01*
G54D11*X295233Y433181D02*X286508Y441906D01*
Y445159D01*
X293264Y432150D02*X282508Y442906D01*
X291296Y430371D02*X276508Y445159D01*
X282508Y442906D02*X282500Y473120D01*
X292500D02*Y441914D01*
X301138Y411426D02*Y417426D01*
X317456Y406980D02*X293456D01*
X309012Y417426D02*Y426402D01*
X307044Y417426D02*Y425370D01*
X305414Y427000D01*
X305075Y417426D02*Y424339D01*
X303107Y417426D02*Y423307D01*
X305075Y424339D02*X303414Y426000D01*
X303107Y423307D02*X301414Y425000D01*
G54D13*X317760Y432425D02*X323760D01*
G54D11*X316335Y437000D02*X324414D01*
X313760Y434425D02*X316335Y437000D01*
X311760Y429425D02*Y435346D01*
X315414Y439000D01*
X320349D01*
X309760Y436346D02*X314414Y441000D01*
X318414D01*
X307414Y437000D02*X313414Y443000D01*
X314349D01*
X316508Y445159D01*
X322500Y445086D02*X318414Y441000D01*
X312500Y473120D02*Y445086D01*
X322500Y473120D02*Y445086D01*
X309012Y426402D02*X307414Y428000D01*
X309760Y428425D02*Y436346D01*
X307414Y428000D02*Y437000D01*
X306508Y442094D02*Y445159D01*
X312500Y445086D02*X305414Y438000D01*
Y427000D02*Y438000D01*
X303414Y426000D02*Y439000D01*
X306508Y442094D01*
X301414Y425000D02*Y441000D01*
X302508Y442094D01*
X299170Y417426D02*Y442497D01*
X296508Y445159D01*
X292500Y441914D02*X297201Y437213D01*
Y417426D02*Y437213D01*
X295233Y417426D02*Y433181D01*
G54D12*X197422Y368898D02*Y347985D01*
G54D11*X197422Y316898D02*Y326946D01*
X192422Y316898D02*Y323898D01*
X194115Y325592D01*
Y326592D01*
X212422Y316898D02*Y325898D01*
X207422Y316898D02*Y326898D01*
X202422Y316898D02*Y328898D01*
G54D13*X187422Y316898D02*Y327860D01*
X188456Y328894D01*
G54D12*Y335980D02*Y339013D01*
X197422Y347980D01*
G54D11*X197422Y326946D02*X214456Y343980D01*
G54D13*X188456Y328894D02*X185541D01*
X182456Y331980D01*
Y374980D01*
G54D11*X217422Y324898D02*X228422Y335898D01*
X212422Y325898D02*X224422Y337898D01*
Y339898D01*
X228422Y335898D02*Y340898D01*
X222422Y325898D02*X233422Y336898D01*
Y342898D01*
X207422Y326898D02*X220422Y339898D01*
X202422Y328898D02*X215422Y341898D01*
X219422D02*X215422D01*
X194115Y326592D02*X219115Y351592D01*
G54D12*X221508Y359898D02*X213422D01*
X211422Y357898D01*
X204500Y347500D02*X211500Y354500D01*
Y357977D01*
G54D11*X227422Y283898D02*X237422Y293898D01*
X222422Y283898D02*X234422Y295898D01*
X217422Y284898D02*X230422Y297898D01*
X237422Y316898D02*Y323898D01*
X212422Y278398D02*Y285898D01*
X207422Y278398D02*Y286898D01*
X202422Y278398D02*Y286898D01*
X197422Y278398D02*Y286898D01*
X216422Y305898D01*
X192422Y286898D02*X213422Y307898D01*
X187422Y289898D02*X207422Y309898D01*
X212422Y285898D02*X226422Y299898D01*
X207422Y286898D02*X222422Y301898D01*
X202422Y286898D02*X219422Y303898D01*
X187422Y278398D02*Y289898D01*
X183909Y271072D02*Y265985D01*
X184823Y265072D01*
X192422Y278398D02*Y286898D01*
X194679Y252099D02*Y262302D01*
X191909Y265072D01*
X201372Y254068D02*Y267348D01*
X206422Y272398D01*
G54D12*X232000Y258000D02*X232500Y257500D01*
G54D11*X247422Y278398D02*Y283898D01*
X249422Y285898D01*
X242422Y278398D02*Y283898D01*
X246422Y287898D01*
X237422Y278398D02*Y282898D01*
X244422Y289898D01*
X232422Y278398D02*Y282898D01*
X241422Y291898D01*
G54D12*X258500Y267500D02*X270000Y256000D01*
G54D11*X294372Y256068D02*X290905D01*
X287372Y259068D02*X246372Y218068D01*
X234372D02*X225372D01*
X260624Y228786D02*X290909Y259072D01*
X270466Y235628D02*X290905Y256068D01*
X292372Y252068D02*X276372Y236068D01*
X295372Y250068D02*X285372Y240068D01*
G54D13*X295000Y242000D02*Y220406D01*
X306406Y209000D01*
X310914D02*Y192731D01*
X317646Y186000D02*X310914Y192731D01*
Y209000D02*X306406D01*
G54D11*X318000Y208969D02*Y227317D01*
G54D12*X232500Y243500D02*Y257898D01*
X240939Y235061D02*X232500Y243500D01*
X240939Y235061D02*Y184639D01*
G54D11*X236372Y175068D02*X231096Y180344D01*
Y187789D01*
G54D12*X221254D02*Y197789D01*
G54D11*X225372Y218068D02*X211411Y204107D01*
Y187789D01*
X213372Y165068D02*X200372Y178068D01*
Y218068D01*
G54D12*X250780Y194639D02*Y184639D01*
G54D11*X276372Y182068D02*X269372Y175068D01*
X236372D01*
X260624Y187789D02*Y228786D01*
X270466Y189757D02*Y235628D01*
X276372Y236068D02*Y182068D01*
X285372Y240068D02*Y173068D01*
X277372Y165068D01*
X213372D01*
X200372Y218068D02*X189372Y229068D01*
Y251068D01*
X416508Y214898D02*X401987Y229419D01*
X408372Y227068D02*X417339D01*
X416508Y194898D02*X402902Y208505D01*
X391843Y203126D02*Y189126D01*
X382843Y203126D02*Y189126D01*
X396843Y197126D02*X404280D01*
X386189Y208505D02*X402902D01*
X404280Y197126D02*X416508Y184898D01*
X422508Y170898D02*Y221898D01*
X417339Y227068D01*
X391843Y178126D02*X387843Y174126D01*
X401987Y229419D02*X386189D01*
Y208505D02*X359189Y235505D01*
X363189Y242505D02*X389568Y216126D01*
X357189Y228779D02*X382843Y203126D01*
X361189Y238779D02*X383843Y216126D01*
X379987Y229419D02*X367508Y241898D01*
X371508Y243568D02*X377843Y237233D01*
X386028Y229419D02*X379987D01*
X389568Y216126D02*X391843D01*
X377843Y237233D02*X385461D01*
X384372Y251068D02*X408372Y227068D01*
G54D13*X395372Y274754D02*Y262754D01*
G54D11*X389372Y274154D02*Y257154D01*
X390858Y255667D01*
X395372D01*
X395885Y255154D01*
X411372D01*
X388939Y284271D02*X391371Y281839D01*
X382254Y281271D02*X389372Y274154D01*
X391371Y281839D02*X409057D01*
X411372Y284154D01*
X374796Y281271D02*X382254D01*
X370527Y281879D02*X373339Y279068D01*
X374372D01*
X376372Y277068D01*
Y274068D01*
X381372D01*
X384372Y271068D01*
Y262068D01*
X376508Y259898D02*Y266931D01*
X376372Y267068D01*
X384372Y255068D02*Y251068D01*
X416508Y164898D02*X422508Y170898D01*
X361843Y179040D02*Y175126D01*
G54D13*X361756Y186040D02*X361843Y186126D01*
G54D11*X382843Y182040D02*Y179126D01*
X377843Y174126D01*
Y168669D01*
X391843Y182040D02*Y178126D01*
X387843Y174126D02*Y168669D01*
G54D14*X374385Y161583D02*X387843D01*
X361843Y186040D02*X367928D01*
X372843Y181126D01*
Y163126D01*
X374385Y161583D01*
G54D11*X366372Y287785D02*X371281D01*
X374796Y284271D01*
X366372Y285817D02*X370250D01*
X374796Y281271D01*
X366372Y283848D02*X363126D01*
X358246Y281879D02*X370527D01*
X363126Y283848D02*X361256Y285718D01*
X366372Y277943D02*X356031D01*
X366372Y275974D02*X353999D01*
X366372Y279911D02*X369495D01*
X371508Y277898D01*
X417508Y339804D02*X413603D01*
X371341Y291722D02*X402508Y322889D01*
X410593D01*
X417508Y329804D01*
X411720Y335592D01*
X405115D01*
X374796Y284271D02*X388939D01*
X375371Y289753D02*X375372Y289754D01*
G54D13*X375363Y289753D02*X381285D01*
X381286Y289754D01*
G54D11*X370309Y293690D02*X393508Y316889D01*
X366372Y293690D02*X370309D01*
X366372Y291722D02*X371341D01*
X366372Y289753D02*X375371D01*
G54D13*X388372Y296754D02*Y289754D01*
G54D11*X338275Y275505D02*Y287505D01*
X336028Y289752D01*
X333313D01*
X340985Y285375D02*X341508Y285898D01*
X333313Y283847D02*X329359D01*
X333313Y285815D02*X328539D01*
X333313Y287784D02*X326327D01*
X341508Y285898D02*Y289898D01*
X346256Y290906D02*X341890Y295271D01*
X346256Y290906D02*Y279718D01*
X348372Y281602D02*Y291833D01*
X353256Y296718D02*X348372Y291833D01*
X350372Y283602D02*Y287861D01*
X310980Y329528D02*X316201Y324307D01*
Y309033D02*X311728Y304560D01*
X342952Y303330D02*Y314209D01*
X340983Y303330D02*Y313178D01*
X339015Y303330D02*Y312146D01*
X333313Y295658D02*X336429D01*
X337275Y296505D01*
Y299505D01*
X327201Y309579D01*
X334890Y307271D02*X329201Y312961D01*
X360256Y320632D02*Y316718D01*
X356731Y313193D01*
Y303329D02*Y313193D01*
X360256Y320632D02*X369170D01*
X324760Y336748D02*X331201Y330307D01*
X333201Y331307D02*X326728Y337780D01*
X335201Y321961D02*Y332307D01*
X330665Y336843D01*
X331201Y319937D02*X339015Y312122D01*
X340983Y313090D02*X333201Y320873D01*
X342952Y314209D02*X335201Y321961D01*
X346890Y303329D02*Y322517D01*
X348857Y323549D02*Y303329D01*
X350826D02*Y329580D01*
X343256Y319718D02*X337201Y325773D01*
X339201Y330206D02*X346890Y322517D01*
X341201Y331206D02*X348857Y323549D01*
X337201Y325773D02*Y334307D01*
X339201Y335307D02*Y330206D01*
X341201Y336307D02*Y331206D01*
X337201Y334307D02*X332634Y338874D01*
X237422Y293898D02*X298067D01*
X241422Y291898D02*X299067D01*
X234422Y295898D02*X262792D01*
X244422Y289898D02*X300067D01*
X246422Y287898D02*X301067D01*
X249422Y285898D02*X302067D01*
X290909Y259072D02*Y262605D01*
X297376Y269072D01*
X287372Y274068D02*Y259068D01*
G54D12*X295000Y242000D02*X323683D01*
G54D11*X295580Y250068D02*X314372D01*
X326372Y262068D01*
X292372Y252068D02*X300372D01*
X317372Y269068D01*
X326372Y262068D02*Y280860D01*
X317372Y269068D02*Y274647D01*
X328539Y285815D01*
X307611Y269068D02*X326327Y287784D01*
X297372Y269068D02*X320025Y291721D01*
X302372Y278068D02*X317993Y293689D01*
X301372Y281068D02*X317930Y297626D01*
X333313Y291721D02*X320025D01*
X333313Y293689D02*X317993D01*
X333313Y297626D02*X317930D01*
X294372Y256068D02*X307372Y269068D01*
X307611D01*
X287372Y274068D02*X291372Y278068D01*
X302372D01*
X277372Y281068D02*X301372D01*
X299067Y291898D02*X311728Y304560D01*
X327201Y309579D02*Y328307D01*
X320823Y334685D01*
X329201Y329307D02*X322791Y335717D01*
X318854Y333654D02*X325201Y327307D01*
X329201Y312961D02*Y329307D01*
X331201Y330307D02*Y319937D01*
X333201Y320873D02*Y331307D01*
X328508Y302898D02*X325201Y306206D01*
Y327307D01*
X297201Y330307D02*X262792Y295898D01*
X296201Y332307D02*X261792Y297898D01*
X295201Y334307D02*X260792Y299898D01*
X294201Y336307D02*X259792Y301898D01*
X257288Y303898D02*X278697Y325307D01*
X256288Y305898D02*X275697Y325307D01*
X278697D02*Y339804D01*
X275697Y325307D02*Y340804D01*
X255288Y307898D02*X273697Y326307D01*
Y342804D01*
X270697Y326087D02*Y342804D01*
X267304Y336781D02*Y342411D01*
X254508Y309898D02*X270697Y326087D01*
X256697Y333246D02*X247422Y323971D01*
G54D13*X346796Y248185D02*X352796D01*
G54D11*X354765Y270271D02*Y264930D01*
X352796Y270271D02*Y261271D01*
G54D13*Y255272D02*Y255271D01*
G54D12*Y261271D02*Y255272D01*
X336954Y255271D02*X352954D01*
G54D11*X354765Y264930D02*X357189Y262505D01*
X356733Y270271D02*Y265962D01*
X359189Y263505D01*
X358702Y266993D02*X361189Y264505D01*
X360670Y268025D02*X363189Y265505D01*
X342954Y270271D02*Y264271D01*
X339954Y261271D01*
X343843Y238382D02*X339954Y242271D01*
X332954Y259271D02*Y270183D01*
G54D12*X323683Y242000D02*X336954Y255271D01*
G54D11*X339954Y249271D02*X318000Y227317D01*
X340985Y270271D02*Y285375D01*
X346891Y270271D02*Y274083D01*
X345256Y275718D01*
X350828Y270271D02*Y275146D01*
X346256Y279718D01*
X350372Y279602D02*X348372Y281602D01*
X356031Y277943D02*X353256Y280718D01*
X353999Y275974D02*X350256Y279718D01*
X353296Y280678D02*X350372Y283602D01*
X354372Y285754D02*X358246Y281879D01*
X338275Y275505D02*X332954Y270183D01*
X326372Y280860D02*X329359Y283847D01*
X358702Y270271D02*Y266993D01*
X360670Y270271D02*Y268025D01*
X359189Y263505D02*Y235505D01*
X357189Y262505D02*Y232505D01*
X363189Y265505D02*Y242505D01*
X357189Y232473D02*Y228779D01*
X361189Y264505D02*Y238779D01*
X371508Y277898D02*Y243568D01*
X367508Y241898D02*Y259898D01*
X336000Y209000D03*
G54D13*X336843Y193126D02*X321843D01*
X336843D02*Y213126D01*
G54D11*X329843Y203126D02*X324000Y208969D01*
X318000D01*
X354843Y192126D02*X343843Y203126D01*
Y238382D01*
G54D13*X341843Y193126D02*Y186157D01*
X342000Y186000D01*
G54D11*X347843Y180126D02*X341843D01*
X354843Y179126D02*Y175126D01*
G54D13*X317606Y186040D02*X361756D01*
G54D11*X321843Y171126D02*X331843Y161126D01*
Y170126D02*X337843Y164126D01*
X336843Y171126D02*X339843Y168126D01*
X347843D01*
X337843Y164126D02*X350843D01*
X331843Y161126D02*X354735D01*
X331843Y177772D02*Y170126D01*
X321843Y171126D02*Y178126D01*
X336843Y177772D02*Y171126D01*
X354843Y175126D02*X347843Y168126D01*
X361843Y175126D02*X350843Y164126D01*
X354735Y161126D02*X368508Y174898D01*
X410603Y342804D02*X413603Y339804D01*
X393508Y316889D02*Y355906D01*
X405115Y335592D02*X396115Y344592D01*
X410603Y342804D02*Y346582D01*
X409422Y366898D02*X397422Y378898D01*
X417508Y386898D02*X411422D01*
X417508Y396898D02*X411422D01*
X397500Y388000D02*X400320D01*
X411422Y376898D02*X400320Y388000D01*
X411422Y386898D02*X401320Y397000D01*
X402320Y406000D02*X411422Y396898D01*
G54D13*X392508Y421898D02*X412508D01*
X417508Y416898D01*
G54D11*Y366898D02*X409422D01*
X417508Y376898D02*X411422D01*
X396115Y344592D02*Y356592D01*
X380822Y376363D02*X410603Y346582D01*
X417508Y349804D02*X398720Y368592D01*
X391593D01*
X382822Y377363D02*X391593Y368592D01*
X390336Y378898D02*Y375078D01*
X392822Y372592D01*
X301138Y339244D02*X298201Y336307D01*
X303106Y352307D02*Y338213D01*
X305075Y352307D02*Y337181D01*
X307043Y352307D02*Y336150D01*
X303106Y338213D02*X299201Y334307D01*
X305075Y337181D02*X300201Y332307D01*
X307043Y336150D02*X301201Y330307D01*
X297201D01*
Y343307D02*Y362307D01*
X309012Y352307D02*Y328496D01*
X310980Y352307D02*Y329528D01*
X312949Y352307D02*Y330559D01*
X314917Y352307D02*Y331591D01*
X316886Y352307D02*Y332622D01*
X318854Y333654D02*Y352307D01*
X320823Y334685D02*Y352307D01*
X322791Y335717D02*Y352307D01*
X324760D02*Y336748D01*
X326728Y337780D02*Y352307D01*
X330665Y336843D02*Y352307D01*
X332634Y338874D02*Y352307D01*
X334602D02*Y339906D01*
X336571Y352307D02*Y340937D01*
X334602Y339906D02*X339201Y335307D01*
X336571Y340937D02*X341201Y336307D01*
X338697Y341710D02*X350826Y329580D01*
X338697Y356307D02*Y341710D01*
X339508Y371087D02*X345508D01*
X351508Y349159D02*X335508Y365159D01*
X352794Y344872D02*X332508Y365159D01*
X324760Y417426D02*Y424339D01*
X323760Y425339D01*
G54D12*X324760Y389984D02*Y410425D01*
G54D11*Y417425D02*Y410425D01*
G54D12*X334571D01*
G54D11*Y410614D02*X334760Y410425D01*
X316886Y417426D02*Y427299D01*
X312949Y417426D02*Y428236D01*
X310981Y417426D02*Y427204D01*
X309760Y428425D01*
X316886Y427299D02*X313760Y430425D01*
Y434425D01*
X312949Y428236D02*X311760Y429425D01*
X320349Y439000D02*X326508Y445159D01*
X302508Y442094D02*X302500Y473120D01*
X332500D02*Y445086D01*
X324414Y437000D01*
X328697Y352307D02*Y359307D01*
X303697Y363307D02*X331697D01*
X338697Y356307D01*
X335508Y365159D02*Y379159D01*
X332508Y365159D02*Y381159D01*
X335508Y379159D02*X339247Y382898D01*
X345508D01*
G54D12*X297201Y362425D02*X324760Y389984D01*
G54D11*X332508Y381159D02*X338184Y386835D01*
X345508D01*
X339508Y396678D02*X345508D01*
Y400615D02*X341570D01*
X339760Y402425D01*
X336571Y412236D02*X334760Y410425D01*
X339760Y402425D02*Y408425D01*
G54D13*Y432425D02*X345760D01*
G54D11*X346414Y437000D02*X336414D01*
X334603Y435189D01*
X332634Y436220D02*X335414Y439000D01*
X340349D01*
X339414Y441000D02*X334414D01*
X330666Y437252D01*
X336571Y422150D02*X339760Y425339D01*
X336571Y417426D02*Y412236D01*
Y417236D02*Y422150D01*
X334603Y435189D02*Y417426D01*
X332634D02*Y436220D01*
X330666Y437252D02*Y417426D01*
X328697D02*Y438283D01*
X333414Y443000D01*
X334349D01*
X336508Y445159D01*
X373508Y357159D02*X361508Y369159D01*
G54D13*X371476Y379710D02*X366561Y384624D01*
Y385710D01*
G54D11*X355476Y392710D02*X370997D01*
X375414Y384771D02*Y374000D01*
X385822Y392592D02*X390414Y388000D01*
X378115Y374592D02*Y385592D01*
X370997Y392710D01*
X380822Y376363D02*Y385592D01*
X382822Y377363D02*Y386592D01*
X375414Y374000D02*X393508Y355906D01*
X396115Y356592D02*X378115Y374592D01*
X373414Y399000D02*X379822Y392592D01*
X385822D01*
X375124Y402583D02*X377115Y400592D01*
X380822Y385592D02*X371705Y394709D01*
X382822Y386592D02*X372414Y397000D01*
X397500D02*X401320D01*
X383414D02*X390414D01*
X397500Y415000D02*Y406000D01*
X402320D01*
G54D13*X390414Y415000D02*Y419805D01*
X392508Y421898D01*
G54D11*X388966Y404552D02*X390414Y406000D01*
G54D13*X369414Y415000D02*X390414D01*
G54D11*X345508Y404552D02*X388966D01*
X352414Y399000D02*X373414D01*
X345508Y402583D02*X375124D01*
X345508Y406520D02*X351869D01*
X345508Y408489D02*X350838D01*
X345508Y398646D02*X352060D01*
X352414Y399000D01*
X353414Y397000D02*X372414D01*
X361508Y369159D02*X345508D01*
X360611Y373056D02*X345508D01*
X361643Y375024D02*X345508D01*
X362674Y376993D02*X345508D01*
X351869Y406520D02*X372508Y427159D01*
X350838Y408489D02*X367500Y425151D01*
X339760Y408425D02*X362508Y431173D01*
X352500Y443086D02*X346414Y437000D01*
X340349Y439000D02*X346508Y445159D01*
X342500Y473120D02*X342508Y444094D01*
X339414Y441000D01*
G54D13*X353633Y384867D02*X358633D01*
X359476Y385710D01*
G54D11*X345508Y384867D02*X353508D01*
X345508Y388804D02*X354570D01*
X356476Y390710D01*
X352444Y392741D02*X354413Y394709D01*
X345508Y394709D02*X351122D01*
X353414Y397000D01*
X354413Y394709D02*X371705D01*
X372508Y427159D02*X372500Y477120D01*
X367500Y425151D02*Y444000D01*
X362508Y431173D02*Y469113D01*
X362500Y469120D01*
G54D13*X367414Y413000D02*X369414Y415000D01*
G54D11*X352500Y469120D02*Y443086D01*
G54D13*X352508Y354159D02*X358508D01*
G54D11*X365594Y344072D02*Y337244D01*
X358508Y344159D02*X354763Y340414D01*
X358508Y344159D02*X353508Y349159D01*
X371508Y328970D02*Y356159D01*
X373508Y324970D02*Y357159D01*
X365594Y344159D02*Y358072D01*
X353508Y349159D02*X351508D01*
X375508Y324159D02*Y358159D01*
X377508Y323159D02*Y359159D01*
X379508Y316998D02*Y360159D01*
X382508Y316159D02*Y360159D01*
X385372Y311659D02*Y360295D01*
X367256Y324718D02*X371508Y328970D01*
X365594Y337244D02*X360256Y331907D01*
Y327718D01*
X369170Y320632D02*X373508Y324970D01*
X352794Y303330D02*Y344872D01*
X354763Y303330D02*Y340414D01*
X358700Y303329D02*Y307351D01*
X375508Y324159D01*
X360669Y303329D02*Y306319D01*
X377508Y323159D01*
X350372Y287861D02*X379508Y316998D01*
X366372Y297627D02*Y300022D01*
Y295659D02*X369372D01*
X366372Y300022D02*X382508Y316159D01*
X369372Y295659D02*X385372Y311659D01*
X345508Y392741D02*X352444D01*
X363706Y378961D02*X345508D01*
X364737Y380930D02*X345508D01*
Y390772D02*X353537D01*
X355476Y392710D01*
X345508Y365181D02*Y363213D01*
Y361244D02*X352508D01*
G54D13*X352594D02*X358508D01*
G54D11*X345508Y367150D02*X360517D01*
X356476Y390710D02*X369476D01*
X375414Y384771D01*
X360517Y367150D02*X371508Y356159D01*
X365594Y358072D02*X362508Y361159D01*
X358508D01*
X375508Y358159D02*X360611Y373056D01*
X377508Y359159D02*X361643Y375024D01*
X379508Y360159D02*X362674Y376993D01*
X382508Y360159D02*X363706Y378961D01*
X385372Y360295D02*X364737Y380930D01*
G54D15*X213844Y169331D02*X214344Y168831D01*
X213844Y172331D02*X214344Y172831D01*
X213844Y172331D02*Y169331D01*
X216044Y170831D02*X217544D01*
X215544Y170331D02*X216044Y170831D01*
X215544Y170331D02*Y169331D01*
X216044Y168831D01*
X217544D01*
X218744Y172831D02*X219244Y172331D01*
Y169331D01*
X218744Y168831D02*X219244Y169331D01*
X222244Y172331D02*X222744Y172831D01*
X224244D01*
X224744Y172331D01*
Y171331D01*
X222244Y168831D02*X224744Y171331D01*
X222244Y168831D02*X224744D01*
X225944Y169331D02*X226444Y168831D01*
X225944Y172331D02*Y169331D01*
Y172331D02*X226444Y172831D01*
X227444D01*
X227944Y172331D01*
Y169331D01*
X227444Y168831D02*X227944Y169331D01*
X226444Y168831D02*X227444D01*
X225944Y169831D02*X227944Y171831D01*
X229144Y172031D02*X229944Y172831D01*
Y168831D01*
X229144D02*X230644D01*
X231844Y172331D02*X232344Y172831D01*
X233344D01*
X233844Y172331D01*
X233344Y168831D02*X233844Y169331D01*
X232344Y168831D02*X233344D01*
X231844Y169331D02*X232344Y168831D01*
Y171031D02*X233344D01*
X233844Y172331D02*Y171531D01*
Y170531D02*Y169331D01*
Y170531D02*X233344Y171031D01*
X233844Y171531D02*X233344Y171031D01*
X237344Y170331D02*Y167331D01*
X236844Y170831D02*X237344Y170331D01*
X237844Y170831D01*
X238844D01*
X239344Y170331D01*
Y169331D01*
X238844Y168831D02*X239344Y169331D01*
X237844Y168831D02*X238844D01*
X237344Y169331D02*X237844Y168831D01*
X240544Y170831D02*Y169331D01*
X241044Y168831D01*
X241544D01*
X242044Y169331D01*
Y170831D02*Y169331D01*
X242544Y168831D01*
X243044D01*
X243544Y169331D01*
Y170831D02*Y169331D01*
X244744Y171831D02*Y171731D01*
Y170331D02*Y168831D01*
X214343Y160626D02*Y157626D01*
X213843Y161126D02*X214343Y160626D01*
X214843Y161126D01*
X215843D01*
X216343Y160626D01*
Y159626D01*
X215843Y159126D02*X216343Y159626D01*
X214843Y159126D02*X215843D01*
X214343Y159626D02*X214843Y159126D01*
X217543D02*X218043D01*
X219243Y163126D02*X221243D01*
X219243D02*Y161126D01*
X219743Y161626D01*
X220743D01*
X221243Y161126D01*
Y159626D01*
X220743Y159126D02*X221243Y159626D01*
X219743Y159126D02*X220743D01*
X219243Y159626D02*X219743Y159126D01*
X222443Y161126D02*X223443Y159126D01*
X224443Y161126D02*X223443Y159126D01*
X225643Y160626D02*X227643Y163126D01*
X225643Y160626D02*X228143D01*
X227643Y163126D02*Y159126D01*
X231643Y160626D02*Y159126D01*
Y160626D02*X232143Y161126D01*
X233143D01*
X231143D02*X231643Y160626D01*
X234843Y159126D02*X236343D01*
X234343Y159626D02*X234843Y159126D01*
X234343Y160626D02*Y159626D01*
Y160626D02*X234843Y161126D01*
X235843D01*
X236343Y160626D01*
X234343Y160126D02*X236343D01*
Y160626D02*Y160126D01*
X237543Y161126D02*X238543Y159126D01*
X239543Y161126D02*X238543Y159126D01*
X240743D02*X241243D01*
X242443Y162326D02*X243243Y163126D01*
Y159126D01*
X242443D02*X243943D01*
X245143D02*X245643D01*
X246843Y162326D02*X247643Y163126D01*
Y159126D01*
X246843D02*X248343D01*
G54D16*X417508Y349804D03*
Y339804D03*
Y329804D03*
Y319804D03*
Y309804D03*
X416508Y214898D03*
Y204898D03*
Y194898D03*
Y184898D03*
Y174898D03*
Y164898D03*
G54D17*X417508Y416898D03*
Y406898D03*
Y396898D03*
Y386898D03*
Y376898D03*
Y366898D03*
X222456Y420980D03*
Y410980D03*
G54D18*G36*
X212163Y401532D02*Y395532D01*
X218163D01*
Y401532D01*
X212163D01*
G37*
G36*
X220037D02*Y395532D01*
X226037D01*
Y401532D01*
X220037D01*
G37*
G36*
Y393658D02*Y387658D01*
X226037D01*
Y393658D01*
X220037D01*
G37*
G36*
X212163D02*Y387658D01*
X218163D01*
Y393658D01*
X212163D01*
G37*
G36*
X220037Y385784D02*Y379784D01*
X226037D01*
Y385784D01*
X220037D01*
G37*
G36*
X212163D02*Y379784D01*
X218163D01*
Y385784D01*
X212163D01*
G37*
G36*
X227911Y401532D02*Y395532D01*
X233911D01*
Y401532D01*
X227911D01*
G37*
G36*
Y393658D02*Y387658D01*
X233911D01*
Y393658D01*
X227911D01*
G37*
G36*
Y385784D02*Y379784D01*
X233911D01*
Y385784D01*
X227911D01*
G37*
G54D19*X277372Y269068D03*
X287372D03*
X297372D03*
X307372D03*
X317372D03*
G54D20*X397500Y406393D02*Y405607D01*
X390414Y406393D02*Y405607D01*
X397500Y397393D02*Y396607D01*
X390414Y397393D02*Y396607D01*
X397500Y388393D02*Y387607D01*
X390414Y388393D02*Y387607D01*
X397422Y379291D02*Y378505D01*
X390336Y379291D02*Y378505D01*
X397500Y415393D02*Y414607D01*
X390414Y415393D02*Y414607D01*
G54D21*X343059Y378961D02*X347957D01*
X343059Y380930D02*X347957D01*
X343059Y382898D02*X347957D01*
X343059Y384867D02*X347957D01*
X343059Y386835D02*X347957D01*
X343059Y388804D02*X347957D01*
X343059Y390772D02*X347957D01*
X343059Y392741D02*X347957D01*
X343059Y394709D02*X347957D01*
G54D20*X366562Y386103D02*Y385317D01*
X359476Y386103D02*Y385317D01*
X365594Y344552D02*Y343766D01*
X358508Y344552D02*Y343766D01*
X359863Y327718D02*X360649D01*
X359863Y320632D02*X360649D01*
X385796Y229419D02*X386582D01*
X385796Y236505D02*X386582D01*
X382450Y189126D02*X383236D01*
X382450Y182040D02*X383236D01*
X391450Y189126D02*X392236D01*
X391450Y182040D02*X392236D01*
X377450Y161583D02*X378236D01*
X377450Y168669D02*X378236D01*
X387450Y161583D02*X388236D01*
X387450Y168669D02*X388236D01*
X352403Y248185D02*X353189D01*
X352403Y255271D02*X353189D01*
G54D22*X411372Y253754D02*Y239754D01*
G54D20*X383979Y255068D02*X384765D01*
G54D21*X364673Y275974D02*X368071D01*
X364673Y277942D02*X368071D01*
X364673Y279911D02*X368071D01*
X364673Y281879D02*X368071D01*
X364673Y283848D02*X368071D01*
X364673Y285816D02*X368071D01*
X364673Y287785D02*X368071D01*
X364673Y289753D02*X368071D01*
X364673Y291722D02*X368071D01*
G54D22*X411372Y291154D02*Y277154D01*
G54D21*X364673Y293690D02*X368071D01*
X364673Y295659D02*X368071D01*
X364673Y297627D02*X368071D01*
X360669Y305028D02*Y301630D01*
X358701Y305028D02*Y301630D01*
X356732Y305028D02*Y301630D01*
X354764Y305028D02*Y301630D01*
X352795Y305028D02*Y301630D01*
X350827Y305028D02*Y301630D01*
X348858Y305028D02*Y301630D01*
X346890Y305028D02*Y301630D01*
X344921Y305028D02*Y301630D01*
X339017Y271970D02*Y268572D01*
X340985Y271970D02*Y268572D01*
X342954Y271970D02*Y268572D01*
G54D20*X343928Y213519D02*Y212733D01*
G54D23*X341843Y196276D02*Y189976D01*
G54D21*X344922Y271970D02*Y268572D01*
X346891Y271970D02*Y268572D01*
X348859Y271970D02*Y268572D01*
X350828Y271970D02*Y268572D01*
X352796Y271970D02*Y268572D01*
X354765Y271970D02*Y268572D01*
X356733Y271970D02*Y268572D01*
X358702Y271970D02*Y268572D01*
X360670Y271970D02*Y268572D01*
G54D20*X361450Y186126D02*X362236D01*
X394979Y262753D02*X395765D01*
X394979Y255667D02*X395765D01*
X394979Y274753D02*X395765D01*
X394979Y281839D02*X395765D01*
X375979Y267068D02*X376765D01*
X375979Y274154D02*X376765D01*
X388372Y290147D02*Y289361D01*
X381286Y290147D02*Y289361D01*
X383979Y262154D02*X384765D01*
G54D24*X187422Y281398D02*Y275398D01*
G54D20*X188063Y335980D02*X188849D01*
X188063Y328894D02*X188849D01*
G54D24*X192422Y281398D02*Y275398D01*
G54D20*X191909Y265465D02*Y264679D01*
X184823Y265465D02*Y264679D01*
G54D24*X197422Y281398D02*Y275398D01*
X202422Y281398D02*Y275398D01*
X207422Y281398D02*Y275398D01*
X212422Y281398D02*Y275398D01*
X217422Y281398D02*Y275398D01*
X222422Y281398D02*Y275398D01*
X227422Y281398D02*Y275398D01*
G54D20*X220000Y258393D02*Y257607D01*
X212914Y258393D02*Y257607D01*
G54D25*X194678Y257021D02*Y247178D01*
G54D26*X189167Y256233D02*Y247966D01*
X201371Y256233D02*Y251903D01*
G54D24*X232422Y281398D02*Y275398D01*
X237422Y281398D02*Y275398D01*
X242422Y281398D02*Y275398D01*
X247422Y281398D02*Y275398D01*
X252422Y281398D02*Y275398D01*
G54D22*X232422Y258898D02*Y256898D01*
X246422Y258898D02*Y256898D01*
G54D24*X252422Y319898D02*Y313898D01*
X247422Y319898D02*Y313898D01*
X242422Y319898D02*Y313898D01*
X237422Y319898D02*Y313898D01*
X232422Y319898D02*Y313898D01*
X227422Y319898D02*Y313898D01*
X222422Y319898D02*Y313898D01*
X217422Y319898D02*Y313898D01*
X212422Y319898D02*Y313898D01*
X207422Y319898D02*Y313898D01*
X202422Y319898D02*Y313898D01*
X197422Y319898D02*Y313898D01*
X192422Y319898D02*Y313898D01*
X187422Y319898D02*Y313898D01*
G54D22*X188456Y412980D02*Y410980D01*
X202456Y412980D02*Y410980D01*
G54D27*X189571Y381603D02*X197052D01*
X189571Y399713D02*X197052D01*
G54D22*X211422Y358898D02*Y356898D01*
X197422Y358898D02*Y356898D01*
G54D28*X215163Y390658D02*X223037D01*
G54D29*X270465Y192808D02*Y186706D01*
X260623Y190840D02*Y184738D01*
X250780Y187690D02*Y181589D01*
X240938Y187690D02*Y181589D01*
X231095Y190840D02*Y184738D01*
X221253Y190840D02*Y184738D01*
X211410Y190840D02*Y184738D01*
X205013Y190840D02*Y184738D01*
X280308Y181785D02*Y175683D01*
G54D30*X297433Y175526D02*Y174344D01*
X186804Y175526D02*Y174344D01*
G54D31*X302500Y492748D02*Y461493D01*
X312500Y492748D02*Y461493D01*
X322500Y492748D02*Y461493D01*
X332500Y492748D02*Y461493D01*
X342500Y492748D02*Y461493D01*
X352500Y492748D02*Y461493D01*
X362500Y492748D02*Y461493D01*
X372500Y492748D02*Y461493D01*
G54D20*X260304Y385260D02*Y384474D01*
X267390Y385260D02*Y384474D01*
G54D21*X289327Y354757D02*Y349859D01*
X291295Y354757D02*Y349859D01*
X293264Y354757D02*Y349859D01*
X295232Y354757D02*Y349859D01*
X297201Y354757D02*Y349859D01*
X299169Y354757D02*Y349859D01*
X301138Y354757D02*Y349859D01*
X303106Y354757D02*Y349859D01*
X305075Y354757D02*Y349859D01*
G54D20*X288115Y341700D02*Y340914D01*
X295201Y341700D02*Y340914D01*
G54D21*X307043Y354757D02*Y349859D01*
X309012Y354757D02*Y349859D01*
X310980Y354757D02*Y349859D01*
X312949Y354757D02*Y349859D01*
X314917Y354757D02*Y349859D01*
X316886Y354757D02*Y349859D01*
X318854Y354757D02*Y349859D01*
X320823Y354757D02*Y349859D01*
X322791Y354757D02*Y349859D01*
X324760Y354757D02*Y349859D01*
X326728Y354757D02*Y349859D01*
X328697Y354757D02*Y349859D01*
X330665Y354757D02*Y349859D01*
X332634Y354757D02*Y349859D01*
X334602Y354757D02*Y349859D01*
X336571Y354757D02*Y349859D01*
G54D20*X358115Y354159D02*X358901D01*
G54D21*X343059Y361245D02*X347957D01*
X343059Y363213D02*X347957D01*
X343059Y365182D02*X347957D01*
X343059Y367150D02*X347957D01*
G54D20*X358115Y361245D02*X358901D01*
G54D21*X343059Y369119D02*X347957D01*
X343059Y371087D02*X347957D01*
X343059Y373056D02*X347957D01*
X343059Y375024D02*X347957D01*
X343059Y376993D02*X347957D01*
G54D20*X259304Y365574D02*Y364788D01*
X266390Y365574D02*Y364788D01*
G54D21*X277941Y386836D02*X282839D01*
X277941Y384867D02*X282839D01*
X277941Y382899D02*X282839D01*
X277941Y380930D02*X282839D01*
X277941Y378962D02*X282839D01*
X277941Y376993D02*X282839D01*
X277941Y375025D02*X282839D01*
X277941Y373056D02*X282839D01*
X277941Y371088D02*X282839D01*
X277941Y369119D02*X282839D01*
X277941Y367151D02*X282839D01*
X277941Y365182D02*X282839D01*
X277941Y363214D02*X282839D01*
X277941Y361245D02*X282839D01*
G54D31*X262500Y492748D02*Y461493D01*
X272500Y492748D02*Y461493D01*
X232500Y492748D02*Y461493D01*
X242500Y492748D02*Y461493D01*
X252500Y492748D02*Y461493D01*
X282500Y492748D02*Y461493D01*
X292500Y492748D02*Y461493D01*
G54D21*X343059Y396678D02*X347957D01*
X343059Y398646D02*X347957D01*
X343059Y400615D02*X347957D01*
X343059Y402583D02*X347957D01*
X343059Y404552D02*X347957D01*
X343059Y406520D02*X347957D01*
X343059Y408489D02*X347957D01*
X336571Y419875D02*Y414977D01*
X334603Y419875D02*Y414977D01*
X332634Y419875D02*Y414977D01*
X330666Y419875D02*Y414977D01*
X328697Y419875D02*Y414977D01*
X326729Y419875D02*Y414977D01*
G54D20*X339367Y425339D02*X340153D01*
X323367D02*X324153D01*
X339367Y432425D02*X340153D01*
X323367D02*X324153D01*
G54D21*X324760Y419875D02*Y414977D01*
X322792Y419875D02*Y414977D01*
X320823Y419875D02*Y414977D01*
X318855Y419875D02*Y414977D01*
X316886Y419875D02*Y414977D01*
X314918Y419875D02*Y414977D01*
X312949Y419875D02*Y414977D01*
X310981Y419875D02*Y414977D01*
X309012Y419875D02*Y414977D01*
X307044Y419875D02*Y414977D01*
X305075Y419875D02*Y414977D01*
X303107Y419875D02*Y414977D01*
X301138Y419875D02*Y414977D01*
X299170Y419875D02*Y414977D01*
X297201Y419875D02*Y414977D01*
X295233Y419875D02*Y414977D01*
X293264Y419875D02*Y414977D01*
X291296Y419875D02*Y414977D01*
X289327Y419875D02*Y414977D01*
X277941Y408489D02*X282839D01*
X277941Y406521D02*X282839D01*
X277941Y404552D02*X282839D01*
X277941Y402584D02*X282839D01*
X277941Y400615D02*X282839D01*
X277941Y398647D02*X282839D01*
X277941Y396678D02*X282839D01*
X277941Y394710D02*X282839D01*
X277941Y392741D02*X282839D01*
X277941Y390773D02*X282839D01*
X277941Y388804D02*X282839D01*
X342953Y305028D02*Y301630D01*
X340984Y305028D02*Y301630D01*
X339016Y305028D02*Y301630D01*
X331615Y297626D02*X335013D01*
X331615Y295658D02*X335013D01*
X331615Y293689D02*X335013D01*
X331615Y291721D02*X335013D01*
X331615Y289752D02*X335013D01*
X331615Y287784D02*X335013D01*
X331615Y285815D02*X335013D01*
X331615Y283847D02*X335013D01*
X331615Y281878D02*X335013D01*
X331615Y279910D02*X335013D01*
X331615Y277941D02*X335013D01*
X331615Y275973D02*X335013D01*
G54D20*X336842Y213519D02*Y212733D01*
X318000Y209393D02*Y208607D01*
X310914Y209393D02*Y208607D01*
G54D23*X341843Y180921D02*Y174622D01*
G54D20*X361450Y179040D02*X362236D01*
G54D23*X336843Y180921D02*Y174622D01*
Y196276D02*Y189976D01*
X331843Y180921D02*Y174622D01*
Y196276D02*Y189976D01*
X326843Y196276D02*Y189976D01*
X321843Y196276D02*Y189976D01*
X326843Y180921D02*Y174622D01*
X321843Y180921D02*Y174622D01*
G54D12*X367500Y444000D03*
X371476Y379710D03*
X383414Y397000D03*
G54D32*X367414Y413000D03*
G54D12*X377115Y400592D03*
X352508Y354159D03*
X353508Y384867D03*
X352508Y361244D03*
X392822Y372592D03*
X275697Y357307D03*
X254390Y384867D03*
X259304Y358181D03*
G54D33*X272390Y365181D03*
G54D12*X274390Y384867D03*
G54D32*X197422Y368898D03*
X204500Y347500D03*
X221508Y359898D03*
G54D12*X297201Y362307D03*
X287390Y390867D03*
G54D32*X193456Y390980D03*
G54D12*X227422Y324898D03*
X285201Y334307D03*
G54D32*X258422Y278398D03*
X270000Y256000D03*
X295000Y242000D03*
G54D12*X271372Y275068D03*
G54D32*X212500Y267500D03*
X221254Y197789D03*
X256000Y258000D03*
G54D12*X246372Y218068D03*
X234372D03*
G54D32*X250780Y194639D03*
G54D12*X183909Y271072D03*
X328508Y302898D03*
X328697Y359307D03*
X339508Y371087D03*
Y396678D03*
G54D32*X324760Y389984D03*
G54D12*X316476Y394709D03*
X367508Y259898D03*
X346796Y248185D03*
X345256Y275718D03*
X341890Y295271D03*
X334890Y307271D03*
X341508Y289898D03*
X353256Y296718D03*
X343256Y319718D03*
G54D33*X352796Y261271D03*
G54D12*X339954Y261271D03*
Y249271D03*
X332954Y259271D03*
X339954Y242271D03*
X336843Y204126D03*
X329843Y203126D03*
X266508Y445159D03*
X256508D03*
X247500Y441000D03*
X246500Y433000D03*
X317760Y432425D03*
X287115Y424592D03*
X345760Y432425D03*
G54D32*X334760Y410425D03*
G54D12*X276508Y445159D03*
X296508D03*
X286508D03*
X306508D03*
X301138Y411426D03*
X314918D03*
X316508Y445159D03*
X326508D03*
X336508D03*
X346508D03*
X393508Y319898D03*
X388372Y296754D03*
X395372Y268754D03*
X376508Y259898D03*
X354372Y285754D03*
X391843Y216126D03*
Y203126D03*
X383843Y216126D03*
X396843Y197126D03*
X377843Y237233D03*
G54D33*X375372Y289754D03*
G54D12*X361256Y285718D03*
X367256Y324718D03*
X368508Y174898D03*
X354843Y192126D03*
Y179126D03*
X347843Y180126D03*
G54D34*G54D35*G54D34*G54D35*G54D34*G54D35*G54D34*G54D35*G54D34*G54D35*G54D36*G54D35*G54D34*G54D35*G54D34*G54D35*G54D34*G54D35*G54D34*G54D37*G54D35*G54D37*G54D38*G54D37*G54D39*M02*
