G04 start of page 10 for group -4015 idx -4015 *
G04 Title: (unknown), toppaste *
G04 Creator: pcb 1.99z *
G04 CreationDate: Tue 16 Sep 2014 08:23:19 PM GMT UTC *
G04 For: p *
G04 Format: Gerber/RS-274X *
G04 PCB-Dimensions (mil): 6000.00 5000.00 *
G04 PCB-Coordinate-Origin: lower left *
%MOIN*%
%FSLAX25Y25*%
%LNTOPPASTE*%
%ADD106R,0.0236X0.0236*%
%ADD105R,0.1063X0.1063*%
%ADD104R,0.0551X0.0551*%
%ADD103R,0.0394X0.0394*%
%ADD102R,0.0433X0.0433*%
%ADD101R,0.0630X0.0630*%
%ADD100R,0.2362X0.2362*%
%ADD99R,0.0110X0.0110*%
%ADD98R,0.0800X0.0800*%
%ADD97R,0.0512X0.0512*%
%ADD96R,0.0200X0.0200*%
%ADD95R,0.0637X0.0637*%
G54D95*X232455Y492728D02*Y461473D01*
X242455Y492728D02*Y461473D01*
X252455Y492728D02*Y461473D01*
X262455Y492728D02*Y461473D01*
X272455Y492728D02*Y461473D01*
X282455Y492728D02*Y461473D01*
X292455Y492728D02*Y461473D01*
X302455Y492728D02*Y461473D01*
X312455Y492728D02*Y461473D01*
X322455Y492728D02*Y461473D01*
X332455Y492728D02*Y461473D01*
X342455Y492728D02*Y461473D01*
X352455Y492728D02*Y461473D01*
X362455Y492728D02*Y461473D01*
X372455Y492728D02*Y461473D01*
G54D96*X187377Y275473D02*Y269473D01*
X192377Y275473D02*Y269473D01*
X197377Y275473D02*Y269473D01*
X202377Y275473D02*Y269473D01*
X207377Y275473D02*Y269473D01*
X212377Y275473D02*Y269473D01*
X217377Y275473D02*Y269473D01*
X222377Y275473D02*Y269473D01*
X227377Y275473D02*Y269473D01*
X232377Y275473D02*Y269473D01*
X237377Y275473D02*Y269473D01*
X242377Y275473D02*Y269473D01*
X247377Y275473D02*Y269473D01*
X252377Y275473D02*Y269473D01*
Y313973D02*Y307973D01*
X247377Y313973D02*Y307973D01*
X242377Y313973D02*Y307973D01*
X237377Y313973D02*Y307973D01*
X232377Y313973D02*Y307973D01*
X227377Y313973D02*Y307973D01*
X222377Y313973D02*Y307973D01*
X217377Y313973D02*Y307973D01*
X212377Y313973D02*Y307973D01*
X207377Y313973D02*Y307973D01*
X202377Y313973D02*Y307973D01*
X197377Y313973D02*Y307973D01*
X192377Y313973D02*Y307973D01*
X187377Y313973D02*Y307973D01*
G54D97*X397456Y400467D02*Y399681D01*
X390370Y400467D02*Y399681D01*
X397456Y391467D02*Y390681D01*
X390370Y391467D02*Y390681D01*
X397456Y382467D02*Y381681D01*
X390370Y382467D02*Y381681D01*
X397378Y373366D02*Y372580D01*
X390292Y373366D02*Y372580D01*
G54D98*X188411Y407054D02*Y405054D01*
X202411Y407054D02*Y405054D01*
G54D97*X188018Y330054D02*X188804D01*
X188018Y322968D02*X188804D01*
X260259Y379334D02*Y378548D01*
X267345Y379334D02*Y378548D01*
X259259Y359649D02*Y358863D01*
X266345Y359649D02*Y358863D01*
G54D99*X289282Y348831D02*Y343933D01*
X291250Y348831D02*Y343933D01*
X293219Y348831D02*Y343933D01*
X295187Y348831D02*Y343933D01*
X297156Y348831D02*Y343933D01*
X299124Y348831D02*Y343933D01*
X301093Y348831D02*Y343933D01*
X303061Y348831D02*Y343933D01*
X305030Y348831D02*Y343933D01*
X306998Y348831D02*Y343933D01*
X308967Y348831D02*Y343933D01*
X310935Y348831D02*Y343933D01*
X312904Y348831D02*Y343933D01*
X314872Y348831D02*Y343933D01*
X316841Y348831D02*Y343933D01*
X318809Y348831D02*Y343933D01*
X320778Y348831D02*Y343933D01*
X322746Y348831D02*Y343933D01*
X324715Y348831D02*Y343933D01*
X326683Y348831D02*Y343933D01*
X328652Y348831D02*Y343933D01*
X330620Y348831D02*Y343933D01*
X332589Y348831D02*Y343933D01*
X334557Y348831D02*Y343933D01*
X336526Y348831D02*Y343933D01*
X343014Y355319D02*X347912D01*
X343014Y357287D02*X347912D01*
X343014Y359256D02*X347912D01*
X343014Y361224D02*X347912D01*
X343014Y363193D02*X347912D01*
X343014Y365161D02*X347912D01*
X343014Y367130D02*X347912D01*
X343014Y369098D02*X347912D01*
X343014Y371067D02*X347912D01*
X343014Y373035D02*X347912D01*
X343014Y375004D02*X347912D01*
X343014Y376972D02*X347912D01*
X343014Y378941D02*X347912D01*
X343014Y380909D02*X347912D01*
X343014Y382878D02*X347912D01*
X343014Y384846D02*X347912D01*
X343014Y386815D02*X347912D01*
X343014Y388783D02*X347912D01*
X343014Y390752D02*X347912D01*
X343014Y392720D02*X347912D01*
X343014Y394689D02*X347912D01*
X343014Y396657D02*X347912D01*
X343014Y398626D02*X347912D01*
X343014Y400594D02*X347912D01*
X343014Y402563D02*X347912D01*
X336526Y413949D02*Y409051D01*
X334558Y413949D02*Y409051D01*
X332589Y413949D02*Y409051D01*
X330621Y413949D02*Y409051D01*
X328652Y413949D02*Y409051D01*
X326684Y413949D02*Y409051D01*
X324715Y413949D02*Y409051D01*
X322747Y413949D02*Y409051D01*
X320778Y413949D02*Y409051D01*
X318810Y413949D02*Y409051D01*
X316841Y413949D02*Y409051D01*
X314873Y413949D02*Y409051D01*
X312904Y413949D02*Y409051D01*
X310936Y413949D02*Y409051D01*
X308967Y413949D02*Y409051D01*
X306999Y413949D02*Y409051D01*
X305030Y413949D02*Y409051D01*
X303062Y413949D02*Y409051D01*
X301093Y413949D02*Y409051D01*
X299125Y413949D02*Y409051D01*
X297156Y413949D02*Y409051D01*
X295188Y413949D02*Y409051D01*
X293219Y413949D02*Y409051D01*
X291251Y413949D02*Y409051D01*
X289282Y413949D02*Y409051D01*
X277896Y402563D02*X282794D01*
X277896Y400595D02*X282794D01*
X277896Y398626D02*X282794D01*
X277896Y396658D02*X282794D01*
X277896Y394689D02*X282794D01*
X277896Y392721D02*X282794D01*
X277896Y390752D02*X282794D01*
X277896Y388784D02*X282794D01*
X277896Y386815D02*X282794D01*
X277896Y384847D02*X282794D01*
X277896Y382878D02*X282794D01*
X277896Y380910D02*X282794D01*
X277896Y378941D02*X282794D01*
X277896Y376973D02*X282794D01*
X277896Y375004D02*X282794D01*
X277896Y373036D02*X282794D01*
X277896Y371067D02*X282794D01*
X277896Y369099D02*X282794D01*
X277896Y367130D02*X282794D01*
X277896Y365162D02*X282794D01*
X277896Y363193D02*X282794D01*
X277896Y361225D02*X282794D01*
X277896Y359256D02*X282794D01*
X277896Y357288D02*X282794D01*
X277896Y355319D02*X282794D01*
G54D97*X339322Y419414D02*X340108D01*
X339322Y426500D02*X340108D01*
X323322Y419414D02*X324108D01*
X323322Y426500D02*X324108D01*
G54D98*X211377Y352973D02*Y350973D01*
X197377Y352973D02*Y350973D01*
G54D97*X358070Y348233D02*X358856D01*
X358070Y355319D02*X358856D01*
X366517Y380177D02*Y379391D01*
X359431Y380177D02*Y379391D01*
X288070Y335775D02*Y334989D01*
X295156Y335775D02*Y334989D01*
X397456Y409467D02*Y408681D01*
X390370Y409467D02*Y408681D01*
X385752Y223493D02*X386538D01*
X385752Y230579D02*X386538D01*
X375934Y261142D02*X376720D01*
X375934Y268228D02*X376720D01*
X352358Y242260D02*X353144D01*
X352358Y249346D02*X353144D01*
X388327Y284221D02*Y283435D01*
X381241Y284221D02*Y283435D01*
X382405Y183200D02*X383191D01*
X382405Y176114D02*X383191D01*
X391405Y183200D02*X392191D01*
X391405Y176114D02*X392191D01*
G54D99*X364628Y270048D02*X368026D01*
X364628Y272016D02*X368026D01*
X364628Y273985D02*X368026D01*
X364628Y275953D02*X368026D01*
X364628Y277922D02*X368026D01*
X364628Y279890D02*X368026D01*
X364628Y281859D02*X368026D01*
X364628Y283827D02*X368026D01*
X364628Y285796D02*X368026D01*
X364628Y287764D02*X368026D01*
X364628Y289733D02*X368026D01*
X364628Y291701D02*X368026D01*
X360624Y299102D02*Y295704D01*
X358656Y299102D02*Y295704D01*
X356687Y299102D02*Y295704D01*
X354719Y299102D02*Y295704D01*
X352750Y299102D02*Y295704D01*
X350782Y299102D02*Y295704D01*
X348813Y299102D02*Y295704D01*
X346845Y299102D02*Y295704D01*
X344876Y299102D02*Y295704D01*
X342908Y299102D02*Y295704D01*
X340939Y299102D02*Y295704D01*
X338971Y299102D02*Y295704D01*
X331570Y291700D02*X334968D01*
X331570Y289732D02*X334968D01*
X331570Y287763D02*X334968D01*
X331570Y285795D02*X334968D01*
X331570Y283826D02*X334968D01*
X331570Y281858D02*X334968D01*
X331570Y279889D02*X334968D01*
X331570Y277921D02*X334968D01*
X331570Y275952D02*X334968D01*
X331570Y273984D02*X334968D01*
X331570Y272015D02*X334968D01*
X331570Y270047D02*X334968D01*
X338972Y266044D02*Y262646D01*
X340940Y266044D02*Y262646D01*
X342909Y266044D02*Y262646D01*
X344877Y266044D02*Y262646D01*
X346846Y266044D02*Y262646D01*
X348814Y266044D02*Y262646D01*
X350783Y266044D02*Y262646D01*
X352751Y266044D02*Y262646D01*
X354720Y266044D02*Y262646D01*
X356688Y266044D02*Y262646D01*
X358657Y266044D02*Y262646D01*
X360625Y266044D02*Y262646D01*
G54D97*X191864Y259539D02*Y258753D01*
X184778Y259539D02*Y258753D01*
X219956Y252467D02*Y251681D01*
X212870Y252467D02*Y251681D01*
X365549Y338626D02*Y337840D01*
X358463Y338626D02*Y337840D01*
X359818Y321792D02*X360604D01*
X359818Y314706D02*X360604D01*
X394934Y256827D02*X395720D01*
X394934Y249741D02*X395720D01*
X394934Y268828D02*X395720D01*
X394934Y275914D02*X395720D01*
G54D98*X411327Y285228D02*Y271228D01*
Y247828D02*Y233828D01*
G54D97*X383934Y256228D02*X384720D01*
X383934Y249142D02*X384720D01*
G54D100*X215119Y384732D02*X222993D01*
G54D101*X189527Y375677D02*X197008D01*
X189527Y393787D02*X197008D01*
G54D98*X232377Y252973D02*Y250973D01*
X246377Y252973D02*Y250973D01*
G54D102*X270421Y186882D02*Y180780D01*
X260579Y184914D02*Y178812D01*
X250736Y181764D02*Y175663D01*
X240894Y181764D02*Y175663D01*
X231051Y184914D02*Y178812D01*
X221209Y184914D02*Y178812D01*
X211366Y184914D02*Y178812D01*
X204969Y184914D02*Y178812D01*
X280264Y175859D02*Y169757D01*
G54D103*X194634Y251095D02*Y241252D01*
G54D104*X201327Y250307D02*Y245977D01*
G54D105*X297389Y169600D02*Y168418D01*
X186760Y169600D02*Y168418D01*
G54D104*X189122Y250307D02*Y242040D01*
G54D97*X343884Y207593D02*Y206807D01*
X336798Y207593D02*Y206807D01*
X317956Y203467D02*Y202681D01*
X310870Y203467D02*Y202681D01*
G54D106*X341798Y174996D02*Y168696D01*
X336798Y174996D02*Y168696D01*
X331798Y174996D02*Y168696D01*
X326798Y174996D02*Y168696D01*
X321798Y174996D02*Y168696D01*
X341798Y190350D02*Y184051D01*
X336798Y190350D02*Y184051D01*
X331798Y190350D02*Y184051D01*
X326798Y190350D02*Y184051D01*
X321798Y190350D02*Y184051D01*
G54D97*X361405Y173114D02*X362191D01*
X361405Y180200D02*X362191D01*
X377405Y155657D02*X378191D01*
X377405Y162743D02*X378191D01*
X387405Y155657D02*X388191D01*
X387405Y162743D02*X388191D01*
M02*
