G04 start of page 10 for group -4015 idx -4015 *
G04 Title: (unknown), toppaste *
G04 Creator: pcb v4.1.3-ge2c36c29 *
G04 CreationDate: Mon Jan  1 13:57:32 2024 UTC *
G04 For: p *
G04 Format: Gerber/RS-274X *
G04 PCB-Dimensions (mm): 152.40 127.00 *
G04 PCB-Coordinate-Origin: lower left *
%MOMM*%
%FSLAX43Y43*%
%LNTOPPASTE*%
%ADD66C,0.002*%
G54D66*G36*
X59853Y125962D02*X58234D01*
Y116405D01*
X59853D01*
Y125962D01*
G37*
G36*
X62393D02*X60774D01*
Y116405D01*
X62393D01*
Y125962D01*
G37*
G36*
X64933D02*X63314D01*
Y116405D01*
X64933D01*
Y125962D01*
G37*
G36*
X67473D02*X65854D01*
Y116405D01*
X67473D01*
Y125962D01*
G37*
G36*
X70013D02*X68394D01*
Y116405D01*
X70013D01*
Y125962D01*
G37*
G36*
X72553D02*X70934D01*
Y116405D01*
X72553D01*
Y125962D01*
G37*
G36*
X75093D02*X73474D01*
Y116405D01*
X75093D01*
Y125962D01*
G37*
G36*
X77633D02*X76014D01*
Y116405D01*
X77633D01*
Y125962D01*
G37*
G36*
X80173D02*X78554D01*
Y116405D01*
X80173D01*
Y125962D01*
G37*
G36*
X82713D02*X81094D01*
Y116405D01*
X82713D01*
Y125962D01*
G37*
G36*
X85253D02*X83634D01*
Y116405D01*
X85253D01*
Y125962D01*
G37*
G36*
X87793D02*X86174D01*
Y116405D01*
X87793D01*
Y125962D01*
G37*
G36*
X90333D02*X88714D01*
Y116405D01*
X90333D01*
Y125962D01*
G37*
G36*
X92873D02*X91254D01*
Y116405D01*
X92873D01*
Y125962D01*
G37*
G36*
X95413D02*X93794D01*
Y116405D01*
X95413D01*
Y125962D01*
G37*
G36*
X47848Y70224D02*X47340D01*
Y68192D01*
X47848D01*
Y70224D01*
G37*
G36*
X49118D02*X48610D01*
Y68192D01*
X49118D01*
Y70224D01*
G37*
G36*
X50388D02*X49880D01*
Y68192D01*
X50388D01*
Y70224D01*
G37*
G36*
X51658D02*X51150D01*
Y68192D01*
X51658D01*
Y70224D01*
G37*
G36*
X52928D02*X52420D01*
Y68192D01*
X52928D01*
Y70224D01*
G37*
G36*
X54198D02*X53690D01*
Y68192D01*
X54198D01*
Y70224D01*
G37*
G36*
X55468D02*X54960D01*
Y68192D01*
X55468D01*
Y70224D01*
G37*
G36*
X56738D02*X56230D01*
Y68192D01*
X56738D01*
Y70224D01*
G37*
G36*
X58008D02*X57500D01*
Y68192D01*
X58008D01*
Y70224D01*
G37*
G36*
X59278D02*X58770D01*
Y68192D01*
X59278D01*
Y70224D01*
G37*
G36*
X60548D02*X60040D01*
Y68192D01*
X60548D01*
Y70224D01*
G37*
G36*
X61818D02*X61310D01*
Y68192D01*
X61818D01*
Y70224D01*
G37*
G36*
X63088D02*X62580D01*
Y68192D01*
X63088D01*
Y70224D01*
G37*
G36*
X64358D02*X63850D01*
Y68192D01*
X64358D01*
Y70224D01*
G37*
G36*
Y80003D02*X63850D01*
Y77971D01*
X64358D01*
Y80003D01*
G37*
G36*
X63088D02*X62580D01*
Y77971D01*
X63088D01*
Y80003D01*
G37*
G36*
X61818D02*X61310D01*
Y77971D01*
X61818D01*
Y80003D01*
G37*
G36*
X60548D02*X60040D01*
Y77971D01*
X60548D01*
Y80003D01*
G37*
G36*
X59278D02*X58770D01*
Y77971D01*
X59278D01*
Y80003D01*
G37*
G36*
X58008D02*X57500D01*
Y77971D01*
X58008D01*
Y80003D01*
G37*
G36*
X56738D02*X56230D01*
Y77971D01*
X56738D01*
Y80003D01*
G37*
G36*
X55468D02*X54960D01*
Y77971D01*
X55468D01*
Y80003D01*
G37*
G36*
X54198D02*X53690D01*
Y77971D01*
X54198D01*
Y80003D01*
G37*
G36*
X52928D02*X52420D01*
Y77971D01*
X52928D01*
Y80003D01*
G37*
G36*
X51658D02*X51150D01*
Y77971D01*
X51658D01*
Y80003D01*
G37*
G36*
X50388D02*X49880D01*
Y77971D01*
X50388D01*
Y80003D01*
G37*
G36*
X49118D02*X48610D01*
Y77971D01*
X49118D01*
Y80003D01*
G37*
G36*
X47848D02*X47340D01*
Y77971D01*
X47848D01*
Y80003D01*
G37*
G36*
X101604Y102369D02*X100304D01*
Y100869D01*
X101604D01*
Y102369D01*
G37*
G36*
X99804D02*X98504D01*
Y100869D01*
X99804D01*
Y102369D01*
G37*
G36*
X101604Y100083D02*X100304D01*
Y98583D01*
X101604D01*
Y100083D01*
G37*
G36*
X99804D02*X98504D01*
Y98583D01*
X99804D01*
Y100083D01*
G37*
G36*
X101604Y97797D02*X100304D01*
Y96297D01*
X101604D01*
Y97797D01*
G37*
G36*
X99804D02*X98504D01*
Y96297D01*
X99804D01*
Y97797D01*
G37*
G36*
X101584Y95485D02*X100284D01*
Y93985D01*
X101584D01*
Y95485D01*
G37*
G36*
X99784D02*X98484D01*
Y93985D01*
X99784D01*
Y95485D01*
G37*
G36*
X48872Y104408D02*X46840D01*
Y101868D01*
X48872D01*
Y104408D01*
G37*
G36*
X52428D02*X50396D01*
Y101868D01*
X52428D01*
Y104408D01*
G37*
G36*
X47107Y84484D02*Y83184D01*
X48606D01*
Y84484D01*
X47107D01*
G37*
G36*
Y82684D02*Y81384D01*
X48606D01*
Y82684D01*
X47107D01*
G37*
G36*
X66756Y97001D02*X65456D01*
Y95501D01*
X66756D01*
Y97001D01*
G37*
G36*
X68556D02*X67256D01*
Y95501D01*
X68556D01*
Y97001D01*
G37*
G36*
X66502Y92001D02*X65202D01*
Y90501D01*
X66502D01*
Y92001D01*
G37*
G36*
X68302D02*X67002D01*
Y90501D01*
X68302D01*
Y92001D01*
G37*
G36*
X73618Y88743D02*X73338D01*
Y87219D01*
X73618D01*
Y88743D01*
G37*
G36*
X74118D02*X73838D01*
Y87219D01*
X74118D01*
Y88743D01*
G37*
G36*
X74618D02*X74338D01*
Y87219D01*
X74618D01*
Y88743D01*
G37*
G36*
X75118D02*X74838D01*
Y87219D01*
X75118D01*
Y88743D01*
G37*
G36*
X75618D02*X75338D01*
Y87219D01*
X75618D01*
Y88743D01*
G37*
G36*
X76118D02*X75838D01*
Y87219D01*
X76118D01*
Y88743D01*
G37*
G36*
X76618D02*X76338D01*
Y87219D01*
X76618D01*
Y88743D01*
G37*
G36*
X77118D02*X76838D01*
Y87219D01*
X77118D01*
Y88743D01*
G37*
G36*
X77618D02*X77338D01*
Y87219D01*
X77618D01*
Y88743D01*
G37*
G36*
X78118D02*X77838D01*
Y87219D01*
X78118D01*
Y88743D01*
G37*
G36*
X78618D02*X78338D01*
Y87219D01*
X78618D01*
Y88743D01*
G37*
G36*
X79118D02*X78838D01*
Y87219D01*
X79118D01*
Y88743D01*
G37*
G36*
X79618D02*X79338D01*
Y87219D01*
X79618D01*
Y88743D01*
G37*
G36*
X80118D02*X79838D01*
Y87219D01*
X80118D01*
Y88743D01*
G37*
G36*
X80618D02*X80338D01*
Y87219D01*
X80618D01*
Y88743D01*
G37*
G36*
X81118D02*X80838D01*
Y87219D01*
X81118D01*
Y88743D01*
G37*
G36*
X81618D02*X81338D01*
Y87219D01*
X81618D01*
Y88743D01*
G37*
G36*
X82118D02*X81838D01*
Y87219D01*
X82118D01*
Y88743D01*
G37*
G36*
X82618D02*X82338D01*
Y87219D01*
X82618D01*
Y88743D01*
G37*
G36*
X83118D02*X82838D01*
Y87219D01*
X83118D01*
Y88743D01*
G37*
G36*
X83618D02*X83338D01*
Y87219D01*
X83618D01*
Y88743D01*
G37*
G36*
X84118D02*X83838D01*
Y87219D01*
X84118D01*
Y88743D01*
G37*
G36*
X84618D02*X84338D01*
Y87219D01*
X84618D01*
Y88743D01*
G37*
G36*
X85118D02*X84838D01*
Y87219D01*
X85118D01*
Y88743D01*
G37*
G36*
X85618D02*X85338D01*
Y87219D01*
X85618D01*
Y88743D01*
G37*
G36*
X86986Y90391D02*Y90111D01*
X88510D01*
Y90391D01*
X86986D01*
G37*
G36*
Y90891D02*Y90611D01*
X88510D01*
Y90891D01*
X86986D01*
G37*
G36*
Y91391D02*Y91111D01*
X88510D01*
Y91391D01*
X86986D01*
G37*
G36*
Y91891D02*Y91611D01*
X88510D01*
Y91891D01*
X86986D01*
G37*
G36*
Y92391D02*Y92111D01*
X88510D01*
Y92391D01*
X86986D01*
G37*
G36*
Y92891D02*Y92611D01*
X88510D01*
Y92891D01*
X86986D01*
G37*
G36*
Y93391D02*Y93111D01*
X88510D01*
Y93391D01*
X86986D01*
G37*
G36*
Y93891D02*Y93611D01*
X88510D01*
Y93891D01*
X86986D01*
G37*
G36*
Y94391D02*Y94111D01*
X88510D01*
Y94391D01*
X86986D01*
G37*
G36*
Y94891D02*Y94611D01*
X88510D01*
Y94891D01*
X86986D01*
G37*
G36*
Y95391D02*Y95111D01*
X88510D01*
Y95391D01*
X86986D01*
G37*
G36*
Y95891D02*Y95611D01*
X88510D01*
Y95891D01*
X86986D01*
G37*
G36*
Y96391D02*Y96111D01*
X88510D01*
Y96391D01*
X86986D01*
G37*
G36*
Y96891D02*Y96611D01*
X88510D01*
Y96891D01*
X86986D01*
G37*
G36*
Y97391D02*Y97111D01*
X88510D01*
Y97391D01*
X86986D01*
G37*
G36*
Y97891D02*Y97611D01*
X88510D01*
Y97891D01*
X86986D01*
G37*
G36*
Y98391D02*Y98111D01*
X88510D01*
Y98391D01*
X86986D01*
G37*
G36*
Y98891D02*Y98611D01*
X88510D01*
Y98891D01*
X86986D01*
G37*
G36*
Y99391D02*Y99111D01*
X88510D01*
Y99391D01*
X86986D01*
G37*
G36*
Y99891D02*Y99611D01*
X88510D01*
Y99891D01*
X86986D01*
G37*
G36*
Y100391D02*Y100111D01*
X88510D01*
Y100391D01*
X86986D01*
G37*
G36*
Y100891D02*Y100611D01*
X88510D01*
Y100891D01*
X86986D01*
G37*
G36*
Y101391D02*Y101111D01*
X88510D01*
Y101391D01*
X86986D01*
G37*
G36*
Y101891D02*Y101611D01*
X88510D01*
Y101891D01*
X86986D01*
G37*
G36*
Y102391D02*Y102111D01*
X88510D01*
Y102391D01*
X86986D01*
G37*
G36*
X85618Y105283D02*X85338D01*
Y103759D01*
X85618D01*
Y105283D01*
G37*
G36*
X85118D02*X84838D01*
Y103759D01*
X85118D01*
Y105283D01*
G37*
G36*
X84618D02*X84338D01*
Y103759D01*
X84618D01*
Y105283D01*
G37*
G36*
X84118D02*X83838D01*
Y103759D01*
X84118D01*
Y105283D01*
G37*
G36*
X83618D02*X83338D01*
Y103759D01*
X83618D01*
Y105283D01*
G37*
G36*
X83118D02*X82838D01*
Y103759D01*
X83118D01*
Y105283D01*
G37*
G36*
X82618D02*X82338D01*
Y103759D01*
X82618D01*
Y105283D01*
G37*
G36*
X82118D02*X81838D01*
Y103759D01*
X82118D01*
Y105283D01*
G37*
G36*
X81618D02*X81338D01*
Y103759D01*
X81618D01*
Y105283D01*
G37*
G36*
X81118D02*X80838D01*
Y103759D01*
X81118D01*
Y105283D01*
G37*
G36*
X80618D02*X80338D01*
Y103759D01*
X80618D01*
Y105283D01*
G37*
G36*
X80118D02*X79838D01*
Y103759D01*
X80118D01*
Y105283D01*
G37*
G36*
X79618D02*X79338D01*
Y103759D01*
X79618D01*
Y105283D01*
G37*
G36*
X79118D02*X78838D01*
Y103759D01*
X79118D01*
Y105283D01*
G37*
G36*
X78618D02*X78338D01*
Y103759D01*
X78618D01*
Y105283D01*
G37*
G36*
X78118D02*X77838D01*
Y103759D01*
X78118D01*
Y105283D01*
G37*
G36*
X77618D02*X77338D01*
Y103759D01*
X77618D01*
Y105283D01*
G37*
G36*
X77118D02*X76838D01*
Y103759D01*
X77118D01*
Y105283D01*
G37*
G36*
X76618D02*X76338D01*
Y103759D01*
X76618D01*
Y105283D01*
G37*
G36*
X76118D02*X75838D01*
Y103759D01*
X76118D01*
Y105283D01*
G37*
G36*
X75618D02*X75338D01*
Y103759D01*
X75618D01*
Y105283D01*
G37*
G36*
X75118D02*X74838D01*
Y103759D01*
X75118D01*
Y105283D01*
G37*
G36*
X74618D02*X74338D01*
Y103759D01*
X74618D01*
Y105283D01*
G37*
G36*
X74118D02*X73838D01*
Y103759D01*
X74118D01*
Y105283D01*
G37*
G36*
X73618D02*X73338D01*
Y103759D01*
X73618D01*
Y105283D01*
G37*
G36*
X70446Y102391D02*Y102111D01*
X71970D01*
Y102391D01*
X70446D01*
G37*
G36*
Y101891D02*Y101611D01*
X71970D01*
Y101891D01*
X70446D01*
G37*
G36*
Y101391D02*Y101111D01*
X71970D01*
Y101391D01*
X70446D01*
G37*
G36*
Y100891D02*Y100611D01*
X71970D01*
Y100891D01*
X70446D01*
G37*
G36*
Y100391D02*Y100111D01*
X71970D01*
Y100391D01*
X70446D01*
G37*
G36*
Y99891D02*Y99611D01*
X71970D01*
Y99891D01*
X70446D01*
G37*
G36*
Y99391D02*Y99111D01*
X71970D01*
Y99391D01*
X70446D01*
G37*
G36*
Y98891D02*Y98611D01*
X71970D01*
Y98891D01*
X70446D01*
G37*
G36*
Y98391D02*Y98111D01*
X71970D01*
Y98391D01*
X70446D01*
G37*
G36*
Y97891D02*Y97611D01*
X71970D01*
Y97891D01*
X70446D01*
G37*
G36*
Y97391D02*Y97111D01*
X71970D01*
Y97391D01*
X70446D01*
G37*
G36*
Y96891D02*Y96611D01*
X71970D01*
Y96891D01*
X70446D01*
G37*
G36*
Y96391D02*Y96111D01*
X71970D01*
Y96391D01*
X70446D01*
G37*
G36*
Y95891D02*Y95611D01*
X71970D01*
Y95891D01*
X70446D01*
G37*
G36*
Y95391D02*Y95111D01*
X71970D01*
Y95391D01*
X70446D01*
G37*
G36*
Y94891D02*Y94611D01*
X71970D01*
Y94891D01*
X70446D01*
G37*
G36*
Y94391D02*Y94111D01*
X71970D01*
Y94391D01*
X70446D01*
G37*
G36*
Y93891D02*Y93611D01*
X71970D01*
Y93891D01*
X70446D01*
G37*
G36*
Y93391D02*Y93111D01*
X71970D01*
Y93391D01*
X70446D01*
G37*
G36*
Y92891D02*Y92611D01*
X71970D01*
Y92891D01*
X70446D01*
G37*
G36*
Y92391D02*Y92111D01*
X71970D01*
Y92391D01*
X70446D01*
G37*
G36*
Y91891D02*Y91611D01*
X71970D01*
Y91891D01*
X70446D01*
G37*
G36*
Y91391D02*Y91111D01*
X71970D01*
Y91391D01*
X70446D01*
G37*
G36*
Y90891D02*Y90611D01*
X71970D01*
Y90891D01*
X70446D01*
G37*
G36*
Y90391D02*Y90111D01*
X71970D01*
Y90391D01*
X70446D01*
G37*
G36*
X85538Y107181D02*Y105881D01*
X87038D01*
Y107181D01*
X85538D01*
G37*
G36*
Y108981D02*Y107681D01*
X87038D01*
Y108981D01*
X85538D01*
G37*
G36*
X81474Y107181D02*Y105881D01*
X82974D01*
Y107181D01*
X81474D01*
G37*
G36*
Y108981D02*Y107681D01*
X82974D01*
Y108981D01*
X81474D01*
G37*
G36*
X54706Y90671D02*X52674D01*
Y88131D01*
X54706D01*
Y90671D01*
G37*
G36*
X51150D02*X49118D01*
Y88131D01*
X51150D01*
Y90671D01*
G37*
G36*
X90300Y89101D02*Y87801D01*
X91800D01*
Y89101D01*
X90300D01*
G37*
G36*
Y90901D02*Y89601D01*
X91800D01*
Y90901D01*
X90300D01*
G37*
G36*
X93745Y97215D02*X92445D01*
Y95715D01*
X93745D01*
Y97215D01*
G37*
G36*
X91945D02*X90645D01*
Y95715D01*
X91945D01*
Y97215D01*
G37*
G36*
X73820Y85937D02*X72520D01*
Y84437D01*
X73820D01*
Y85937D01*
G37*
G36*
X75620D02*X74320D01*
Y84437D01*
X75620D01*
Y85937D01*
G37*
G36*
X101604Y104655D02*X100304D01*
Y103155D01*
X101604D01*
Y104655D01*
G37*
G36*
X99804D02*X98504D01*
Y103155D01*
X99804D01*
Y104655D01*
G37*
G36*
X97331Y57417D02*Y56117D01*
X98831D01*
Y57417D01*
X97331D01*
G37*
G36*
Y59217D02*Y57917D01*
X98831D01*
Y59217D01*
X97331D01*
G37*
G36*
X94837Y66980D02*Y65680D01*
X96337D01*
Y66980D01*
X94837D01*
G37*
G36*
Y68780D02*Y67480D01*
X96337D01*
Y68780D01*
X94837D01*
G37*
G36*
X88849Y62184D02*Y60884D01*
X90349D01*
Y62184D01*
X88849D01*
G37*
G36*
Y63984D02*Y62684D01*
X90349D01*
Y63984D01*
X88849D01*
G37*
G36*
X99285Y72842D02*X97985D01*
Y71342D01*
X99285D01*
Y72842D01*
G37*
G36*
X97485D02*X96185D01*
Y71342D01*
X97485D01*
Y72842D01*
G37*
G36*
X96481Y47183D02*Y45883D01*
X97981D01*
Y47183D01*
X96481D01*
G37*
G36*
Y45383D02*Y44083D01*
X97981D01*
Y45383D01*
X96481D01*
G37*
G36*
X98767Y47183D02*Y45883D01*
X100267D01*
Y47183D01*
X98767D01*
G37*
G36*
Y45383D02*Y44083D01*
X100267D01*
Y45383D01*
X98767D01*
G37*
G36*
X92476Y68732D02*Y68452D01*
X93619D01*
Y68732D01*
X92476D01*
G37*
G36*
Y69232D02*Y68952D01*
X93619D01*
Y69232D01*
X92476D01*
G37*
G36*
Y69732D02*Y69452D01*
X93619D01*
Y69732D01*
X92476D01*
G37*
G36*
Y70232D02*Y69952D01*
X93619D01*
Y70232D01*
X92476D01*
G37*
G36*
Y70732D02*Y70452D01*
X93619D01*
Y70732D01*
X92476D01*
G37*
G36*
Y71232D02*Y70952D01*
X93619D01*
Y71232D01*
X92476D01*
G37*
G36*
Y71732D02*Y71452D01*
X93619D01*
Y71732D01*
X92476D01*
G37*
G36*
Y72232D02*Y71952D01*
X93619D01*
Y72232D01*
X92476D01*
G37*
G36*
Y72732D02*Y72452D01*
X93619D01*
Y72732D01*
X92476D01*
G37*
G36*
Y73232D02*Y72952D01*
X93619D01*
Y73232D01*
X92476D01*
G37*
G36*
Y73732D02*Y73452D01*
X93619D01*
Y73732D01*
X92476D01*
G37*
G36*
Y74232D02*Y73952D01*
X93619D01*
Y74232D01*
X92476D01*
G37*
G36*
X91738Y76112D02*X91459D01*
Y74969D01*
X91738D01*
Y76112D01*
G37*
G36*
X91239D02*X90959D01*
Y74969D01*
X91239D01*
Y76112D01*
G37*
G36*
X90738D02*X90459D01*
Y74969D01*
X90738D01*
Y76112D01*
G37*
G36*
X90239D02*X89959D01*
Y74969D01*
X90239D01*
Y76112D01*
G37*
G36*
X89738D02*X89459D01*
Y74969D01*
X89738D01*
Y76112D01*
G37*
G36*
X89239D02*X88959D01*
Y74969D01*
X89239D01*
Y76112D01*
G37*
G36*
X88738D02*X88459D01*
Y74969D01*
X88738D01*
Y76112D01*
G37*
G36*
X88239D02*X87959D01*
Y74969D01*
X88239D01*
Y76112D01*
G37*
G36*
X87738D02*X87459D01*
Y74969D01*
X87738D01*
Y76112D01*
G37*
G36*
X87239D02*X86959D01*
Y74969D01*
X87239D01*
Y76112D01*
G37*
G36*
X86738D02*X86459D01*
Y74969D01*
X86738D01*
Y76112D01*
G37*
G36*
X86239D02*X85959D01*
Y74969D01*
X86239D01*
Y76112D01*
G37*
G36*
X84079Y74232D02*Y73952D01*
X85222D01*
Y74232D01*
X84079D01*
G37*
G36*
Y73732D02*Y73452D01*
X85222D01*
Y73732D01*
X84079D01*
G37*
G36*
Y73232D02*Y72952D01*
X85222D01*
Y73232D01*
X84079D01*
G37*
G36*
Y72732D02*Y72452D01*
X85222D01*
Y72732D01*
X84079D01*
G37*
G36*
Y72232D02*Y71952D01*
X85222D01*
Y72232D01*
X84079D01*
G37*
G36*
Y71732D02*Y71452D01*
X85222D01*
Y71732D01*
X84079D01*
G37*
G36*
Y71232D02*Y70952D01*
X85222D01*
Y71232D01*
X84079D01*
G37*
G36*
Y70732D02*Y70452D01*
X85222D01*
Y70732D01*
X84079D01*
G37*
G36*
Y70232D02*Y69952D01*
X85222D01*
Y70232D01*
X84079D01*
G37*
G36*
Y69732D02*Y69452D01*
X85222D01*
Y69732D01*
X84079D01*
G37*
G36*
Y69232D02*Y68952D01*
X85222D01*
Y69232D01*
X84079D01*
G37*
G36*
Y68732D02*Y68452D01*
X85222D01*
Y68732D01*
X84079D01*
G37*
G36*
X86239Y67715D02*X85959D01*
Y66572D01*
X86239D01*
Y67715D01*
G37*
G36*
X86739D02*X86459D01*
Y66572D01*
X86739D01*
Y67715D01*
G37*
G36*
X87239D02*X86959D01*
Y66572D01*
X87239D01*
Y67715D01*
G37*
G36*
X87739D02*X87459D01*
Y66572D01*
X87739D01*
Y67715D01*
G37*
G36*
X88239D02*X87959D01*
Y66572D01*
X88239D01*
Y67715D01*
G37*
G36*
X88739D02*X88459D01*
Y66572D01*
X88739D01*
Y67715D01*
G37*
G36*
X89239D02*X88959D01*
Y66572D01*
X89239D01*
Y67715D01*
G37*
G36*
X89739D02*X89459D01*
Y66572D01*
X89739D01*
Y67715D01*
G37*
G36*
X90239D02*X89959D01*
Y66572D01*
X90239D01*
Y67715D01*
G37*
G36*
X90739D02*X90459D01*
Y66572D01*
X90739D01*
Y67715D01*
G37*
G36*
X91239D02*X90959D01*
Y66572D01*
X91239D01*
Y67715D01*
G37*
G36*
X91739D02*X91459D01*
Y66572D01*
X91739D01*
Y67715D01*
G37*
G36*
X49384Y66573D02*X48084D01*
Y65073D01*
X49384D01*
Y66573D01*
G37*
G36*
X47584D02*X46284D01*
Y65073D01*
X47584D01*
Y66573D01*
G37*
G36*
X56519Y64777D02*X55219D01*
Y63277D01*
X56519D01*
Y64777D01*
G37*
G36*
X54719D02*X53419D01*
Y63277D01*
X54719D01*
Y64777D01*
G37*
G36*
X93500Y86661D02*X92200D01*
Y85161D01*
X93500D01*
Y86661D01*
G37*
G36*
X91700D02*X90400D01*
Y85161D01*
X91700D01*
Y86661D01*
G37*
G36*
X90744Y82385D02*Y81085D01*
X92244D01*
Y82385D01*
X90744D01*
G37*
G36*
Y80585D02*Y79285D01*
X92244D01*
Y80585D01*
X90744D01*
G37*
G36*
X99663Y65884D02*Y64584D01*
X101163D01*
Y65884D01*
X99663D01*
G37*
G36*
Y64084D02*Y62784D01*
X101163D01*
Y64084D01*
X99663D01*
G37*
G36*
Y68932D02*Y67632D01*
X101163D01*
Y68932D01*
X99663D01*
G37*
G36*
Y70732D02*Y69432D01*
X101163D01*
Y70732D01*
X99663D01*
G37*
G36*
X105493Y73464D02*X103461D01*
Y67876D01*
X105493D01*
Y73464D01*
G37*
G36*
Y63964D02*X103461D01*
Y58376D01*
X105493D01*
Y63964D01*
G37*
G36*
X96869Y65732D02*Y64432D01*
X98369D01*
Y65732D01*
X96869D01*
G37*
G36*
Y63932D02*Y62632D01*
X98369D01*
Y63932D01*
X96869D01*
G37*
G36*
X51640Y100722D02*Y94722D01*
X59640D01*
Y100722D01*
X51640D01*
G37*
G36*
X47340Y96222D02*Y94622D01*
X50840D01*
Y96222D01*
X47340D01*
G37*
G36*
Y100822D02*Y99222D01*
X50840D01*
Y100822D01*
X47340D01*
G37*
G36*
X60040Y65271D02*X58008D01*
Y62731D01*
X60040D01*
Y65271D01*
G37*
G36*
X63596D02*X61564D01*
Y62731D01*
X63596D01*
Y65271D01*
G37*
G36*
X69237Y48018D02*X68137D01*
Y45368D01*
X69237D01*
Y48018D01*
G37*
G36*
X66737Y47518D02*X65637D01*
Y44868D01*
X66737D01*
Y47518D01*
G37*
G36*
X64237Y46718D02*X63137D01*
Y44069D01*
X64237D01*
Y46718D01*
G37*
G36*
X61737D02*X60637D01*
Y44069D01*
X61737D01*
Y46718D01*
G37*
G36*
X59237Y47518D02*X58137D01*
Y44868D01*
X59237D01*
Y47518D01*
G37*
G36*
X56737D02*X55637D01*
Y44868D01*
X56737D01*
Y47518D01*
G37*
G36*
X54237D02*X53137D01*
Y44868D01*
X54237D01*
Y47518D01*
G37*
G36*
X52612D02*X51512D01*
Y44868D01*
X52612D01*
Y47518D01*
G37*
G36*
X71737Y45218D02*X70637D01*
Y42568D01*
X71737D01*
Y45218D01*
G37*
G36*
X49937Y64278D02*X48937D01*
Y60778D01*
X49937D01*
Y64278D01*
G37*
G36*
X51837Y64278D02*X50437D01*
Y61778D01*
X51837D01*
Y64278D01*
G37*
G36*
X76887Y44428D02*X74187D01*
Y41428D01*
X76887D01*
Y44428D01*
G37*
G36*
X48787D02*X46087D01*
Y41428D01*
X48787D01*
Y44428D01*
G37*
G36*
X48737Y64278D02*X47337D01*
Y60778D01*
X48737D01*
Y64278D01*
G37*
G36*
X87997Y53379D02*X86697D01*
Y51879D01*
X87997D01*
Y53379D01*
G37*
G36*
X86197D02*X84897D01*
Y51879D01*
X86197D01*
Y53379D01*
G37*
G36*
X81411Y52331D02*X80111D01*
Y50831D01*
X81411D01*
Y52331D01*
G37*
G36*
X79611D02*X78311D01*
Y50831D01*
X79611D01*
Y52331D01*
G37*
G36*
X87117Y44749D02*X86517D01*
Y42549D01*
X87117D01*
Y44749D01*
G37*
G36*
X85847D02*X85247D01*
Y42549D01*
X85847D01*
Y44749D01*
G37*
G36*
X84577D02*X83977D01*
Y42549D01*
X84577D01*
Y44749D01*
G37*
G36*
X83307D02*X82707D01*
Y42549D01*
X83307D01*
Y44749D01*
G37*
G36*
X82037D02*X81437D01*
Y42549D01*
X82037D01*
Y44749D01*
G37*
G36*
X87117Y48649D02*X86517D01*
Y46449D01*
X87117D01*
Y48649D01*
G37*
G36*
X85847D02*X85247D01*
Y46449D01*
X85847D01*
Y48649D01*
G37*
G36*
X84577D02*X83977D01*
Y46449D01*
X84577D01*
Y48649D01*
G37*
G36*
X83307D02*X82707D01*
Y46449D01*
X83307D01*
Y48649D01*
G37*
G36*
X82037D02*X81437D01*
Y46449D01*
X82037D01*
Y48649D01*
G37*
G36*
X91147Y44621D02*Y43321D01*
X92647D01*
Y44621D01*
X91147D01*
G37*
G36*
Y46421D02*Y45121D01*
X92647D01*
Y46421D01*
X91147D01*
G37*
G36*
X95211Y40187D02*Y38887D01*
X96711D01*
Y40187D01*
X95211D01*
G37*
G36*
Y41987D02*Y40687D01*
X96711D01*
Y41987D01*
X95211D01*
G37*
G36*
X97751Y40187D02*Y38887D01*
X99251D01*
Y40187D01*
X97751D01*
G37*
G36*
Y41987D02*Y40687D01*
X99251D01*
Y41987D01*
X97751D01*
G37*
M02*
