M48
INCH
T61C0.020
T60C0.035
T59C0.043
%
T61
X0018390Y0027110
X0022740Y0032490
X0023440Y0021810
X0024640Y0021810
X0024650Y0043300
X0024750Y0044100
X0025440Y0038490
X0025650Y0044520
X0025930Y0035820
X0026650Y0044520
X0027140Y0027510
X0027240Y0036520
X0027440Y0038490
X0027570Y0035730
X0027650Y0044520
X0028520Y0033430
X0028650Y0044520
X0028710Y0042460
X0028740Y0039090
X0029650Y0044520
X0029720Y0036230
X0030110Y0041140
X0030650Y0044520
X0031490Y0041140
X0031650Y0039470
X0031650Y0044520
X0031780Y0043240
X0032650Y0044520
X0032850Y0030290
X0032870Y0035930
X0032980Y0020310
X0033300Y0025930
X0033490Y0030730
X0033650Y0044520
X0033680Y0020410
X0033950Y0039670
X0033950Y0037110
X0034000Y0026130
X0034000Y0024930
X0034000Y0024230
X0034150Y0028990
X0034190Y0029530
X0034330Y0031970
X0034530Y0027570
X0034580Y0043240
X0034650Y0044520
X0034680Y0024820
X0034780Y0018010
X0035250Y0036120
X0035250Y0035420
X0035280Y0026130
X0035330Y0029670
X0035350Y0038490
X0035440Y0028580
X0035480Y0019210
X0035480Y0017910
X0036130Y0028570
X0036730Y0032470
X0036750Y0044400
X0036750Y0025990
X0036850Y0017490
X0037150Y0037970
X0037540Y0028980
X0037650Y0025990
X0037710Y0040060
X0037780Y0023720
X0038340Y0039700
X0038380Y0021610
X0038840Y0029680
X0039180Y0021610
X0039180Y0020310
X0039280Y0037260
X0039350Y0031990
X0039540Y0026880
X0039680Y0019710
T60
X0019350Y0039100
X0019740Y0036890
X0020450Y0034750
X0021250Y0026750
X0021520Y0039850
X0021520Y0039070
X0021520Y0038280
X0022130Y0019780
X0022150Y0035990
X0022300Y0039850
X0022300Y0039070
X0022300Y0038280
X0023090Y0039850
X0023090Y0039070
X0023090Y0038280
X0025080Y0019460
X0025600Y0025800
X0025840Y0027840
X0027000Y0025600
X0029500Y0024200
X0032480Y0039000
X0033480Y0041040
X0036740Y0041300
T59
X0022250Y0042100
X0022250Y0041100
X0027740Y0026910
X0028740Y0026910
X0029740Y0026910
X0030740Y0026910
X0031740Y0026910
X0041650Y0021490
X0041650Y0020490
X0041650Y0019490
X0041650Y0018490
X0041650Y0017490
X0041650Y0016490
X0041750Y0041690
X0041750Y0040690
X0041750Y0039690
X0041750Y0038690
X0041750Y0037690
X0041750Y0036690
X0041750Y0034980
X0041750Y0033980
X0041750Y0032980
X0041750Y0031980
X0041750Y0030980
M30
